<svg xmlns="http://www.w3.org/2000/svg" viewBox="0 0 500 500"><ellipse cx="250" cy="344.13" rx="242.11" ry="139.78" style="fill:#f5f5f5"/><ellipse cx="368.67" cy="393.32" rx="62.53" ry="36.1" style="fill:#e0e0e0"/><ellipse cx="217.56" cy="396.26" rx="63.13" ry="36.45" style="fill:#e0e0e0"/><path d="m447.48 398 17-9.79c1.5-.87 1.5-2.27 0-3.14l-55.86-32.25a6 6 0 0 0-5.45 0l-16.95 9.79c-1.51.87-1.51 2.27 0 3.14L442 398a6 6 0 0 0 5.48 0zM125.36 402.25l-96.86-55.9 200.98-116.04 96.86 55.9-200.98 116.04z" style="fill:#e0e0e0"/><path d="M458.5 333.31v46.21a8.17 8.17 0 0 1-3.64 6.33l-4.36 2.52a8 8 0 0 1-5.14.75 6.53 6.53 0 0 1-2.12-.69.33.33 0 0 1-.1-.06l-.27-.15-51.29-29.62a12.1 12.1 0 0 1-6.06-10.49v-43.44a3.46 3.46 0 0 1 1.56-2.7l8.57-4.94a3.39 3.39 0 0 1 3.1 0l58.19 33.59a3.16 3.16 0 0 1 1.1 1.16 3.22 3.22 0 0 1 .46 1.53z" style="fill:#92e3a9"/><path d="M458.5 333.31v46.21a8.17 8.17 0 0 1-3.64 6.33l-4.36 2.52a8 8 0 0 1-5.14.75 6.53 6.53 0 0 1-2.12-.69c2 .93 3.58-.11 3.58-2.47V341a4.81 4.81 0 0 0-.69-2.33l11.87-6.89a3.22 3.22 0 0 1 .5 1.53z" style="opacity:.2"/><path d="M446.82 341a5.23 5.23 0 0 0-2.35-4.08l-55-31.75c-2.18-1.26-4-.23-4 2.28v40.68a12.1 12.1 0 0 0 6.06 10.49l51.29 29.62c2.17 1.25 3.95.23 3.95-2.28z" style="opacity:.30000000000000004"/><path d="M385.52 319.73a10 10 0 0 0 4.51 7.81l52.28 30.18c2.48 1.44 4.51.26 4.51-2.6v-15.45a2.47 2.47 0 0 1 1.24-2.15l8-4.61L395.65 297l-8.89 5.1a2.49 2.49 0 0 0-1.24 2.15z" style="fill:#92e3a9;opacity:.6000000000000001"/><path d="m395.65 297-8.89 5.1a2.6 2.6 0 0 0-.94 1l61.35 35.29a2.42 2.42 0 0 1 .89-.88l8-4.61z" style="fill:#92e3a9"/><path d="m412.09 336.8 8.13 4.7a5 5 0 0 1 2.28 3.91v1.85c0 1.44-1 2-2.24 1.31l-8.18-4.73a5 5 0 0 1-2.26-3.91v-1.82c.01-1.44 1.02-2.03 2.27-1.31z" style="fill:#37474f"/><path d="M415.56 305.07v6.43l-3.72 2.15v-9.81c0-.51.36-.71.79-.46z" style="fill:#263238"/><path d="M435 311.89v12l-2.76 1.6-1.86-1.07v-9.82a1.74 1.74 0 0 0-.79-1.37l-14.07-8.12-2.93-1.69c-.43-.25-.79-.05-.79.46v9.81l-1.8-1.12v-12.11a1.77 1.77 0 0 1 .79-1.22l1.17-.68a1.78 1.78 0 0 1 1.59 0l20.71 12a1.76 1.76 0 0 1 .74 1.33z" style="fill:#455a64"/><path d="M432.28 313.49v12l-1.86-1.07v-9.82a1.74 1.74 0 0 0-.79-1.37l-14.07-8.12-2.93-1.69c-.43-.25-.79-.05-.79.46v9.81l-1.84-1.12v-12.11c.07-.39.4-.53.79-.3l20.71 12a1.77 1.77 0 0 1 .78 1.33z" style="fill:#37474f"/><g><path d="M66.59 302.66a5 5 0 0 0 .12 1.07 2.43 2.43 0 0 0 1 1.49 2.79 2.79 0 0 0 3-.23 9 9 0 0 0 4.04-6.99 2.9 2.9 0 0 0-1.15-2.59l-.2-.11a2.5 2.5 0 0 0-1.74-.07 4.94 4.94 0 0 0-1 .43 9 9 0 0 0-4.07 7z" style="fill:#455a64"/><path d="M67.71 293.89a3.68 3.68 0 0 1 1.81-.55 2.11 2.11 0 0 1 1.15.32l.11.06 2.63 1.52a2.5 2.5 0 0 0-1.74-.07 4.94 4.94 0 0 0-1 .43 9 9 0 0 0-4.08 7.06 5 5 0 0 0 .12 1.07 2.43 2.43 0 0 0 1 1.49L65 303.66l-.23-.14a.15.15 0 0 1-.07-.05 3 3 0 0 1-1-2.5 9 9 0 0 1 4.01-7.08z" style="fill:#263238"/><path d="M110.73 278.93a5 5 0 0 0 .11 1.07 2.44 2.44 0 0 0 1 1.49 2.79 2.79 0 0 0 3-.23 9 9 0 0 0 4.08-7.06 2.89 2.89 0 0 0-1.14-2.59l-.2-.12a2.56 2.56 0 0 0-1.74-.06 4.94 4.94 0 0 0-1 .43 9 9 0 0 0-4.11 7.07z" style="fill:#455a64"/><path d="M111.84 270.16a3.68 3.68 0 0 1 1.82-.55 2.1 2.1 0 0 1 1.14.32l.11.06 2.63 1.51a2.56 2.56 0 0 0-1.74-.06 4.94 4.94 0 0 0-1 .43 9 9 0 0 0-4.07 7.06 5 5 0 0 0 .11 1.07 2.44 2.44 0 0 0 1 1.49l-2.71-1.56-.23-.14h-.07a3 3 0 0 1-1-2.5 9 9 0 0 1 4.01-7.13z" style="fill:#263238"/><path d="M102.85 311.93a4.93 4.93 0 0 1-.11 1.06 2.47 2.47 0 0 1-1 1.5 2.83 2.83 0 0 1-3-.23 9 9 0 0 1-4.08-7.07 2.89 2.89 0 0 1 1.15-2.58l.2-.12a2.53 2.53 0 0 1 1.73-.07 4.13 4.13 0 0 1 1 .44 9 9 0 0 1 4.11 7.07z" style="fill:#455a64"/><path d="M101.74 303.16a3.71 3.71 0 0 0-1.82-.55 2.16 2.16 0 0 0-1.15.32l-.1.05L96 304.5a2.53 2.53 0 0 1 1.73-.07 4.13 4.13 0 0 1 1 .44 9 9 0 0 1 4.08 7.06 4.93 4.93 0 0 1-.11 1.06 2.47 2.47 0 0 1-1 1.5l2.7-1.57.23-.14h.07a3 3 0 0 0 1-2.51 9 9 0 0 0-3.96-7.11z" style="fill:#263238"/><path d="M131.5 297.89a5.77 5.77 0 0 1-.11 1.07 2.51 2.51 0 0 1-1 1.5 2.85 2.85 0 0 1-3-.23 9 9 0 0 1-4.08-7.07 2.88 2.88 0 0 1 1.15-2.58l.19-.11a2.53 2.53 0 0 1 1.73-.07 4.3 4.3 0 0 1 1 .44 9 9 0 0 1 4.12 7.05z" style="fill:#455a64"/><path d="M130.39 289.12a3.85 3.85 0 0 0-1.82-.55 2.2 2.2 0 0 0-1.15.32l-.1.06-2.63 1.52a2.53 2.53 0 0 1 1.73-.07 4.3 4.3 0 0 1 1 .44 9 9 0 0 1 4.08 7.05 5.77 5.77 0 0 1-.11 1.07 2.51 2.51 0 0 1-1 1.5l2.7-1.57.23-.14h.07a3 3 0 0 0 1-2.51 9 9 0 0 0-4-7.12z" style="fill:#263238"/><path d="M76.13 280.68a5 5 0 0 1-.12 1.07 2.49 2.49 0 0 1-1 1.5 2.83 2.83 0 0 1-3-.23A9 9 0 0 1 68 276a2.88 2.88 0 0 1 1.15-2.58l.2-.11a2.56 2.56 0 0 1 1.74-.07 4.5 4.5 0 0 1 1 .44 9 9 0 0 1 4.04 7z" style="fill:#455a64"/><path d="M75 271.91a3.79 3.79 0 0 0-1.81-.55 2.2 2.2 0 0 0-1.15.32l-.11.06-2.63 1.52a2.56 2.56 0 0 1 1.74-.07 4.5 4.5 0 0 1 1 .44 9 9 0 0 1 4.08 7.05 5 5 0 0 1-.12 1.07 2.49 2.49 0 0 1-1 1.5l2.7-1.57.23-.14H78a3 3 0 0 0 1-2.51 9 9 0 0 0-4-7.12z" style="fill:#263238"/><path style="fill:#ebebeb" d="m100.48 272.06 14.56-4.18v3.11l-14.56 8.41v-7.34z"/><path style="fill:#f5f5f5" d="m100.48 272.06-1.44-.88 14.61-3.99 1.39.69-14.56 4.18z"/><path style="fill:#ebebeb" d="m94.18 281.34-20.65-7.73v-3.15l20.65 1.84v9.04z"/><path style="fill:#f5f5f5" d="m73.53 270.46 1.52-.4 20.36 1.31-1.23.93-20.65-1.84z"/><path d="M93.62 280.35c0 2.34 7.19 2.34 7.19 0v-20.42h-7.19z" style="fill:#fafafa"/><path d="m99 275 4 25.68h-2.7L96.56 275a4.33 4.33 0 0 0 2.44 0z" style="fill:#f5f5f5"/><path style="fill:#ebebeb" d="M96.56 275.04v7.04l3.7 22.94v-4.34l-3.7-25.64z"/><path style="fill:#e0e0e0" d="M100.26 300.68h2.7v4.34h-2.7z"/><path style="fill:#ebebeb" d="m95.33 281.87-26.62 13.96v-4.3l26.62-16.47v6.81z"/><path d="M95.33 275.06a3.06 3.06 0 0 1-1.71-.78L67 290.4l1.67 1.13z" style="fill:#f5f5f5"/><path style="fill:#e0e0e0" d="M68.71 295.83v-4.3l-1.67-1.13v4.17l1.67 1.26z"/><path style="fill:#ebebeb" d="m128.9 290.89-28.44-9.73v-6.39l28.44 11.83v4.29z"/><path d="M100.46 274.77c.23-.07.33-.48.35-1.11l28.93 12.59-.84.35z" style="fill:#f5f5f5"/><path style="fill:#e0e0e0" d="M129.74 286.25v4.16l-.84.48v-4.29l.84-.35z"/><path style="opacity:.1" d="M100.26 300.68h2.7v4.34h-2.7zM68.71 295.83v-4.3l-1.67-1.13v4.17l1.67 1.26zM129.74 286.25v4.16l-.84.48v-4.29l.84-.35z"/><path d="M103.3 224.35H91.13v42.12c0 3.49 12.17 3.49 12.17 0z" style="fill:#f0f0f0"/><path d="m54.09 218.52 46.6-24.34s3.27-15.94-7.77-33.32c0 0 3.29-31-2.23-41.26-4-7.86-8.86-6.78-8.86-6.78L28.9 136.71z" style="fill:#92e3a9"/><path d="m54.09 218.52 46.6-24.34s3.27-15.94-7.77-33.32c0 0 3.29-31-2.23-41.26-4-7.86-8.86-6.78-8.86-6.78L28.9 136.71z" style="opacity:.2"/><path d="M81.83 112.82 28.9 136.71l1.74 5.65 57.88-26.13c-3.41-4.14-6.69-3.41-6.69-3.41z" style="fill:#92e3a9"/><path d="M82 162.35a1 1 0 0 0 1.58.69 2.51 2.51 0 0 0 1.19-2.29c-.11-.82-.82-1.13-1.59-.69a2.52 2.52 0 0 0-1.18 2.29zM74 167a1 1 0 0 0 1.58.69 2.51 2.51 0 0 0 1.19-2.29c-.11-.82-.82-1.13-1.59-.69A2.52 2.52 0 0 0 74 167zM65.89 171.67a1 1 0 0 0 1.58.69 2.51 2.51 0 0 0 1.19-2.29c-.11-.82-.82-1.13-1.59-.69a2.5 2.5 0 0 0-1.18 2.29zM57.82 176.33a1 1 0 0 0 1.58.69 2.51 2.51 0 0 0 1.19-2.29c-.11-.82-.82-1.13-1.59-.69a2.5 2.5 0 0 0-1.18 2.29z" style="fill:#fff;opacity:.4"/><path d="M154 214v2.57a9.33 9.33 0 0 1-4.53 7.51l-52 27.27a10.37 10.37 0 0 1-9-.18l-30-17.3a9.82 9.82 0 0 1-4.43-7.69v-2.57a9.28 9.28 0 0 1 4.54-7.49l49.17-25.69a11.27 11.27 0 0 1 9.12-.08l32.45 16.24A9.08 9.08 0 0 1 154 214z" style="fill:#92e3a9"/><path d="M154 214v2.57a9.33 9.33 0 0 1-4.53 7.51l-52 27.27a10.37 10.37 0 0 1-9-.18l-30-17.3a9.82 9.82 0 0 1-4.43-7.69v-2.57a9.28 9.28 0 0 1 4.54-7.49l49.17-25.69a11.27 11.27 0 0 1 9.12-.08l32.45 16.24A9.08 9.08 0 0 1 154 214z" style="opacity:.2"/><path d="M94.12 252.27a10.15 10.15 0 0 1-5.63-1.07l-30-17.3a9.81 9.81 0 0 1-4.43-7.68v-2.58a9.33 9.33 0 0 1 3.94-7.09c-1.85 1.32-1.67 3.25.54 4.53l30 17.31a9.54 9.54 0 0 0 4.58 1.1z" style="opacity:.2"/><path d="m97.46 238.56 52-27.27c2.5-1.31 2.48-3.4 0-4.67l-32.45-16.24a11.27 11.27 0 0 0-9.12.08l-49.26 25.69c-2.51 1.31-2.56 3.52-.11 4.93l30 17.3a10.3 10.3 0 0 0 8.94.18z" style="fill:#92e3a9"/><path d="m97.46 238.56 52-27.27c2.5-1.31 2.48-3.4 0-4.67l-32.45-16.24a11.27 11.27 0 0 0-9.12.08l-49.26 25.69c-2.51 1.31-2.56 3.52-.11 4.93l30 17.3a10.3 10.3 0 0 0 8.94.18z" style="fill:#92e3a9"/><path d="M81.83 112.82s7.66-5.19 15.73-.53 5.41 20.35 4.55 30.46-1.11 27.72 5.89 34.13 30.25-2.11 40.36-2.11l-8.91 32.88c-9.84-5.35-25.57-10.85-38.8-13.47 0 0 .43-20.5-9-32.21 0 0 3.47-8.2 1.2-24.63-2.03-15.21-4.85-20.97-11.02-24.52z" style="fill:#92e3a9"/><path d="M81.83 112.82s7.66-5.19 15.73-.53 5.41 20.35 4.55 30.46-1.11 27.72 5.89 34.13 30.25-2.11 40.36-2.11l-8.91 32.88c-9.84-5.35-25.57-10.85-38.8-13.47 0 0 .43-20.5-9-32.21 0 0 3.47-8.2 1.2-24.63-2.03-15.21-4.85-20.97-11.02-24.52z" style="opacity:.35000000000000003"/><path d="M139.49 207.65c-.46-2.93-2.33-19.86.83-27.22 2.75-6.41 10-6.79 12.21-4s.25 6.07-3.36 10.77c-3 4-4.13 7.68-4.13 17.29z" style="fill:#92e3a9"/><path d="M139.49 207.65c-.46-2.93-2.33-19.86.83-27.22 2.75-6.41 10-6.79 12.21-4s.25 6.07-3.36 10.77c-3 4-4.13 7.68-4.13 17.29z" style="opacity:.2"/><g style="opacity:.5"><path d="M148.41 177.5a2.83 2.83 0 0 1 2 .63c.8 1-.26 3.24-3.43 7.37-3.35 4.38-4.53 8.65-4.68 16.94a.7.7 0 0 1-.37.63l-.24.12c-.7-7.58-.77-17.26 1.12-21.69a6.14 6.14 0 0 1 5.58-4m0-.68a6.82 6.82 0 0 0-6.21 4.41c-2.11 4.94-1.77 15.49-1.17 22a.69.69 0 0 0 1.05.54l.22-.12a1.44 1.44 0 0 0 .7-1.21c.15-8.28 1.3-12.31 4.55-16.54 3.53-4.61 4.48-6.92 3.4-8.23a3.41 3.41 0 0 0-2.54-.87z" style="fill:#fff"/></g><path d="m52.16 232.93 36 18.07-.77-13.26 5.55-3.2c-.4-10.28-3.21-20.82-10.49-23.16-9.09-2.88-20.9-3.81-28-10.21s-6.79-24-5.93-34.14 3.53-25.79-4.54-30.45-15.74.52-15.74.52c-3.45 2.24-7.47 3.86-7.13 6.58a2.93 2.93 0 0 0 2.46 2.77l20.08 76a16.43 16.43 0 0 0 8.51 10.48z" style="fill:#92e3a9"/><path d="m52.16 232.93 36 18.07-.77-13.26 5.55-3.2c-.4-10.28-3.21-20.82-10.49-23.16-9.09-2.88-20.9-3.81-28-10.21s-6.79-24-5.93-34.14 3.53-25.79-4.54-30.45-15.74.52-15.74.52c-3.45 2.24-7.47 3.86-7.13 6.58a2.93 2.93 0 0 0 2.46 2.77l20.08 76a16.43 16.43 0 0 0 8.51 10.48z" style="opacity:.5"/><path d="M38.69 146c3.23 3.87 4.89 10 4.3 25.1s-.36 27.26 5.55 34.66c7 8.77 31 15.76 31 15.76l9.38-4.29a11.74 11.74 0 0 0-6.5-5.8c-9.09-2.88-20.9-3.81-28-10.21s-6.79-24-5.93-34.14 3.53-25.79-4.54-30.45-15.74.52-15.74.52c-3.45 2.24-7.47 3.86-7.13 6.58a2.93 2.93 0 0 0 2.46 2.77c4.53-1.5 11.92-4.41 15.15-.5z" style="fill:#92e3a9"/><path d="M38.69 146c3.23 3.87 4.89 10 4.3 25.1s-.36 27.26 5.55 34.66c7 8.77 31 15.76 31 15.76l9.38-4.29a11.74 11.74 0 0 0-6.5-5.8c-9.09-2.88-20.9-3.81-28-10.21s-6.79-24-5.93-34.14 3.53-25.79-4.54-30.45-15.74.52-15.74.52c-3.45 2.24-7.47 3.86-7.13 6.58a2.93 2.93 0 0 0 2.46 2.77c4.53-1.5 11.92-4.41 15.15-.5z" style="opacity:.35000000000000003"/><path d="m87.37 237.74 5.55-3.2c0-6.15-1.58-19.52-9.37-22.75-6.18-2.57-9.16 1.2-9.09 3.53.07 2.62 2 4.34 5.09 6.15 4.14 2.38 7.82 6.66 7.82 16.27z" style="fill:#92e3a9"/><path d="m87.37 237.74 5.55-3.2c0-6.15-1.58-19.52-9.37-22.75-6.18-2.57-9.16 1.2-9.09 3.53.07 2.62 2 4.34 5.09 6.15 4.14 2.38 7.82 6.66 7.82 16.27z" style="opacity:.2"/><g style="opacity:.5"><path d="M79.7 213.66a7.57 7.57 0 0 1 2.81.65c5.14 2.14 7.32 11 7.64 18.54a.2.2 0 0 1-.09.19l-.25.14c-.9-6.54-3.81-11.15-8.9-14.08-3.39-1.95-3.7-3-3.72-3.86a1.43 1.43 0 0 1 .45-.84 2.73 2.73 0 0 1 2.06-.74m0-.68a3.41 3.41 0 0 0-2.55.94 2.19 2.19 0 0 0-.65 1.34c0 1.27.75 2.52 4.07 4.43 5 2.9 7.86 7.53 8.64 14.14a.31.31 0 0 0 .3.27.28.28 0 0 0 .15 0l.74-.43a.89.89 0 0 0 .44-.81c-.33-7.77-2.63-16.88-8.07-19.14a8.11 8.11 0 0 0-3.07-.7z" style="fill:#fff"/></g></g><g><path style="fill:#92e3a9" d="m125.62 297.63-83.25-48.06 188.4-108.78 83.25 48.07-188.4 108.77z"/><path style="fill:#fff;opacity:.8" d="m125.62 297.63-83.25-48.06 188.4-108.78 83.25 48.07-188.4 108.77z"/><path style="fill:#92e3a9" d="M42.37 249.57v96.12l4.38 2.53v-10.11l74.49 43v10.12l4.38 2.53v-96.13l-83.25-48.06z"/><path style="fill:#fff;opacity:.6000000000000001" d="M42.37 249.57v96.12l4.38 2.53v-10.11l74.49 43v10.12l4.38 2.53v-96.13l-83.25-48.06z"/><path style="fill:#92e3a9" d="m46.75 348.22 4.38-2.53v-5.06l-4.38-2.52v10.11z"/><path style="fill:#92e3a9" d="m46.75 348.22 4.38-2.53v-5.06l-4.38-2.52v10.11zM125.62 393.76l4.38-2.53v-10.12l179.64-103.72v10.12l4.38-2.53v-96.12l-188.4 108.77v96.13z"/><path style="fill:#fff;opacity:.7000000000000001" d="m125.62 393.76 4.38-2.53v-10.12l179.64-103.72v10.12l4.38-2.53v-96.12l-188.4 108.77v96.13z"/><path style="fill:#92e3a9" d="m309.64 287.51-4.38-2.53v-5.06l4.38-2.53v10.12z"/><g style="opacity:.2"><path d="m190.29 195.87 13.91 8a2.06 2.06 0 0 0 1.87 0l55.09-31.81c.52-.29.52-.78 0-1.08l-13.91-8a2.06 2.06 0 0 0-1.87 0l-55.09 31.8c-.52.31-.52.8 0 1.09z"/></g><g><path d="M136.23 213.11 171 233.17a2.18 2.18 0 0 0 2 0l25.57-14.76a.6.6 0 0 0 0-1.13l-34.74-20.06a2.18 2.18 0 0 0-2 0L136.23 212a.6.6 0 0 0 0 1.11z" style="opacity:.2"/><path d="M136.23 211.3 171 231.36a2.18 2.18 0 0 0 2 0l25.5-14.76a.6.6 0 0 0 0-1.13l-34.74-20.06a2.18 2.18 0 0 0-2 0l-25.57 14.76a.6.6 0 0 0 .04 1.13z" style="fill:#ebebeb"/><path d="m161.8 195.41-24.28 14L171 228.74a2.12 2.12 0 0 0 2 0l24.28-14-33.45-19.32a2.18 2.18 0 0 0-2.03-.01z" style="fill:#e0e0e0"/><path d="M136.23 207.77 171 227.83a2.18 2.18 0 0 0 2 0l25.57-14.76a.6.6 0 0 0 0-1.13l-34.74-20.06a2.18 2.18 0 0 0-2 0l-25.57 14.76a.6.6 0 0 0-.03 1.13z" style="fill:#fafafa"/></g><g style="opacity:.2"><path d="M76.76 249.21c3.77 2.17 3.77 5.7 0 7.87a15.06 15.06 0 0 1-13.62 0c-3.77-2.17-3.77-5.7 0-7.87a15.06 15.06 0 0 1 13.62 0z"/></g><g><path d="M75.67 253.56c3-3.1 4.82-10.84 1.86-13.3H62.45c-3 2.46-1.18 10.2 1.85 13.3l.09.09.1.1.28.24.07.06.23.17a2.84 2.84 0 0 0 .39.25 10 10 0 0 0 9.05 0 4.25 4.25 0 0 0 .39-.25c.08-.05.14-.11.21-.16l.09-.07.27-.24.12-.11z" style="fill:#ebebeb"/><path d="M63.76 239.27c-3.44 2-3.44 5.21 0 7.2a13.81 13.81 0 0 0 12.46 0c3.44-2 3.44-5.21 0-7.2a13.75 13.75 0 0 0-12.46 0z" style="fill:#fafafa"/><path d="M66.2 240.68c-2.1 1.21-2.1 3.17 0 4.38a8.37 8.37 0 0 0 7.58 0c2.09-1.21 2.09-3.17 0-4.38a8.37 8.37 0 0 0-7.58 0z" style="fill:#ebebeb"/><path d="M73.78 242.76a8.37 8.37 0 0 0-7.58 0 3.47 3.47 0 0 0-1.26 1.15 3.56 3.56 0 0 0 1.26 1.15 8.37 8.37 0 0 0 7.58 0 3.52 3.52 0 0 0 1.22-1.15 3.43 3.43 0 0 0-1.22-1.15z" style="fill:#e0e0e0"/><path d="M71.36 244.38a11.17 11.17 0 0 0 4.64-5.87c1.39-4.07.57-9-.67-11-1.69-2.75-5.79-2.44-4.57 2.15s2 9.59 0 12.92z" style="fill:#92e3a9"/><path d="M71.36 244.38a11.17 11.17 0 0 0 4.64-5.87c1.39-4.07.57-9-.67-11-1.69-2.75-5.79-2.44-4.57 2.15s2 9.59 0 12.92z" style="opacity:.2"/><path d="M71.5 243.55a.21.21 0 0 1-.13-.05.19.19 0 0 1 0-.26 13.39 13.39 0 0 0 3.43-10 11.38 11.38 0 0 0-1.91-6.13.19.19 0 0 1 0-.26.18.18 0 0 1 .26 0c.62.53 1.83 3.13 2 6.39a13.79 13.79 0 0 1-3.52 10.27.2.2 0 0 1-.13.04z" style="fill:#fff"/><path d="M67.84 244.38a1.78 1.78 0 0 0-.75-1 6.7 6.7 0 0 0-1.35-.58c-.81-.3-1.85-.73-2-1.71a2.81 2.81 0 0 1 .13-1 2.27 2.27 0 0 0 .14-1.42c-.18-.44-.64-.67-1-.93a3.47 3.47 0 0 1-1.09-1 2.18 2.18 0 0 1-.32-1.26c.08-.91.95-1.51 1-2.42 0-1.31-3-3.1-1.4-4.34 2.1-1.59 5.39.25 6.34 1.6s.94 2 2.66 3.11c1.43 1 3.12 1.15 3.12 3s-2.41 2-.52 4.08c1.14 1.28-.74 2.38-1.42 3.89a3.11 3.11 0 0 1-3.54-.02z" style="fill:#92e3a9"/><path d="M69.74 244.93a.18.18 0 0 1-.18-.2c.41-10.88-5.13-14.71-6.24-15a.19.19 0 0 1 .1-.36c1.87.51 6.9 5.11 6.51 15.39a.19.19 0 0 1-.19.17z" style="fill:#fff"/><path d="M68.66 236.81a.21.21 0 0 1-.12-.05c-1.61-1.42-4.75-1.38-4.78-1.38a.19.19 0 0 1 0-.37c.14 0 3.32 0 5 1.47a.2.2 0 0 1 0 .27.18.18 0 0 1-.1.06z" style="fill:#fff"/></g><g><path d="M166.51 261.59c.07.12 0 .25-.14.34l-32.79 18.94a.78.78 0 0 1-.41.09.66.66 0 0 1-.4-.09L87 254.44a.38.38 0 0 1-.15-.16.2.2 0 0 1 0-.23h.06L119.77 235a.85.85 0 0 1 .82 0l45.78 26.43s.08.05.1.09z" style="opacity:.2"/><path d="M88.52 252.12v.79a.87.87 0 0 0 .39.67l43.93 25.36a.83.83 0 0 0 .78 0l31.46-18.16a.86.86 0 0 0 .39-.68v-.79a.86.86 0 0 0-.39-.68l-43.92-25.36a.89.89 0 0 0-.78 0l-31.47 18.17a.88.88 0 0 0-.39.68z" style="fill:#92e3a9"/><path d="M165.13 258.67c.16.12.15.3 0 .41l-31.46 18.17a.83.83 0 0 1-.39.09V279a1 1 0 0 0 .39-.1l31.46-18.16a.86.86 0 0 0 .39-.68v-.79a.87.87 0 0 0-.39-.6z" style="fill:#fff;opacity:.4"/><path d="m88.85 251.48-.05.05a.86.86 0 0 0-.2.42v.89a.86.86 0 0 0 .39.67l43.93 25.36a.81.81 0 0 0 .39.1v-1.7a.78.78 0 0 1-.39-.09l-44.01-25.29a.43.43 0 0 1-.15-.15.23.23 0 0 1 0-.22z" style="opacity:.15"/><path d="M100.42 240.88c0 .71 1 1.45 1.25 2.08a.52.52 0 0 1 .06.16c-.13.45-.55.76-.63 1.06a.71.71 0 0 0 0 .2v.6a3.7 3.7 0 0 0 .06.41 3.31 3.31 0 0 1-.1.44 2.44 2.44 0 0 0-.15.74v.58a.54.54 0 0 0 .3.54l1.76 1 13.19-7.61v-.58l-1.76-1a1.52 1.52 0 0 0-.89-.17h-.12c-.29 0-.68 0-1.2.08a10.9 10.9 0 0 1-2 0h-.51a2.3 2.3 0 0 0-.36 0 8.62 8.62 0 0 1-3.08.34 25.6 25.6 0 0 0-3.59-.73h-.12a2.9 2.9 0 0 0-1.39.38c-.48.27-.65.56-.65.86-.08.13-.07.53-.07.62zm2 .41a.71.71 0 0 1 .31-.31 1.64 1.64 0 0 1 .33-.14 3.41 3.41 0 0 1 2.42.36 1.76 1.76 0 0 1 .71.7.85.85 0 0 1-.32.3 2.64 2.64 0 0 1-1.79.14 3.46 3.46 0 0 1-1-.36 1.71 1.71 0 0 1-.66-.69z" style="fill:#263238"/><path d="M113.47 239.32h-.12c-.29 0-.68 0-1.2.08a10.9 10.9 0 0 1-2 0h-.51a2.3 2.3 0 0 0-.36 0 8.62 8.62 0 0 1-3.08.34 25.6 25.6 0 0 0-3.59-.73h-.12a2.9 2.9 0 0 0-1.39.38c-1.61.93.22 2 .6 2.94s-.44 1.36-.57 1.81.22.68-.08 1.65-.07 1.14.15 1.27l1.76 1 13.19-7.61-1.76-1a1.52 1.52 0 0 0-.92-.13zm-9.88 7.41a.83.83 0 0 1-.73-.06c-.23-.13-.28-.32-.11-.42a.83.83 0 0 1 .73.06c.23.13.28.32.11.42zm2.28-4.53a2.64 2.64 0 0 1-1.79.14 3.46 3.46 0 0 1-1-.36c-.86-.5-1-1.21-.39-1.59a2.52 2.52 0 0 1 .33-.14 3.42 3.42 0 0 1 2.42.37c.9.5 1.08 1.21.43 1.58zm7.89-1.34a.83.83 0 0 1-.73-.06c-.23-.14-.27-.32-.1-.42a.83.83 0 0 1 .73.06c.22.13.27.32.1.42z" style="fill:#37474f"/><path d="m132 274.49 27.38-15.81a.49.49 0 0 0 .23-.4V258a.49.49 0 0 0-.23-.4l-36.18-20.89a.55.55 0 0 0-.47 0l-27.37 15.78a.49.49 0 0 0-.23.4v.31a.49.49 0 0 0 .23.4l36.18 20.89a.55.55 0 0 0 .46 0z" style="fill:#f5f5f5"/><path style="fill:#e0e0e0" d="m141.68 262.68 9.46-5.46.34.2-9.45 5.46-.35-.2zM130.34 269.23l9.45-5.46.34.2-9.45 5.46-.34-.2z"/><path d="M159.44 257.61c.07.07.05.16-.05.23L132 273.64a.48.48 0 0 1-.24.06v.84a.39.39 0 0 0 .24-.05l27.38-15.81a.49.49 0 0 0 .23-.4V258a.47.47 0 0 0-.17-.39z" style="fill:#fafafa"/><path d="M95.32 252.52a.23.23 0 0 0-.07.07.75.75 0 0 0-.06.13V253.17a.49.49 0 0 0 .23.4l36.18 20.89a.36.36 0 0 0 .23.05v-.84a.44.44 0 0 1-.23-.06l-36.24-20.85c-.11-.07-.12-.16-.04-.24z" style="fill:#e0e0e0"/><path d="M133.92 265c-.09.1 0 .23.1.33a1.52 1.52 0 0 1-.1.47.6.6 0 0 1-.22.32c-.13.07-.31 0-.41-.09s-.11 0-.12 0 0 .11 0 .17a.36.36 0 0 1-.15-.1.56.56 0 0 0-.19-.09h-.11c-.01 0 0 .16 0 .24s.07.19 0 .28-.21 0-.24-.09a1.88 1.88 0 0 1-.18-.24h-.13a2.17 2.17 0 0 1 0 .36 2.13 2.13 0 0 1-.11.5c0 .06-.1.28-.25.27a.21.21 0 0 1-.17-.11v-.15a1.19 1.19 0 0 0 0-.77.43.43 0 0 0-.13-.14.17.17 0 0 0-.12 0 .29.29 0 0 0-.13.32c0 .1 0 .21.06.31a2 2 0 0 0 .08.33l.06.11a1 1 0 0 1-.21.45c-.11.14-.46.41-.74.23a.9.9 0 0 1-.34-.52v-.16a2.37 2.37 0 0 0 .36-.45 1.71 1.71 0 0 0 .13-.44 1.14 1.14 0 0 0 0-.55.21.21 0 0 0-.14-.14.33.33 0 0 0-.26 0 .49.49 0 0 0-.23.38 4.63 4.63 0 0 0-.07.52 2.33 2.33 0 0 0 .08.69 2.26 2.26 0 0 1-.51.38 2.9 2.9 0 0 0 .49-.35 1 1 0 0 0 .33.57.49.49 0 0 0 .32.12.88.88 0 0 0 .45-.11.89.89 0 0 0 .45-.58h.06a.38.38 0 0 0 .46-.14 1.2 1.2 0 0 0 .18-.53v-.28l.08.08a.36.36 0 0 0 .39.09c.12-.06.08-.19.06-.27s0-.12 0-.18v-.07c0-.07.18.18.39.17h.06a.28.28 0 0 0 0-.13.55.55 0 0 0 .38.07.48.48 0 0 0 .34-.3 1.29 1.29 0 0 0 .12-.38l.21.34a6.14 6.14 0 0 1 .49 1.12l.23.63h.13a9.43 9.43 0 0 0-.51-1.4 5.36 5.36 0 0 0-.4-.69l-.13-.21a.6.6 0 0 0-.1-.31s-.07.06-.09.12zm-3.81 1.88a2.8 2.8 0 0 1 0-.5 1.76 1.76 0 0 1 .06-.39.34.34 0 0 1 .28-.26.11.11 0 0 1 .14.09.85.85 0 0 1 0 .5 2.14 2.14 0 0 1-.13.48 1.74 1.74 0 0 1-.32.42 1.86 1.86 0 0 1-.03-.38zm1.43 0-.06-.29a.34.34 0 0 1 0-.31.48.48 0 0 1 .1.29 1.63 1.63 0 0 1 0 .38v.05zM137 263.11h-.12s0 .07.07.1a.36.36 0 0 1 0 .17 1.54 1.54 0 0 1 0 .31v.2a.26.26 0 0 1-.12-.05l-.18-.06h-.12a.61.61 0 0 1 0 .3s0 .05-.05.05-.1-.05-.12-.06a.48.48 0 0 0-.17-.1h-.1a.57.57 0 0 0 0 .18s.06.17 0 .2-.12-.06-.18-.14a.22.22 0 0 0-.12-.23h-.11a.39.39 0 0 0 .09.21 1.37 1.37 0 0 1 0 .28.74.74 0 0 1-.26.42.33.33 0 0 1-.51.11.89.89 0 0 0 0-.56 1.3 1.3 0 0 0-.69-.81.09.09 0 0 0-.09 0c-.1.06-.08.15-.07.22a1.21 1.21 0 0 0 .11.3 3.59 3.59 0 0 0 .38.64 1.36 1.36 0 0 0 .27.27.86.86 0 0 1-.11.24h.05a1.2 1.2 0 0 0 .15-.3.51.51 0 0 0 .4 0 .56.56 0 0 0 .36-.43.86.86 0 0 0 .06-.23.32.32 0 0 0 .22.07c.21 0 .15-.22.11-.35a.6.6 0 0 0 .13.09.26.26 0 0 0 .24 0 .18.18 0 0 0 .07-.17.13.13 0 1 1 .24-.05c.18 0 .21-.13.22-.21a2.17 2.17 0 0 0 .07-.35v-.06a2.89 2.89 0 0 1 .29.32 2.79 2.79 0 0 1 .32.47.91.91 0 0 0-.43.21c-.15.14-.34.48.07.54a.49.49 0 0 0 .59-.38.77.77 0 0 0-.06-.33 1.37 1.37 0 0 1 .35 0c.08 0 .12-.06 0-.07a2 2 0 0 0-.42 0 1.4 1.4 0 0 0-.16-.26 4.39 4.39 0 0 0-.28-.36l-.22-.22-.11-.08a.35.35 0 0 0-.06-.04zm-2.23 1.57a3.2 3.2 0 0 1-.33-.55 2.28 2.28 0 0 1-.13-.28c0-.06-.05-.15 0-.21a1.28 1.28 0 0 1 .62.74 1.11 1.11 0 0 1 0 .51 1.17 1.17 0 0 1-.17-.21zm2.93.1a.36.36 0 0 1-.36 0c-.11-.08-.05-.22 0-.31a.68.68 0 0 1 .42-.27.43.43 0 0 1-.07.58zM142.43 260.43c-.06 0-.07.1-.08.14a2.29 2.29 0 0 0-.07.36.62.62 0 0 0-.2-.11.11.11 0 0 0-.1 0 .33.33 0 0 0-.11.13.35.35 0 0 0-.36-.13.39.39 0 0 0-.3.3 1.24 1.24 0 0 0 0 .16c-.06-.14-.11-.28-.16-.42a1.89 1.89 0 0 0-.34-.7.54.54 0 0 0-.62-.19.61.61 0 0 0-.23.22.86.86 0 0 0-.14.29.78.78 0 0 0 0 .16l-.33-.17h-.06l.38.21a1.71 1.71 0 0 0 0 .45 1.57 1.57 0 0 0 .13.47.3.3 0 0 0 .14.13.26.26 0 0 0 .21 0c.24-.17.16-.44.05-.64a1 1 0 0 0-.43-.36.85.85 0 0 1 .28-.64.22.22 0 0 1 .33 0 1.42 1.42 0 0 1 .21.22 2.33 2.33 0 0 1 .27.61 4.54 4.54 0 0 0 .24.61v.06a.73.73 0 0 0 .09.55h.13a.76.76 0 0 0-.08-.55 1.63 1.63 0 0 1 .08-.43.29.29 0 0 1 .16-.19.15.15 0 0 1 .17.05.7.7 0 0 1 .17.25v.09h.14c-.01 0 0 0 0-.06a.68.68 0 0 1 0-.14.25.25 0 0 1 .06-.18c.15.07.2.2.28.29s.16 0 .14 0a.72.72 0 0 1 0-.54v-.14a.34.34 0 0 1 .08.14c0 .1.05.2.08.3l.13.31a5 5 0 0 0 .34.59 2.2 2.2 0 0 0 .54.61h.09a6.38 6.38 0 0 1-.53-.66 4.44 4.44 0 0 1-.38-.71 2.35 2.35 0 0 1-.11-.35.39.39 0 0 0-.13-.27.18.18 0 0 0-.16-.12zM140 261a.56.56 0 0 1 .18.59.34.34 0 0 1-.09.12c-.06 0-.08-.09-.1-.12a1.91 1.91 0 0 1-.11-.41 2.33 2.33 0 0 1 0-.38 1.56 1.56 0 0 1 .12.2zM146 259.31a.89.89 0 0 0-.43 0 1.37 1.37 0 0 0-.18-.16 2.66 2.66 0 0 0-.45-.29h-.14a1.23 1.23 0 0 1 .13.41.39.39 0 0 1 0 .21c0 .06-.13 0-.19 0h-.12c-.01 0 0 .14 0 .15s-.17-.08-.21-.09-.09 0-.09 0 .05.14 0 .19l-.16-.09h-.11a.58.58 0 0 1 .05.14s.06.14 0 .17 0 0-.07 0l-.08-.06a.48.48 0 0 0-.16-.08h-.09a.9.9 0 0 0 0 .23.57.57 0 0 1 0 .13.12.12 0 0 1-.06.11c-.16.06-.4-.37-.44-.43s-.12 0-.11 0a2.55 2.55 0 0 1 .14.35c0 .12 0 .29-.18.34.24 0 .27-.19.25-.32a.43.43 0 0 0 0-.05.4.4 0 0 0 .34.14.19.19 0 0 0 .16-.22 2 2 0 0 0 0-.24c.1.07.21.17.35.11s.08-.1.07-.16a.29.29 0 0 0 0-.09h.06a.1.1 0 0 0 .09 0c.1 0 .09-.11.07-.18a.23.23 0 0 0 .22 0 .1.1 0 0 0 .08-.13.39.39 0 0 0 .24 0 .2.2 0 0 0 .1-.2.82.82 0 0 0-.08-.2l.17.12a1.22 1.22 0 0 1 .27.23.35.35 0 0 0-.12.07c-.1.08-.12.24.11.26s.27-.13.24-.22a.27.27 0 0 0-.06-.1.72.72 0 0 1 .33 0c.06.02.16-.04.06-.05zm-.47.29a.06.06 0 0 1-.12 0c0-.06 0-.11.09-.15a.15.15 0 0 1 .03.15zM146.08 256.51c.06.2.14.4.19.6s.09.41.12.62 0 .41.07.62c-.11-.13-.2-.27-.33-.4a2 2 0 0 0-.5-.36.65.65 0 0 0-.51 0 .44.44 0 0 0-.18.14h-.22a.57.57 0 0 1-.23 0h-.06c.03 0 .32.05.46.07a.76.76 0 0 0-.09.18.5.5 0 0 0 .06.41.51.51 0 0 0 .38.18.33.33 0 0 0 .34-.26c0-.16-.11-.34-.32-.45a1 1 0 0 0-.21-.08.27.27 0 0 1 .12-.09.4.4 0 0 1 .43 0 2.22 2.22 0 0 1 .43.34 4.82 4.82 0 0 1 .35.44l.11.15c0 .08 0 .16.1.21s.12 0 .12 0a.34.34 0 0 0-.08-.23c0-.11 0-.21-.06-.32s0-.4-.06-.6a2.6 2.6 0 0 0-.35-1.16s-.09-.04-.08-.01zm-.67 1.54a.25.25 0 0 1-.06.37.27.27 0 0 1-.35-.11.46.46 0 0 1-.06-.34.59.59 0 0 1 .09-.2.72.72 0 0 1 .38.28zM150.4 256.92a3.88 3.88 0 0 0-.82-1h-.14c.01 0 .17.34.15.51a.2.2 0 0 1-.06.14.69.69 0 0 1-.15.07.13.13 0 0 0-.07.1l-.17-.11h-.13a.71.71 0 0 0 0 .2v.17a1.41 1.41 0 0 1-.28-.26.11.11 0 0 0-.14 0v.27a1 1 0 0 1 0 .17v.11c0 .01 0 0 0 0l-.06-.05a.51.51 0 0 1-.09-.16.74.74 0 0 1-.08-.29h-.14a6.91 6.91 0 0 1 0 .79.77.77 0 0 1-.16.39.66.66 0 0 1-.17.16.83.83 0 0 1-.3.13c-.1 0-.12-.09-.13-.13l-.06-.23v-.13a.72.72 0 0 0 .33-.76c0-.07-.07-.24-.26-.18a.16.16 0 0 0-.1.12.48.48 0 0 0 0 .2c0 .17-.06.33-.07.5v.12l-.11.08h.09v.11a1.21 1.21 0 0 0 .08.25c.09.16.35.1.52 0a.94.94 0 0 0 .41-.37 1.18 1.18 0 0 0 .1-.61l.07.06a.27.27 0 0 0 .3 0c.09-.07.06-.18.06-.26v-.14a1 1 0 0 0 .22.16h.1a.17.17 0 0 0 .12-.19 1 1 0 0 0 0-.16.45.45 0 0 0 .18.1h.12v-.14c0-.04.11 0 .15-.07a.23.23 0 0 0 .12-.22.68.68 0 0 0-.07-.27 3.82 3.82 0 0 1 .47.63l.12.18a.89.89 0 0 0-.44.32.58.58 0 0 0-.13.3.4.4 0 0 0 .11.35.61.61 0 0 0 .54.08.48.48 0 0 0 .33-.3.87.87 0 0 0-.23-.71h.16c.06 0 .09 0 0-.05a.91.91 0 0 0-.29.02zm-3 .44v-.45a.16.16 0 0 1 0 .07.73.73 0 0 1 0 .36.69.69 0 0 1-.2.32 1.65 1.65 0 0 1 .18-.3zm3.13 0a.44.44 0 0 1 0 .32.4.4 0 0 1-.36.23.3.3 0 0 1-.32-.3.37.37 0 0 1 0-.23.7.7 0 0 1 .43-.41 1.44 1.44 0 0 1 .23.43z" style="fill:#37474f"/><path d="m125.53 241.5.32.18a.19.19 0 0 1 0 .36l-22 12.69a.7.7 0 0 1-.63 0l-.31-.18c-.18-.1-.18-.26 0-.36l22-12.69a.7.7 0 0 1 .62 0zM127.45 242.61l.32.18a.19.19 0 0 1 0 .36l-22 12.69a.7.7 0 0 1-.63 0l-.31-.18c-.18-.1-.18-.26 0-.36l22-12.69a.68.68 0 0 1 .62 0zM129.36 243.71l.32.18a.19.19 0 0 1 0 .36l-22 12.7a.77.77 0 0 1-.63 0l-.31-.19c-.18-.1-.18-.26 0-.36l22-12.69a.68.68 0 0 1 .62 0zM133.59 246.15l.32.19a.19.19 0 0 1 0 .36l-22 12.69a.68.68 0 0 1-.62 0l-.32-.19c-.18-.1-.18-.26 0-.36l22-12.69a.68.68 0 0 1 .62 0zM135.51 247.26l.32.19a.19.19 0 0 1 0 .36l-22 12.69a.68.68 0 0 1-.62 0l-.32-.19c-.18-.1-.18-.26 0-.36l22-12.69a.68.68 0 0 1 .62 0zM137.42 248.36l.32.19a.19.19 0 0 1 0 .36l-22 12.69a.68.68 0 0 1-.62 0l-.32-.18a.19.19 0 0 1 0-.37l22-12.69a.68.68 0 0 1 .62 0zM141.65 250.81l.32.18a.19.19 0 0 1 0 .36L120 264a.68.68 0 0 1-.62 0l-.32-.18a.19.19 0 0 1 0-.36l22-12.69a.68.68 0 0 1 .59.04zM143.57 251.92l.32.18a.19.19 0 0 1 0 .36l-22 12.69a.68.68 0 0 1-.62 0L121 265a.19.19 0 0 1 0-.36l22-12.69a.68.68 0 0 1 .57-.03zM145.48 253l.32.18a.19.19 0 0 1 0 .36l-22 12.69a.68.68 0 0 1-.62 0l-.32-.18a.19.19 0 0 1 0-.36l22-12.69a.68.68 0 0 1 .62 0z" style="fill:#e0e0e0"/><path d="M104.64 248.7v.59a1.31 1.31 0 0 0 .3.81l16.14-9.31v-.59a3.55 3.55 0 0 0-1.58-.39 2.6 2.6 0 0 0-1.07.22c-1.17.53-1.51.7-2.23 1a1.18 1.18 0 0 1-1.1-.16l-.48-.44-1.31-1.21a.79.79 0 0 0-.62-.2h-.31a4.34 4.34 0 0 1-1.34 0 2.9 2.9 0 0 1-1.45-.55 3.38 3.38 0 0 0-2.25-.8h-.07a3.24 3.24 0 0 0-1.48.36 2.14 2.14 0 0 0-.42 3.24 1.25 1.25 0 0 1 .36.69 1.61 1.61 0 0 1-.31.75.6.6 0 0 0-.18.39v.59a.37.37 0 0 0 .15.29l1.51 1.39.48.44.05.06a.75.75 0 0 1-.11.15l-2 1.53a1.66 1.66 0 0 0-.68 1.15zm4.31-8.84a1.1 1.1 0 0 1-.56.59 2.22 2.22 0 0 1-1.7.1 1.71 1.71 0 0 1-.64-.37 1.08 1.08 0 0 1-.31-.45 1.1 1.1 0 0 1 .57-.6l.22-.1a2.2 2.2 0 0 1 2.11.37 1.1 1.1 0 0 1 .36.46z" style="fill:#37474f"/><path d="M119.51 239.81a2.6 2.6 0 0 0-1.07.22c-1.17.53-1.51.7-2.23 1a1.18 1.18 0 0 1-1.1-.16l-.48-.44-1.31-1.21a.79.79 0 0 0-.62-.2h-.31a4.34 4.34 0 0 1-1.34 0 2.9 2.9 0 0 1-1.45-.55 3.38 3.38 0 0 0-2.25-.8h-.07a3.24 3.24 0 0 0-1.48.36 1.54 1.54 0 0 0-.42 2.66 1.6 1.6 0 0 1 0 2c-.38.44 0 .69 0 .69l1.51 1.38.48.44c.36.34-.06.8-.06.8l-2 1.53c-.84.76-.8 1.37-.36 2l16.14-9.31a3.55 3.55 0 0 0-1.58-.41zm-10.87-1a1 1 0 0 1-.25 1.63 2.22 2.22 0 0 1-1.7.1 1.71 1.71 0 0 1-.64-.37.94.94 0 0 1 .26-1.63.88.88 0 0 1 .22-.1 2.18 2.18 0 0 1 2.11.38z" style="fill:#455a64"/></g><g><path d="m143.47 241.12 23.89 13.81 4.08.83a.13.13 0 0 0 .14-.19l-1.28-2.34-23.9-13.81c-.8-.42-3.57 1.34-2.93 1.7z" style="opacity:.2"/><path d="M146.1 237.11h.11L146 237h-.25a1 1 0 0 0-.49.15 2.43 2.43 0 0 0-1.09 1.89 1.27 1.27 0 0 0 0 .28v.07a.46.46 0 0 0 .09.17l.26.15a.47.47 0 0 1-.12-.09.9.9 0 0 0 .63-.13 2.42 2.42 0 0 0 1.1-1.9.94.94 0 0 0-.03-.48zm-1.62 2.62z" style="fill:#92e3a9"/><path d="m169 250.33-1.51 2.67-.26-.15-22.54-13a.47.47 0 0 1-.12-.09.9.9 0 0 1-.2-.62 2.41 2.41 0 0 1 1.1-1.89 1 1 0 0 1 .49-.15h.25z" style="fill:#f0f0f0"/><path d="M168.26 250.41c.61-.35 1.1-.07 1.1.63a2.42 2.42 0 0 1-1.1 1.9c-.6.35-1.09.06-1.09-.64a2.43 2.43 0 0 1 1.09-1.89z" style="fill:#92e3a9"/><path d="m170.62 252-1.4-1.53a.71.71 0 0 0-.88 0 2.43 2.43 0 0 0-1.09 1.89.73.73 0 0 0 .42.76h.08l2 .45a.54.54 0 0 0 .35-.08 1.4 1.4 0 0 0 .62-1.08.5.5 0 0 0-.1-.41z" style="fill:#e0e0e0"/><path d="M152.72 242.07a.26.26 0 0 0-.25 0 .83.83 0 0 0-.39.67.3.3 0 0 0 .09.24l16.64 9.61 1.1-.63z" style="fill:#455a64"/><path d="m167.27 251.73 1.54.89 1.1-.63-2.1-1.21a2.64 2.64 0 0 0-.54.95z" style="fill:#37474f"/><path d="m171.17 252.77-1.27-1.39a.5.5 0 0 0-.63 0 1.71 1.71 0 0 0-.77 1.34.52.52 0 0 0 .29.53h.05l1.86.4a.32.32 0 0 0 .2 0 .81.81 0 0 0 .35-.61.28.28 0 0 0-.08-.27z" style="fill:#92e3a9"/><path d="m171.17 252.77-1.27-1.39a.5.5 0 0 0-.63 0 1.71 1.71 0 0 0-.77 1.34.52.52 0 0 0 .29.53h.05l1.86.4a.32.32 0 0 0 .2 0 .81.81 0 0 0 .35-.61.28.28 0 0 0-.08-.27z" style="opacity:.1"/><path d="M171.24 253a.81.81 0 0 1-.35.61.32.32 0 0 1-.2 0l-.94-.2a.37.37 0 0 1-.25-.4 1.25 1.25 0 0 1 .56-1 .38.38 0 0 1 .46 0l.63.69a.28.28 0 0 1 .09.3z" style="fill:#92e3a9"/><ellipse cx="170.89" cy="253.17" rx=".5" ry=".29" transform="rotate(-60 170.862 253.158)" style="opacity:.1"/><path d="M148.58 239.67a.29.29 0 0 0-.28 0 .85.85 0 0 0-.38.67.26.26 0 0 0 .11.25l4.1 2.37a.3.3 0 0 1-.09-.24.83.83 0 0 1 .39-.67.26.26 0 0 1 .25 0z" style="fill:#fafafa"/><path d="M148.69 239.92a.83.83 0 0 1-.39.67.25.25 0 0 1-.27 0 .26.26 0 0 1-.11-.25.85.85 0 0 1 .38-.67.29.29 0 0 1 .28 0 .27.27 0 0 1 .11.25z" style="fill:#f5f5f5"/><path d="m147.83 238.27-1.62-.93a.7.7 0 0 0-.67.08 2.18 2.18 0 0 0-1 1.71.68.68 0 0 0 .29.64l1.64.94a.69.69 0 0 0 .68-.07 2.21 2.21 0 0 0 1-1.71.7.7 0 0 0-.32-.66z" style="fill:#92e3a9"/><path d="m147.83 238.27-1.62-.93a.7.7 0 0 0-.67.08 2.18 2.18 0 0 0-1 1.71.68.68 0 0 0 .29.64l1.64.94a.69.69 0 0 0 .68-.07 2.21 2.21 0 0 0 1-1.71.7.7 0 0 0-.32-.66z" style="opacity:.05"/><path d="M147.11 238.32c.54-.31 1-.06 1 .57a2.21 2.21 0 0 1-1 1.71c-.54.31-1 .06-1-.57a2.21 2.21 0 0 1 1-1.71z" style="opacity:.1"/><path d="M171.69 253.35 171 253a.12.12 0 0 0-.13 0 .4.4 0 0 0-.18.31.14.14 0 0 0 0 .12l.66.4a.28.28 0 0 0 .13 0 .26.26 0 0 0 .26-.26.27.27 0 0 0-.05-.22z" style="fill:#455a64"/><path d="M171.72 253.38a.17.17 0 0 0-.12 0 .4.4 0 0 0-.18.31.14.14 0 0 0 .05.12h.08a.26.26 0 0 0 .17-.45z" style="fill:#263238"/></g><path d="m228.75 223.86 55.51-32.05a2.42 2.42 0 0 1 2.19 0l1.93 1.11a.67.67 0 0 1 0 1.27l-55.51 32.05a2.42 2.42 0 0 1-2.19 0l-1.93-1.12a.67.67 0 0 1 0-1.26z" style="opacity:.2"/><g><path d="M192 193.22v-.38a2 2 0 0 1 .94-1.61L248 159.42a2.06 2.06 0 0 1 1.87 0l11.27 6.51a2.06 2.06 0 0 1 .94 1.62v.37a2.06 2.06 0 0 1-.94 1.62l-55.09 31.8a2.06 2.06 0 0 1-1.87 0l-11.27-6.51a2 2 0 0 1-.91-1.61z" style="fill:#92e3a9"/><path d="M192 193.22v-.38a2 2 0 0 1 .94-1.61L248 159.42a2.06 2.06 0 0 1 1.87 0l11.27 6.51a2.06 2.06 0 0 1 .94 1.62v.37a2.06 2.06 0 0 1-.94 1.62l-55.09 31.8a2.06 2.06 0 0 1-1.87 0l-11.27-6.51a2 2 0 0 1-.91-1.61z" style="opacity:.5"/><path d="m192.93 192.31 11.27 6.51a2.09 2.09 0 0 0 1.87 0L261.16 167a.57.57 0 0 0 0-1.08l-11.27-6.51a2.06 2.06 0 0 0-1.87 0l-55.09 31.81c-.52.3-.52.78 0 1.09z" style="fill:#92e3a9"/><path d="m192.93 192.31 11.27 6.51a2.09 2.09 0 0 0 1.87 0L261.16 167a.57.57 0 0 0 0-1.08l-11.27-6.51a2.06 2.06 0 0 0-1.87 0l-55.09 31.81c-.52.3-.52.78 0 1.09z" style="opacity:.2"/><path d="m284.09 179 3.91-47.78a4.51 4.51 0 0 0-2-4 5 5 0 0 0-4.53.08l-52.36 30.23a5.79 5.79 0 0 0-2.56 4l-3.94 47.81a4.51 4.51 0 0 0 2 4 5 5 0 0 0 4.53-.09l52.36-30.22a5.82 5.82 0 0 0 2.59-4.03z" style="fill:#92e3a9"/><path d="m284.09 179 3.91-47.78a4.51 4.51 0 0 0-2-4 5 5 0 0 0-4.53.08l-52.36 30.23a5.79 5.79 0 0 0-2.56 4l-3.94 47.81a4.51 4.51 0 0 0 2 4 5 5 0 0 0 4.53-.09l52.36-30.22a5.82 5.82 0 0 0 2.59-4.03z" style="opacity:.5"/><path d="m284.09 179 3.91-47.78a4.51 4.51 0 0 0-2-4 5 5 0 0 0-4.53.08l-52.36 30.23a5.27 5.27 0 0 0-1.7 1.72l8.14 4.7v45.59l45.92-26.51a5.82 5.82 0 0 0 2.62-4.03z" style="fill:#92e3a9"/><path d="m284.09 179 3.91-47.78a4.51 4.51 0 0 0-2-4 5 5 0 0 0-4.53.08l-52.36 30.23a5.27 5.27 0 0 0-1.7 1.72l8.14 4.7v45.59l45.92-26.51a5.82 5.82 0 0 0 2.62-4.03z" style="opacity:.2"/><path d="m227.06 212 3.94-47.86a5.79 5.79 0 0 1 2.56-4l52.35-30.22c1.3-.75 2.24-.15 2.12 1.34L284.09 179a5.82 5.82 0 0 1-2.56 4l-52.36 30.22c-1.29.78-2.24.22-2.11-1.22z" style="fill:#92e3a9"/><path d="m227.06 212 3.94-47.86a5.79 5.79 0 0 1 2.56-4l52.35-30.22c1.3-.75 2.24-.15 2.12 1.34L284.09 179a5.82 5.82 0 0 1-2.56 4l-52.36 30.22c-1.29.78-2.24.22-2.11-1.22z" style="opacity:.35000000000000003"/><path d="M254.08 173.59a9.07 9.07 0 0 1 3.83-6.44c1.91-1.11 3.3 0 3.1 2.43a9.08 9.08 0 0 1-3.83 6.44c-1.92 1.11-3.3-.02-3.1-2.43zM255.31 188.05l12.87-7.48-2.19-1.27-12.87 7.48 2.19 1.27z" style="fill:#92e3a9"/><path d="m255.31 188.05 12.87-7.48-2.19-1.27-12.87 7.48 2.19 1.27z" style="opacity:.2"/><path d="m274.15 202.51-15.67 9.06a2 2 0 0 1-1 .22 2 2 0 0 1-.86-.21l-6.9-4a2 2 0 0 1-.9-1.6v-.37c0-.59.41-.84.93-.54l4.17 2.4.93.54-.21-1.06-1.47-20.14 2.19 1.26 12.87-7.48 6.71 20.35a1.63 1.63 0 0 1-.79 1.57z" style="fill:#92e3a9"/><path d="m274.15 202.51-15.67 9.06a2 2 0 0 1-1 .22 2 2 0 0 1-.86-.21l-6.9-4a2 2 0 0 1-.9-1.6v-.37c0-.59.41-.84.93-.54l4.17 2.4.93.54-.21-1.06-1.47-20.14 2.19 1.26 12.87-7.48 6.71 20.35a1.63 1.63 0 0 1-.79 1.57z" style="opacity:.45"/><path style="fill:#92e3a9" d="m249.06 204.98 5.34-3.09 1.09 7.19-6.43-4.1z"/><path style="opacity:.5" d="m249.06 204.98 5.34-3.09 1.09 7.19-6.43-4.1z"/><path d="m255.31 188.05-2.19-1.26 1.47 20.14c.12.59-.21.82-.72.52l-4.17-2.4c-.52-.3-.93-.05-.93.54v.41a2 2 0 0 0 .9 1.6l6.9 4a2 2 0 0 0 .86.21z" style="fill:#92e3a9"/><path d="m255.31 188.05-2.19-1.26 1.47 20.14c.12.59-.21.82-.72.52l-4.17-2.4c-.52-.3-.93-.05-.93.54v.41a2 2 0 0 0 .9 1.6l6.9 4a2 2 0 0 0 .86.21z" style="opacity:.65"/></g></g><g><path d="M233.3 223.74c-4.5-10.7-12.09-29.66-12.55-33.29-.7-5.49 0-33.84.89-43.34s3.68-14 9.8-16.11a13.72 13.72 0 0 1 8.21 8.19c2.24 6.37.93 15.23.93 15.23l-2.76 36 7.05 26.7a12.8 12.8 0 0 0 4.27 6.68 45.37 45.37 0 0 1 4.43 3.7c2.06 2.27 3.21 4.46 5.39 6.42s1.47 2.31 0 2.9-4-.86-6-2.79c-.66-.61-1.27-1.11-1.8-1.52a42.18 42.18 0 0 0 6.78 13.14c2.54 3.09 3.27 5.74-.4 6.89-4.6 1.44-9.33 1.44-13.27-1.38s-6-8.44-7.36-13.07-1.66-9.91-3.61-14.35z" style="fill:#ffa8a7"/><path d="m238.6 190.33.53-10.18s3-31.84 3-38c0-6.91-1.89-10-4.43-11.2s-5.05-1.71-10.79-2.66c-7.85 4.91-7.43 27.55-7.67 41.16s-.84 20.4 1.2 24.66 12.84 29.58 12.84 29.58a19.51 19.51 0 0 0 11.81-5.83z" style="fill:#37474f"/><path style="fill:#ffa8a7" d="M181.97 392.12h12.27l2.45-21.73h-14.72v21.73zM222.51 369.78l13.07.43-.23-22.5-14.79-.28 1.95 22.35z"/><path d="M182.1 214.46c-.24 11.91-2.76 93.77-2.76 93.77a174.87 174.87 0 0 0-1.56 19.42c-.33 15.74 3 53.13 3 53.13.73 3.4 13.42 4.78 15.1 1.71 0 0 6.94-54.23 8.91-69.81 1.71-13.61 7-56.5 7-56.5l4.74 42.09a136.49 136.49 0 0 0 .34 15.3c.51 7.21 4.13 49.75 4.13 49.75.06 2.65 13.26 4.84 15.48.93 0 0 4.18-62.09 4.3-68.71.15-7.54-.9-81.93-.9-81.93z" style="fill:#37474f"/><path d="m194.94 385.88.21-1.85c.68 0 1 .76 1.25 2.39a35.54 35.54 0 0 0 3.26 10c2.09 4.29 3.3 6.07 7.41 11.24 1 1.22 3.17 3.17 3.94 4.54s1 5.16-.27 6c-4.79 3.19-12.07 3.28-17.21 1.77a9.87 9.87 0 0 1-7.48-8.39c-.83-4.69-1.27-7.59-3.66-11.13-.87-1.3-2.29-2.35-2.88-3.8-1.07-2.61-.21-5.54.47-8.14.59-2.24 1.22-4.71 2-4.5v1.38c.92 1 4.15 2 7 2.15 1.87.1 6.02-.24 5.96-1.66zM235.55 366.66c.32.22 1.06 1.07 2.38 2.29a45.6 45.6 0 0 0 4.23 3.27 77.46 77.46 0 0 0 9.42 5.91c3.89 2.14 7.4 3.44 12 5.54a3.93 3.93 0 0 1 1.3.86 2.56 2.56 0 0 1 .56 1.16 4.82 4.82 0 0 1-1.94 4.65 12.92 12.92 0 0 1-4.86 2.07 25 25 0 0 1-12.12.36 34.36 34.36 0 0 1-9.74-4.5 22 22 0 0 0-8.33-3.58c-2.61-.38-5.83-.25-8.09-1.81-2.52-1.73-1.51-5.44-.8-8.62.78-3.48.95-8.78 2.53-8.66l.12 1.38c.14 1.51 3.78 2.19 6.59 2.2 2.33 0 6.73-.61 6.72-1.71z" style="fill:#263238"/><path d="M213.48 237.91a39.9 39.9 0 0 0 13.4-8.6s-2.14 6.24-10.91 11.37l.58 54.39-4.42-38.89z" style="opacity:.30000000000000004"/><path d="M201.88 127.53c-2.23.53-9.29 2.43-15 4.46a16 16 0 0 0-7.23 5.53c-4.17 6.09-.41 19.59 2.65 45-.23 16.44-.7 33.84-.7 33.84 7.55 5.5 42.8 9.24 58.7-2.37 0 0 .53-58.65-.52-66.67-2-15.34-8-19.45-20.43-20.17z" style="fill:#263238"/><path d="M223.54 145.54c1.12 3.84 7.36 29.19 6.9 38.73-.35 7.46-3.15 11.09-4.65 12.68s-4.09 2.43-5.75-.19a21.74 21.74 0 0 1-3.45-9.39c-.52-5.1 2.29-22.74 1.51-40.9a3.9 3.9 0 0 1 5.44-.93z" style="fill:#92e3a9"/><path d="M223.79 136.88c2.61 2.24-.25 8.66-.25 8.66a7.42 7.42 0 0 0-5.44.93s-5.21-2.22-5.22-6.08c0-3.51 3.73-2.38 6.38-2.84 2.81-.49 4.22-2.55 4.53-.67z" style="fill:#92e3a9"/><path d="M223.54 145.54c-.43-1.5-2.48-1.36-4.11-1.88a4.4 4.4 0 0 1-2.21-1.9c-.84-1.45 0-3.87 1.18-4.12-2.53.18-5.53-.39-5.52 2.75 0 3.86 5.22 6.08 5.22 6.08a7.42 7.42 0 0 1 5.44-.93z" style="opacity:.2"/><path d="M205.6 91.85a16.06 16.06 0 1 0 15.67-16.45 16.06 16.06 0 0 0-15.67 16.45zM194.17 103.54s2.89 12.17 4 14.15a5.54 5.54 0 0 0 3.26 2.5l-.43-8.59z" style="fill:#263238"/><path d="M197 86a6 6 0 0 0-5 1.87c-2.09 2.25-.73 9.07 2.1 15.72l4.92.45z" style="fill:#263238"/><path d="M200.56 104c-1 .61-2.42-1.25-3.66-2.49s-5.24-2.87-7.12 1.33 2 9.8 5.12 10.7c5.41 1.56 6.13-1.9 6.13-1.9l.92 21.92c3.83 4.67 12 3.4 16.45 2.49 3.57-.72 4.49-1.72 1-5.6l-.16-6.28a34.09 34.09 0 0 0 7.25.2c3.93-.71 6.35-3.88 7.43-8.18 1.65-6.58 2.06-13.91.41-25.93-2-14.77-19.36-14.5-28.51-8.43S200.56 104 200.56 104z" style="fill:#ffa8a7"/><path d="M200.59 105.61c-.49 0-2.44-3-3.69-4.14C195.16 100 197 86 197 86a6.79 6.79 0 0 1 1-7.57c2.27-2.61 5.43-5.81 16-4.81 7.53.7 15.76 2.85 22.29-.55a11.25 11.25 0 0 1-3.63 12s-2.35 1.59-8.62 2.51-16.09.24-17.43.09c-1.83-.21-2.18 1.57-3.05 6.42-.76 4.25-1.3 11.45-2.97 11.52z" style="fill:#263238"/><path d="M197.05 87 191 84a3.29 3.29 0 0 1 4.47-1.6 3.55 3.55 0 0 1 1.58 4.6z" style="fill:#263238"/><path d="M219.2 124.13s-8.86-1.57-12-3.13a10.27 10.27 0 0 1-4.36-4.11 13.87 13.87 0 0 0 2.54 4.91c2.33 2.83 13.86 4.85 13.86 4.85z" style="fill:#f28f8f"/><path d="M218.46 102.52a1.77 1.77 0 1 1-1.67-1.93 1.81 1.81 0 0 1 1.67 1.93zM217.21 97.27l-3.88 1.89a2.27 2.27 0 0 1 1-3 2.11 2.11 0 0 1 2.88 1.11z" style="fill:#263238"/><path d="m217.25 113.69 5.51 1.51a2.81 2.81 0 0 1-3.45 2.1 3 3 0 0 1-2.06-3.61z" style="fill:#f28f8f"/><path d="m233.05 97.88-4.11-1.41a2.09 2.09 0 0 1 2.69-1.4 2.28 2.28 0 0 1 1.42 2.81zM232.63 101.8a1.77 1.77 0 1 1-1.93-1.67 1.79 1.79 0 0 1 1.93 1.67z" style="fill:#263238"/><path style="fill:#f28f8f" d="m224.16 100.94.64 10.62 5.54-1.92-6.18-8.7z"/><path d="M218.4 136c-4.9-1-15.63-4-16.75-9.7l-.15-3.11c-1.9 0-2.77 2.13-3.71 5.17-.39 8 8.06 15.32 16.55 17.29 0 0-.22-4.16 1.22-6.33a14.69 14.69 0 0 1 2.84-3.32z" style="fill:#37474f"/><path d="M219.22 125a8.38 8.38 0 0 1 3.42 2c6.36 6.58 2.73 15.2 2.73 15.2s-.28-3.77-2.13-5a9.27 9.27 0 0 0-4.84-1.2c1.56-1.66 1.8-3 1-5.6z" style="fill:#37474f"/><g><path d="M335.94 148c-3.78 11-8.5 30.25-8.5 30.25l-35.33 14.23 1 4.64-8.39-3.45-4.15 4.33s4.59 10.73 10.71 9.36a40.19 40.19 0 0 0 4.29-1.08c1.93-.68 3.43-1.53 4.93-2.12 2.22-.86 4.48-1.56 7.43-2.44 11.55-3.44 23.82-6.66 27.43-7.76 5.54-1.7 5.61-2.86 7.91-9.21C346.58 175.59 353 154 353 154v-20.33c-7.3.08-13 2.45-17.06 14.33z" style="fill:#b16668"/><path d="M400.27 369.9a99.57 99.57 0 0 1 1.84 10.1c.49 3.81.79 6.63 1.9 13.15 1 5.94 1.78 10.48-2.42 14.94-3.69 3.93-10.2 5.44-12.34 1-2.45-5.1-2.13-13.39-1.8-18.55s.26-6.67.3-10.78c0-3.62.21-5.1.41-8.22 3.97-.26 8.15-1.33 12.11-1.64z" style="fill:#37474f"/><path d="m356.39 389.12-1.36-.2c-.09-4.28.16-8.18-.9-10.2l1.94-5.24z" style="fill:#263238"/><path d="M359.74 369.66c-.31 2.93-2 5.93-2.09 11.7a50.24 50.24 0 0 0 .15 7.38l-1.41.38-.32-15.64z" style="fill:#263238"/><path d="M327.5 393.05s.06 1.71.8 2.27 2.29 2.25 9.81 1.81 10.16-2.3 12.73-4.65 3.24-8.5 3.63-11.41c.74-5.63 3.08-8.58 5.27-11.41a5 5 0 0 0 .22-2.92s-6.22-.35-8.91 6.54-4.8 14.88-10.88 16.79a105.23 105.23 0 0 1-12.67 2.98z" style="fill:#263238"/><path d="M400.27 369.9c0-4.86 0-11.31.45-19.86.51-10 .58-17.73.54-28.28 0-8-.45-15.06-3.28-30.37 3-30.75 4.09-62.53.46-74.21-3.11-10-6.29-13.37-9.09-18.28-1.46-2.54-4.13-6.31-4.13-9.71a62.84 62.84 0 0 1-22.22 4.32c-14.26.13-19.24-3.74-19.24-3.74s-6.43 74.5-5.09 98.81c.8 14.39 1.95 35.69 2.38 46.16.33 8.07 1.26 18.57 1.18 23a37.38 37.38 0 0 1-2.23 11.37 82.05 82.05 0 0 1-4.67 11.51 11.73 11.73 0 0 1-1.73 2.72 31.16 31.16 0 0 1-3.19 3.1c-2.3 2-3.45 3-3.25 4.8s1.57 2.58 3.12 3c3.7 1.11 7.88.65 11.58 0s7.83-2.4 9.41-5.93a14.38 14.38 0 0 0 .88-3.24c.68-3.64 1.3-7.35 2.83-10.74a23.68 23.68 0 0 1 2.02-4.13c1-1.4 2.16-2.93 2.34-4.68.14-1.46-1-3.53-2.45-5.74-1.28-1.92-.93-3.25-.48-9.29 1-13.08 3.63-22.49 5.87-38.38 1.11-7.89.86-14.21-.47-23 1.52-10.41 4.15-21.33 5.7-28.52 2.51 15 4.12 20.53 5.49 31.91 1.89 15.77 10.76 48.78 12.17 57.27s2.3 14.18 3 21.08c.57 6 1 18 1.77 23.49 1.2 8.77 10.23 6.09 11.69-1.64.9-5.19-1.28-16.09-1.36-22.8z" style="fill:#b16668"/><path d="M343.27 195.74c-.82 10.32-4.57 52-5.3 65.08-.59 10.51-.29 22.92 0 31.49 6.92 4.49 35.24 12.57 49.87-8.68 3 7.23 6.57 11.16 10.81 8.72 0 0 3.11-30.39 3.24-50s-2.22-28.95-7-36-8.16-12-8.16-12zM359.3 362.45c-1.07-1.89-2.05-2.42-3.08-4.05a8.06 8.06 0 0 0-2.43 4c-.46 1.5-1.66 8.89-3.48 14.76-1.36 4.41-3.65 6.75-6.8 7.95a12.72 12.72 0 0 1-6.2.7c-3.91-.53-3-3.35-3-3.35-.9 1.25-4.63 4.29-6.84 6.53-1.25 1.27-.66 3.19.29 4.43 1.09.94 3.64 2.82 13 1.46 8.3-1.2 10.24-5 11-6.76a40.44 40.44 0 0 0 1.72-7.78 24.63 24.63 0 0 1 2.91-8.25c.19-.32.37-.62.55-.88a31.82 31.82 0 0 1 2-2.63c.58-.7 1-1 1.2-1.7a6.34 6.34 0 0 0-.84-4.43z" style="fill:#37474f"/><path d="M341.7 170.68c.22 4.13 2.07 19.09 2.07 19.09 16.87 11.42 41.45-.58 41.45-.58l4.6-31.13s-10.09-10.34-1.83-23.33l-13.38-.86-14.32-.07-7.32-.13c-5.15 3.78-14.05 13.45-15.7 17.69s-3.07 10.49 4.43 19.32z" style="fill:#92e3a9"/><g style="opacity:.6000000000000001"><path d="M341.7 170.68c.22 4.13 2.07 19.09 2.07 19.09 16.87 11.42 41.45-.58 41.45-.58l4.6-31.13s-10.09-10.34-1.83-23.33l-13.38-.86-14.32-.07-7.32-.13c-5.15 3.78-14.05 13.45-15.7 17.69s-3.07 10.49 4.43 19.32z" style="fill:#fff"/></g><path d="M358.25 170c1.46 1.89 8.24 4.22 13.81 1.75a12.6 12.6 0 0 0 7.75-10.2s1.59 8.59-7 12.09-14.12-1.76-14.56-3.64z" style="fill:#263238;opacity:.1"/><path d="M350.43 121.07s25.24 9.84 25.24 5.44c4.73-8.77 14.29-11.6 14.29-26.93 0-16-13.3-23.84-26.6-23.84a24.17 24.17 0 0 0-20.73 11.59c-7.59 2-5.65 12.48 1.95 14.36z" style="fill:#263238"/><path d="M376.33 130c-3.58-3.18-3.61-9-.05-13s9.34-4.65 12.92-1.46 3.61 9 .06 13-9.34 4.61-12.93 1.46z" style="fill:#263238"/><path d="M375.67 134v-19.44s2.5 2.49 6.17-.2c3.29-2.41 4.67-7.58 2.36-10.25-1.63-1.89-6.69-2.93-8.66 1.14 0 0-5.86-.28-13.51-5.71s-9.46-10.22-14.15-10.76c-2.2 1.68-4.34 6.63-4.11 19.68.17 9.66 4.49 14.27 6.7 15.93 1.8 1.35 4.1 1.54 8 .9v9.16s-11.51 12.81-2.24 12.24c13.95-.86 19.44-12.69 19.44-12.69z" style="fill:#b16668"/><path d="M375.54 104.35v5.36a3.79 3.79 0 0 1-3.82-3.75v-5.17zM359.69 104.41a1.77 1.77 0 1 0 1.86-1.71 1.78 1.78 0 0 0-1.86 1.71zM345 99.78l3.86-2.17a2.16 2.16 0 0 0-3-.86 2.26 2.26 0 0 0-.86 3.03z" style="fill:#263238"/><path d="m361.05 114.65-4.92 1.75a2.55 2.55 0 0 0 3.29 1.6 2.66 2.66 0 0 0 1.63-3.35z" style="fill:#9a4a4d"/><path d="M346.21 104a1.78 1.78 0 0 0 1.67 1.88 1.81 1.81 0 0 0 1.86-1.72 1.78 1.78 0 0 0-1.68-1.88 1.8 1.8 0 0 0-1.85 1.72z" style="fill:#263238"/><path style="fill:#9a4a4d" d="m354.71 103.14-.26 9.47-5.08-1.54 5.34-7.93zM358.47 125.29c4.1-.52 12.55-2.9 13.86-6.18a8.47 8.47 0 0 1-3 4.18c-2.52 2.12-10.9 4.51-10.9 4.51z"/><path d="M369.62 76.33c-8.48-1.94-11.86.52-20.44-.39-3.52-.37-6.74-.54-9.09.65-2.68 1.35-4.25 4.31-3.89 8.12.61 6.44 7.55 8.09 7.55 8.09s5.89-13.25 13.71-13.15 12.16-3.32 12.16-3.32zM343.42 187.45l-.15 8.29s5.46 4.18 15.48 4.85 24.09-3.28 28-6.22a13.69 13.69 0 0 1-1.06-8 49.79 49.79 0 0 1-24.83 5.55c-14.04-.68-17.44-4.47-17.44-4.47z" style="fill:#263238"/><path d="M410.66 219.87c1.14-10.38 2.77-29.86 2.25-33.1-.8-4.91-9.27-33-12.19-41.56-2.79-8.1-7-10.57-14.17-10.57 0 0-5 2.24-5 10.2 0 6.06 3 12.27 3 12.27l12.58 35.71.74 24.81a11.54 11.54 0 0 1-2 6.84 40.62 40.62 0 0 0-2.87 4.32c-1.2 2.49-1.64 4.67-3 6.91s-.68 2.37.72 2.51 3.19-1.75 4.48-4c.41-.69.8-1.28 1.16-1.77a37.7 37.7 0 0 1-2.49 13.06c-1.4 3.31-1.35 5.78 2.11 5.83 4.33.07 9.5-1.67 12.17-5.11s3-8.8 3-13.14-1.03-8.89-.49-13.21z" style="fill:#b16668"/></g><path d="M265.52 207.49c-1.37-.22-3.87-.54-5.52-.68-4.73-.4-10.89-.77-10.89-.77l1.47-14.95 8.95 1.28a25.07 25.07 0 0 0 8.3-.2c3.61-.63 6.74-3.15 10.41-3.15 1.89 0 3 1.21 4.12 2.69a21.66 21.66 0 0 1 2.08 2.81c2.7 4.49 6.74 10.35 8.28 11.22 1.81 1 2.85.49 2.85.49 2.05 3.48-5.3 4.48-8.47 5.3a21.52 21.52 0 0 1-10.32-.19c-2.56-.81-9.89-3.63-11.26-3.85z" style="fill:#ffa8a7"/><path d="M186.85 132a23.68 23.68 0 0 0-9.61 5.71c-4 4-4.2 10.73-2.19 17.49s19.43 36.95 22 41.57c3.35 6 5.32 6 11 6.64 7.11.85 49.78 3.64 49.78 3.64 2.49-.49 3.83-12.94 1.34-15.21l-44.95-7-15.13-32.94S195 133.15 186.85 132z" style="fill:#37474f"/><path d="M296.84 190.61c-2.85.8-5.06-.1-8.22-1.15-3.32-1.09-4.13-1.24-6.67-.44-2.36.75-5.08 1.29-6.05 2.69-.29.43-1.25 3.37-2 5.55.06 1.08 2.64 1.46 3.77-.11 1-1.34 1.18-2.13 1.61-2.62a29.06 29.06 0 0 1 5.15 0l11.83 5.28zM264.94 207.4a4.16 4.16 0 0 1 3.45-1.74 24.6 24.6 0 0 1 4.45.23c1.33.16 2.67.26 4 .42.68.09 1.35.18 2 .31.44.08 1 .39 1 .93a5.57 5.57 0 0 1 1.74-.44 2.28 2.28 0 0 1 1.67.53c1 .91.31 2.31-.33 3.2a5.11 5.11 0 0 1-3 2.18 18 18 0 0 1-6.93-.34c-2.23-.58-10.17-3.1-8.05-5.28z" style="fill:#b16668"/></g><g><ellipse cx="288.18" cy="60.6" rx="35.25" ry="30.87" style="fill:#92e3a9"/><path d="M260.36 77.77c-.5 4.12-4.55 11.23-11.06 13.44a.44.44 0 0 0 0 .84 19 19 0 0 0 20-5.9zM316 77.77c.5 4.12 4.55 11.23 11.07 13.44a.44.44 0 0 1 0 .84 19 19 0 0 1-20-5.9z" style="fill:#92e3a9"/><path d="M268.08 54.57a7.67 7.67 0 0 1 2.6.42 6.11 6.11 0 0 1 2 1.19 5.55 5.55 0 0 1 1.38 1.82 6.37 6.37 0 0 1 .54 2.33v2.93a6.47 6.47 0 0 1-.53 2.33 5.57 5.57 0 0 1-1.32 1.82 6 6 0 0 1-2 1.19 7.51 7.51 0 0 1-2.58.42h-5.57a.54.54 0 0 1-.4-.17.53.53 0 0 1-.16-.39V55.12a.53.53 0 0 1 .16-.39.54.54 0 0 1 .4-.16zm2.7 5.67c-.08-1.58-1-2.37-2.81-2.37h-2.1v7.85h2.21c1.73 0 2.63-.8 2.7-2.38v-2.29c.02-.25.02-.52 0-.81zM287.32 65.72a.53.53 0 0 1 .39.16.54.54 0 0 1 .17.39v2.19a.58.58 0 0 1-.56.56h-9.79a.54.54 0 0 1-.39-.17.53.53 0 0 1-.16-.39V55.12a.55.55 0 0 1 .55-.55h9.63a.55.55 0 0 1 .55.55v2.19a.53.53 0 0 1-.16.39.54.54 0 0 1-.39.17h-6.36v2.23h5.9a.55.55 0 0 1 .56.56v2.19a.53.53 0 0 1-.16.39.55.55 0 0 1-.4.16h-5.9v2.32zM297.89 54.57a.82.82 0 0 1 .63.22 1.21 1.21 0 0 1 .3.46l4.5 13a.83.83 0 0 1 .09.31.45.45 0 0 1-.14.32.42.42 0 0 1-.27.12h-2.6a.82.82 0 0 1-.59-.18.7.7 0 0 1-.21-.34l-.6-1.69h-5.49l-.58 1.71a.73.73 0 0 1-.22.34.8.8 0 0 1-.59.18h-2.6a.44.44 0 0 1-.45-.45.78.78 0 0 1 .08-.31l4.5-13a1.21 1.21 0 0 1 .3-.46.82.82 0 0 1 .63-.22zm-3.34 9h3.34l-1.67-5zM315.2 65.72a.55.55 0 0 1 .55.55v2.19a.53.53 0 0 1-.16.39.54.54 0 0 1-.39.17h-9.56a.56.56 0 0 1-.4-.17.53.53 0 0 1-.16-.39V55.12a.53.53 0 0 1 .16-.39.55.55 0 0 1 .4-.16h2.7a.53.53 0 0 1 .39.16.54.54 0 0 1 .17.39v10.6z" style="fill:#fafafa"/></g></svg>