<svg xmlns="http://www.w3.org/2000/svg" viewBox="0 0 750 500"><path d="M577.78 70.32c-72.95-10.21-114.27 31-212.24 34.82-97.39-8.46-134.63-51.46-208.4-44.71C77.77 67.7 16.59 173.29 34.4 279.42s126.42 166.11 181.86 166.11c44.31 0 83.39-18.22 133.9-22.31 50 6.45 87.23 26.46 131.44 28.54 55.31 2.61 169.47-52.14 197.49-157.19S656.26 81.3 577.78 70.32z" style="fill:#92e3a9"/><path d="M577.78 70.32c-72.95-10.21-114.27 31-212.24 34.82-97.39-8.46-134.63-51.46-208.4-44.71C77.77 67.7 16.59 173.29 34.4 279.42s126.42 166.11 181.86 166.11c44.31 0 83.39-18.22 133.9-22.31 50 6.45 87.23 26.46 131.44 28.54 55.31 2.61 169.47-52.14 197.49-157.19S656.26 81.3 577.78 70.32z" style="fill:#fff;opacity:.7000000000000001"/><path style="fill:none;stroke:#263238;stroke-linecap:round;stroke-linejoin:round" d="m655.48 457.89 34.43.09M43.07 456.3l600.18 1.56"/><g style="opacity:.30000000000000004"><path style="fill:none;stroke:#000;stroke-linecap:round;stroke-linejoin:round" d="M534.15 89.87h29.29v12.26h-29.29zM518.49 105.54h29.29v12.26h-29.29zM551.18 105.54h29.29v12.26h-29.29zM73.8 314.71h29.29v12.26H73.8zM66.99 342.64h-8.86v-12.26h29.29v12.26H75.07M90.82 330.38h29.29v12.26H90.82zM620.23 225.75h29.29v12.26h-29.29zM618.13 253.68h-13.56v-12.26h29.28v12.26h-10.06M637.26 241.42h29.29v12.26h-29.29zM171.89 225.75h29.29v12.26h-29.29zM167.19 253.68h-10.96v-12.26h29.28v12.26h-10.23M188.92 241.42h29.29v12.26h-29.29zM620.41 310.21h29.29v12.26h-29.29zM604.75 325.87h29.29v12.26h-29.29zM659.35 325.87h7.38v12.26h-29.29v-12.26h14.63M349.85 310.21h29.29v12.26h-29.29zM343.37 338.13h-9.18v-12.26h29.29v12.26h-13.24M366.88 325.87h29.29v12.26h-29.29zM370.04 387.47h9.1v12.26h-29.29v-12.26h12.91M334.19 403.14h29.29v12.26h-29.29zM366.88 403.14h29.29v12.26h-29.29zM284.75 387.47h29.29v12.26h-29.29zM269.08 403.14h29.29v12.26h-29.29zM313.87 415.4h-12.1v-12.26h29.29v12.26h-9.11M484.78 105.54h29.29v12.26h-29.29zM469.11 121.2h29.29v12.26h-29.29zM501.8 121.2h29.29v12.26H501.8zM71.39 115.92h29.29v12.26H71.39zM55.73 131.59h29.29v12.26H55.73zM107.8 131.59h9.9v12.26H88.42v-12.26h12.91M484.78 166.42h29.29v12.26h-29.29zM469.11 182.09h29.29v12.26h-29.29zM501.8 182.09h29.29v12.26H501.8zM620.41 341.61h29.29v12.26h-29.29zM604.75 357.27h29.29v12.26h-29.29zM651.67 369.53h-14.23v-12.26h29.29v12.26h-10.21"/></g><path d="M507 277s11.15 17.83 15.82 35.07c3.31 12.26 3.46 99.76 3.46 99.76s.23-135.35 16.84-163.3" style="fill:none;stroke:#263238;stroke-linecap:round;stroke-linejoin:round"/><path d="M552 186s-16 25.87-20.52 52.76-8.58 170.13-8.58 170.13c-.26-14 .67-141.65-3.81-163.8a165.93 165.93 0 0 0-12.66-38.23" style="fill:none;stroke:#263238;stroke-linecap:round;stroke-linejoin:round"/><path d="M509.92 214.7s13.46.63 19.74-9.48 2.16-19.76-3.75-20.47-8.48 6.6-10.67 3.1 6.29-10.11-3.21-16.18-13.92 2.64-16.93-.47-.84-11.2-7.1-14.81-9.2.87-12.67 1-14.4-5.74-18.76-1.12 6.07 15.82 1.17 16.15-6.9 9.89-2.91 16.08 16.8 8.63 14.3 11.86-14.74 3-9.76 10.25 21.92 7.7 24.36 8.55-7.8 2.74-6.07 9.5 15.8 7.6 24.85 3.25 7.41-17.21 7.41-17.21z" style="fill:#92e3a9"/><path d="M471.08 169.13s28.59 18.69 38.84 45.57" style="fill:none;stroke:#263238;stroke-linecap:round;stroke-linejoin:round"/><path style="fill:none;stroke:#263238;stroke-linecap:round;stroke-linejoin:round" d="m469.68 182.22 19.16 1.87-4.67-15.9M485.1 204.19h19.17l1.4-17.3"/><path d="M549.35 191.8s-10.93.51-16-7.69-1.75-16.05 3-16.62 6.87 5.36 8.65 2.51-5.1-8.2 2.61-13.13 11.3 2.14 13.75-.38.68-9.13 5.77-12 7.47.71 10.28.83 11.69-4.66 15.23-.9-4.93 12.84-.95 13.1 5.6 8 2.36 13-13.64 7-11.61 9.63 12 2.46 7.92 8.33-17.79 6.25-19.77 6.94 6.33 2.22 4.93 7.71-12.83 6.17-20.17 2.64-6-13.97-6-13.97z" style="fill:#92e3a9"/><path d="M580.87 154.81s-23.2 15.17-31.52 37" style="fill:none;stroke:#263238;stroke-linecap:round;stroke-linejoin:round"/><path style="fill:none;stroke:#263238;stroke-linecap:round;stroke-linejoin:round" d="m582.01 165.43-15.56 1.52 3.8-12.9M569.49 183.27h-15.56l-1.14-14.04"/><path d="M513.6 289.65s8.86.41 13-6.24 1.42-13-2.47-13.48-5.58 4.35-7 2 4.14-6.66-2.12-10.66-9.17 1.74-11.15-.31-.55-7.4-4.68-9.75-6.06.57-8.35.67-9.48-3.78-12.35-.73 4 10.41.77 10.63-4.54 6.51-1.92 10.59 11.07 5.69 9.42 7.81-9.71 2-6.42 6.75 14.43 5.07 16 5.63-5.14 1.8-4 6.26 10.4 5 16.36 2.14 4.91-11.31 4.91-11.31z" style="fill:#92e3a9"/><path d="M488 259.64s18.83 12.31 25.58 30" style="fill:none;stroke:#263238;stroke-linecap:round;stroke-linejoin:round"/><path style="fill:none;stroke:#263238;stroke-linecap:round;stroke-linejoin:round" d="m487.1 268.26 12.62 1.23-3.08-10.47M497.26 282.73h12.62l.92-11.39"/><path d="M523.83 351.88s-11 .51-16.17-7.77-1.76-16.18 3.08-16.76 6.94 5.41 8.73 2.54-5.15-8.28 2.63-13.25 11.4 2.16 13.86-.39.69-9.2 5.83-12.12 7.53.72 10.37.84 11.79-4.7 15.36-.92-5 12.95-1 13.22 5.64 8.1 2.38 13.16-13.76 7.08-11.71 9.72 12.07 2.48 8 8.39-18 6.3-19.94 7 6.38 2.23 5 7.77-12.94 6.22-20.35 2.66-6.07-14.09-6.07-14.09z" style="fill:#92e3a9"/><path d="M555.63 314.56s-23.41 15.3-31.8 37.32" style="fill:none;stroke:#263238;stroke-linecap:round;stroke-linejoin:round"/><path style="fill:none;stroke:#263238;stroke-linecap:round;stroke-linejoin:round" d="m556.78 325.28-15.69 1.53 3.82-13.01M544.15 343.27h-15.7l-1.15-14.16"/><path d="M539.89 254.94s-13.36-1.8-17.73-12.86 1.42-19.83 7.35-19.47 7.16 8 9.94 4.95-4.37-11.06 6.06-15.34 13.22 5.09 16.74 2.56 2.84-10.9 9.65-13.29 8.89 2.5 12.28 3.27 15.2-3.07 18.66 2.26-8.81 14.47-4 15.67 5 11 0 16.34-18.07 5.49-16.19 9.11 14 5.62 7.77 11.84-23 3.65-25.5 4 7.19 4.09 4.28 10.43-16.91 4.65-25-1.24-4.31-18.23-4.31-18.23z" style="fill:#92e3a9"/><path d="M586.25 217.05s-31.47 13.27-46.36 37.89" style="fill:none;stroke:#263238;stroke-linecap:round;stroke-linejoin:round"/><path style="fill:none;stroke:#263238;stroke-linecap:round;stroke-linejoin:round" d="m585.29 230.18-19.19-1.59 7.44-14.81M566.18 249.03l-18.85-3.42 1.71-17.27"/><path d="M504.37 406.1c-1 2.57-1.51 24.44-1.51 27.34 0 19.24 10.61 23.7 23.7 23.7s23.7-3.43 23.7-23.7c0-2.9-.55-24.77-1.5-27.34z" style="fill:#263238;stroke:#263238;stroke-linecap:round;stroke-linejoin:round"/><g><g style="opacity:.30000000000000004"><path style="fill:none;stroke:#000;stroke-linecap:round;stroke-linejoin:round" d="M148.77 39.97h132.46v166.31H148.77z"/><path style="fill:none;stroke:#000;stroke-linecap:round;stroke-linejoin:round" d="M156.01 164.07V49.06h56.86M223.94 49.06h50.05v148.13H156.01V173"/><path style="fill:none;stroke:#000;stroke-linecap:round;stroke-linejoin:round" d="M243.06 130.86v27.49h-56.11V87.9h56.11v33.32"/></g></g><g><path d="M208.92 350.82 224 454.94a1.49 1.49 0 0 0 1.48 1.28h0a1.49 1.49 0 0 0 1.48-1.67l-12.41-102.74z" style="fill:#263238;stroke:#263238;stroke-linecap:round;stroke-linejoin:round"/><path d="M171.65 338.53s16.21-1.8 30.86-.23c6.16.66 27.89 2.36 27.19 7.47s-5.33 7.19-6.26 7.19-87.71 6-89.1 4.64-2.78-4.64-1.86-6.5 39.17-12.57 39.17-12.57z" style="fill:#b8b8b8;stroke:#263238;stroke-linecap:round;stroke-linejoin:round"/><path d="M109.35 265.71a2.33 2.33 0 0 0-2.61 2.87c3.49 14.66 19.34 80.8 21 82.49 1.91 1.9 9.91 5.71 13.34 5.33s20.19-5.71 32.39-16 20.19-21.34 19.43-28.2-5-12.95-8.76-13.71-19.06.38-32.39-3.81-24.39-11.05-30.48-19.43c-4.55-6.25-8.47-8.93-11.92-9.54z" style="fill:#b8b8b8;stroke:#263238;stroke-linecap:round;stroke-linejoin:round"/><path d="m124.73 318 3.69 39.07-22.37 97.72a1.29 1.29 0 0 0 1.24 1.61h0a1.28 1.28 0 0 0 1.24-.95l25.81-97.89 13-.49v-2.65l-13.24-1-7.41-35.79a1 1 0 0 0-.86-.8h0a1 1 0 0 0-1.1 1.17zM476.29 350.82l-15.05 104.12a1.49 1.49 0 0 1-1.47 1.28h0a1.49 1.49 0 0 1-1.49-1.67l12.38-102.74z" style="fill:#263238;stroke:#263238;stroke-linecap:round;stroke-linejoin:round"/><path d="M513.56 338.53s-16.21-1.8-30.86-.23c-6.16.66-27.89 2.36-27.19 7.47s5.34 7.19 6.26 7.19 87.71 6 89.1 4.64 2.79-4.64 1.86-6.5-39.17-12.57-39.17-12.57z" style="fill:#b8b8b8;stroke:#263238;stroke-linecap:round;stroke-linejoin:round"/><path d="M575.86 265.71a2.34 2.34 0 0 1 2.62 2.87c-3.5 14.66-19.35 80.8-21 82.49-1.91 1.9-9.91 5.71-13.34 5.33s-20.19-5.71-32.38-16-20.2-21.34-19.44-28.2 5-12.95 8.77-13.71 19.05.38 32.38-3.81 24.39-11.05 30.49-19.43c4.53-6.25 8.46-8.93 11.9-9.54z" style="fill:#b8b8b8;stroke:#263238;stroke-linecap:round;stroke-linejoin:round"/><path d="m560.49 318-3.7 39.07 22.37 97.72a1.29 1.29 0 0 1-1.24 1.61h0a1.28 1.28 0 0 1-1.24-.95l-25.81-97.85-13-.49v-2.65l13.24-1 7.41-35.79a1 1 0 0 1 .86-.8h0a1 1 0 0 1 1.11 1.13z" style="fill:#263238;stroke:#263238;stroke-linecap:round;stroke-linejoin:round"/></g><g><path style="fill:#fff;stroke:#263238;stroke-linecap:round;stroke-linejoin:round" d="M199.89 457.44h-6.93l-3.47-161.64h13.87l-3.47 161.64z"/><path style="fill:#263238;stroke:#263238;stroke-linecap:round;stroke-linejoin:round" d="M189.71 305.94h13.43l.22-10.14h-13.87l.22 10.14z"/><path style="fill:#fff;stroke:#263238;stroke-linecap:round;stroke-linejoin:round" d="M493.3 457.44h-6.93L482.9 295.8h13.87l-3.47 161.64z"/><path style="fill:#263238;stroke:#263238;stroke-linecap:round;stroke-linejoin:round" d="M483.12 305.94h13.43l.22-10.14H482.9l.22 10.14z"/><path style="fill:#fff;stroke:#263238;stroke-linecap:round;stroke-linejoin:round" d="M184.76 283.46h316.29v16.83H184.76z"/><path style="fill:#263238;stroke:#263238;stroke-linecap:round;stroke-linejoin:round" d="M184.76 283.46h316.29v8.42H184.76z"/><path style="fill:#92e3a9;stroke:#263238;stroke-linecap:round;stroke-linejoin:round" d="M177.87 283.46h330.07v6.4H177.87z"/></g><g><path d="M361.28 214s3.94 3.58 5 3.94 3.1.83 3.1.83l2.27.48-5-7.27z" style="fill:#fff;stroke:#263238;stroke-linecap:round;stroke-linejoin:round"/><path style="fill:#b8b8b8;stroke:#263238;stroke-linecap:round;stroke-linejoin:round" d="m340.03 187.15 46.43 48.64 14.69-6.47-30.95-43.75-30.17 1.58z"/><path style="fill:#fff;stroke:#263238;stroke-linecap:round;stroke-linejoin:round" d="m344.84 188.87 29.88 32.67 18.17-2.34-23.74-32.09-24.31 1.76zM355.91 207.34a12.37 12.37 0 0 1-1.12-1.88 25.1 25.1 0 0 1 .57-3.76c.17-.51.69-.69 1.14.34a5 5 0 0 1 .4 2.4 12 12 0 0 0 .46 1.76l-1.14 1.6z"/><path d="M358.13 210.38s-2.22-2.58-2.22-3a21.77 21.77 0 0 1 1.35-3.1c.06-.18 3-.35 3.45-.53s1.46-.29 1.22.47a2.5 2.5 0 0 1-1.4 1.64 7.75 7.75 0 0 0-1.46.81l-.18.82.82 1.17" style="fill:#fff;stroke:#263238;stroke-linecap:round;stroke-linejoin:round"/><path d="M359.81 212.36s-2.49-2.88-2.49-3.41a26.13 26.13 0 0 1 1.5-3.47c.07-.2 3.34-.39 3.87-.59s1.64-.33 1.38.52a2.81 2.81 0 0 1-1.58 1.84 8.57 8.57 0 0 0-1.64.92l-.19.91.91 1.31" style="fill:#fff;stroke:#263238;stroke-linecap:round;stroke-linejoin:round"/><path d="M362.3 214.92a32.71 32.71 0 0 1-3-3.48 30.62 30.62 0 0 1 1.57-3.27s6.1-1 6.43-.92.52.46-.46 1.37a7.38 7.38 0 0 1-3 1.32c-.39.13-.46 1.83-.46 1.83l1.84 2.29M340.71 214.31a27.83 27.83 0 0 0-4.95 2.37c-1.94 1.3-5.17 3-5.17 3l-3.32 11.35a14 14 0 0 1 7.2 2.44c3.23 2.37 10.12 1.72 11.85.65s4.09-9.48 1.93-11.42-7.54-8.39-7.54-8.39z" style="fill:#fff;stroke:#263238;stroke-linecap:round;stroke-linejoin:round"/><path d="m361.83 223.36-6-1.94s-4.53-3-5.61-3.44a23.89 23.89 0 0 0-4.95-.43s-10.34 14.86-10.77 15.94-.65 3.45.86 3.88 5.17-.86 5.17-.86 3.45 1.72 5.6 1.29 8.62-5 8.62-5l7.54-.21z" style="fill:#fff;stroke:#263238;stroke-linecap:round;stroke-linejoin:round"/><path d="M339.64 218.41s4.74 7.32 6.46 7.54 3.45-.86 2.15-3.23-2.8-6-3.66-8-4.31-1.93-5.82 1.3M352.62 229.52a3.26 3.26 0 0 0-.27 3.77c.53.89 1.12 1.82 1.34 1.82a2.16 2.16 0 0 0 2.1-2.24c-.11-1.48-1.46-5.27-3.17-3.35z" style="fill:#fff;stroke:#263238;stroke-linecap:round;stroke-linejoin:round"/><path d="M350.09 232.27a3.28 3.28 0 0 0-.26 3.77c.52.89 1.12 1.81 1.34 1.81a2.16 2.16 0 0 0 2.1-2.24c-.12-1.47-1.46-5.27-3.18-3.34zM347.18 235a2.66 2.66 0 0 0-.21 3c.43.72.91 1.47 1.08 1.47a1.75 1.75 0 0 0 1.7-1.81c-.09-1.12-1.18-4.18-2.57-2.66zM344.62 236.22a2 2 0 0 0-.16 2.33c.32.55.69 1.12.83 1.12a1.33 1.33 0 0 0 1.29-1.38c-.07-.91-.9-3.29-1.96-2.07z" style="fill:#fff;stroke:#263238;stroke-linecap:round;stroke-linejoin:round"/><path style="fill:#92e3a9;stroke:#263238;stroke-linecap:round;stroke-linejoin:round" d="m331.6 218.38-2.74 14.72-5.23-.22 3.19-15.87 4.78 1.37z"/><path d="M328 215s-2.51 18.37-3.88 20-19.8-3.41-20.71-3.64 1.14-26.39 1.14-26.39S325.91 214.05 328 215z" style="fill:#92e3a9;stroke:#263238;stroke-linecap:round;stroke-linejoin:round"/><path d="M390.49 89.62s-3.35 7.77-3.35 10.85.27 7.64-.53 10-4.69 3.75-3.75 5.76 3.61 3.22 3.61 3.22 1.88 9.65 2.95 12.6 2.82 3.35 4.42 3.08 5.77-1.34 5.77-1.34l3.08 15.94 20.23-11.25-3.35-10.45s5.76-10.05-.4-24.12-19.43-22.46-28.68-14.29z" style="fill:#fff;stroke:#263238;stroke-linecap:round;stroke-linejoin:round"/><path d="M389.16 105.06a2.33 2.33 0 0 1 3.18-1.07" style="fill:none;stroke:#263238;stroke-linecap:round;stroke-linejoin:round"/><ellipse cx="391.29" cy="109.32" rx=".93" ry="2.01" style="fill:#263238"/><path d="M389.82 121.64s5.23-.13 7.64-3.35" style="fill:none;stroke:#263238;stroke-linecap:round;stroke-linejoin:round"/><path d="M423.24 134.35s-23.06 14-23.92 15.09-1.51 8.19-1.51 8.19l28.87-19z" style="fill:#fff;stroke:#263238;stroke-linecap:round;stroke-linejoin:round"/><path d="M388 325.62s-1.88 13.63-1.17 17.38 23.48 73 23.72 75.38 2.35 13.16 2.35 13.16-4.7 8.22-5.64 11.51-5.17 6.81-6.81 8-7.05 3.29-7.75 4.23 1.66.75 3.18 1.08a53.49 53.49 0 0 0 7.15.09s6.58.24 8.46-.47 4.46-7.75 5.64-9.16a6.48 6.48 0 0 1 3.05-1.88l-2.11 12h3.28s2.35-9.63 3.29-12.92 2.12-5.16.71-8.45a49.12 49.12 0 0 0-4.23-7.28s-.94-26.31-.71-27.48-1.64-24.2-2.34-30.3-5.88-22.3-6.11-23.71 1.41-17.38 1.41-17.38z" style="fill:#b8b8b8;stroke:#263238;stroke-linecap:round;stroke-linejoin:round"/><path d="M405.32 329.09s2.67 19.8 4.19 28.12 7.62 63.3 7.23 68.28a60.42 60.42 0 0 1-.86 7.07s-6.69 14-8.22 15.63-4.15 5.05-5.71 5.35-7.44 1.27-6.09 2.8 15.72 1.68 18.83.82 7.12-7.51 8.41-8.32l1.28-.82 1 8.86 3.39-.09s2.66-8.17 2.52-13.4-3.42-10.88-3.42-10.88 3.46-17.86 5.49-29.93 5.72-21.05 3.13-30.39a112.53 112.53 0 0 1-3.57-16.63c0-.78 1.54-28 1.54-28s-22.26 5.01-29.14 1.53z" style="fill:#fff;stroke:#263238;stroke-linecap:round;stroke-linejoin:round"/><path d="M431.31 443.39a22.44 22.44 0 0 0-1.81-7.52c-.34.12-.69.24-1.07.39-4.05 1.61-10.2 9.53-15.26 13.76a13.67 13.67 0 0 1-10.36 3.29l-.13-.08a2.13 2.13 0 0 1-.73.31c-1.56.31-7.44 1.27-6.09 2.8s15.72 1.68 18.83.82 7.12-7.51 8.41-8.32l1.28-.82 1 8.86 3.39-.09s2.68-8.17 2.54-13.4zM383.06 249.79l2.09 21.21-5.75 62.19s20.9 8.81 38.14 7.81 26.64-6 26.64-6-2.35-45.74-2.09-48.35 3.4-12.8.79-24.29-5.23-15.94-5.23-15.94-36.3 9.38-54.59 3.37z" style="fill:#263238;stroke:#263238;stroke-linecap:round;stroke-linejoin:round"/><path d="M426 136.29s-28 18.32-31.46 22.63-11.42 25.21-11.42 28.87 4.74 41.58 4.74 41.58l-6.68 23.71s4.31 6.24 26.72 4.52 33.61-7.11 33.61-7.11-10.3-23.92-10.51-27.15 7.11-34 7.54-40.72-3.18-25-5.38-30.6a172.05 172.05 0 0 0-7.16-15.73z" style="fill:#92e3a9;stroke:#263238;stroke-linecap:round;stroke-linejoin:round"/><path d="M393.43 75.73s-8.53 3.28-8.31 6.35 4.81 11.6 8.53 15.1 14 11.59 14.88 18.82-1.09 14.22-3.94 14.44l-2.84.22s1.09 5.25 10.94 6.78 21 1.31 26.48-8.1 4.15-30.19-1.32-39.82-19-15.54-26.48-16.63-17.94 2.84-17.94 2.84z" style="fill:#263238;stroke:#263238;stroke-linecap:round;stroke-linejoin:round"/><path d="M391.72 170.64a55 55 0 0 1 4.37-5.47 38.34 38.34 0 0 1 9.26-6.68l2.37-3.88 2.16.86s6-3.88 10.56-7.33a31.61 31.61 0 0 0 6.46-6.24M387.25 177.23s1.2-1.89 2.85-4.29" style="fill:none;stroke:#263238;stroke-linecap:round;stroke-linejoin:round"/><path d="M412.46 160.74s-6.68 8.18-7.32 11-5.14 35.89-5.14 35.89-3.24 0-3.67.87-1.07 6.68-1.07 6.68-1.73 1.93-2.59 2.15l-32.75 5.17 1.51 12.93s20.9 0 26.72-.65 13.35 0 17-1.51c5.38-1.07 9.91-6 9.91-6l2.91-7s11.31-29 11.74-34.77a22.5 22.5 0 0 0-.44-7.57" style="fill:#92e3a9;stroke:#263238;stroke-linecap:round;stroke-linejoin:round"/><path d="M306.39 78.73s3.89 7.43 4.07 11.32-1.42 8.31-.89 11.49 3.89 4.42 3.18 6.54-3.89 2.83-3.89 2.83-1.59 7.25-2.82 11.49-5.31 4.77-7.25 4.77a32.14 32.14 0 0 1-6.37-1.41L290.3 138l-23.86-17.32 1.94-10.43 3.89-7.25s-5.12-11.49-.53-19.62 12.55-10.78 21.39-11.84 13.26 7.19 13.26 7.19z" style="fill:#fff;stroke:#263238;stroke-linecap:round;stroke-linejoin:round"/><path d="M275.81 104.54a3.47 3.47 0 0 0 2.3 2.66 6.76 6.76 0 0 0 4.24-.71s-1.77 7.25 1.41 11.31M297 108.61s1.41 5.3 6 5.3M301.62 89.69s2.29-1.94 5.48.89" style="fill:none;stroke:#263238;stroke-linecap:round;stroke-linejoin:round"/><ellipse cx="305.65" cy="98.36" rx="4.8" ry="6.71" style="fill:none;stroke:#263238;stroke-linecap:round;stroke-linejoin:round"/><path d="M306.57 100c0 1.22-.48 2.21-1.06 2.21s-1.06-1-1.06-2.21.47-2.21 1.06-2.21 1.06.94 1.06 2.21z" style="fill:#263238"/><path style="fill:none;stroke:#263238;stroke-linecap:round;stroke-linejoin:round" d="m300.56 99.15-18.74-.44"/><path d="M292.42 125.76a9.58 9.58 0 0 1-3-1.42c-1.06-.88-2.65-1.94-2.65-1.94l4.42 10.6z" style="fill:#263238;stroke:#263238;stroke-miterlimit:10"/><path d="M306.39 78.73S301.26 74 297 75.38s-5.48 3.53-3.54 7.77 1.24 8.31-.7 9.55-8.13 2.3-8.84 3.54a12.13 12.13 0 0 1-2.12 2.47s-1.59-4.77-4.25-3.36-3.35 6.9-1.76 9.19l-7.43 5.66s.36-8.48-2.47-15.2-4.23-21.57 1.11-26 12-3.53 14-5.3 1.77-5.84 8-6.37 8.84 4.07 11.49 5.13 3.71-2.65 8.13.35 8 7.25 6.54 11.67-8.77 4.25-8.77 4.25zM257.07 379s-3.57 24.66-3.57 29.87-.54 21.48-.54 21.48-1.92 5.75-1.92 7.12.27 4.66.27 4.66l1.1 14.53h13.15s5.21-20.83 4.66-38.1-10.14-49.43-10.14-49.43z" style="fill:#263238;stroke:#263238;stroke-linecap:round;stroke-linejoin:round"/><path d="M245.58 245.63s.67 32.05 2.7 39.48S255 301.64 255 304s3 30 5.06 37.46-5.74 30.37-3.71 43.53 7.76 46.24 7.76 46.24-1.35-.33-1.35 4.39v9.79l.34 11.47h14.51s-1-2.36 2.36-2.36 5.4 2 7.09 2.36 23.62 0 23.62 0 1.69-2.7 1-4.39-3-1.68-7.42-4.05-9.79-6.07-11.48-7.76-2.36-6.07-3.37-8.1-2.7-4.38-2.7-5.73 2-32.41 2-50.64 2.7-29.36 5.74-46.23 2.7-48.26 3-57.37 1-25 1-25zM293.41 142.18s5.74 6.24 4.75 10.48a28.59 28.59 0 0 0-.75 7.74s6 10 6.49 28.21 3.74 43.69 3.74 43.69l-5.74 12.48-7-13.73s2-33.2 2.25-41.44.5-15.23-.5-20.22a75.06 75.06 0 0 1-1.25-9.24l-4-14.48z" style="fill:#263238;stroke:#263238;stroke-linecap:round;stroke-linejoin:round"/><path style="fill:#92e3a9;stroke:#263238;stroke-linecap:round;stroke-linejoin:round" d="m264.77 116.8 30.28 21.82-3.63 13.79-29.38-28.52 2.73-7.09z"/><path d="M262 123.89s-17.81 25-20.3 35.27-.75 29.45-.5 32 1.25 55.67 2.5 57.92 8.48 3 8.48 3h46.44s3.49-1.75 3.24-7.24-1-11.48-1-11.48.25-53.92-.25-61.16-9.23-23-9.23-23z" style="fill:#92e3a9;stroke:#263238;stroke-linecap:round;stroke-linejoin:round"/><path d="M256.48 312.9a2 2 0 0 1-2-2v-8.11a4.5 4.5 0 0 1 4.52-4.49h6.31a2 2 0 0 1 0 4H259a.49.49 0 0 0-.49.49v8.11a2 2 0 0 1-2.03 2z" style="fill:#fff;stroke:#263238;stroke-linecap:round;stroke-linejoin:round"/><path d="M272.86 282.68s2.61 4 3.83 4.9 1.69 2.61 3.07 6a19.86 19.86 0 0 1 1.53 5.51 18 18 0 0 1 1.22 4c0 1.07-4.9 3.22-4.9 3.22s.15 2-.77 2.45a5.91 5.91 0 0 1-4 .46 23.5 23.5 0 0 1-3.68-2.91 17.78 17.78 0 0 1-4.44-.92c-2-.77-4.29-1.23-5.52-2.92s-1.68-2.91-1.22-6.89 2.75-13.18 2.75-13.18z" style="fill:#fff;stroke:#263238;stroke-linecap:round;stroke-linejoin:round"/><path d="M259.53 275.78s.31 7.36 1.07 7.82a17.49 17.49 0 0 0 8 1.53 22.4 22.4 0 0 0 6.44-1.84l-.16-7.2s-12.75 1.07-15.35-.31z" style="fill:#92e3a9;stroke:#263238;stroke-linecap:round;stroke-linejoin:round"/><path d="M256.46 146.05s-7.52 15.32-7.8 22.29 3.07 46.8 3.07 63.23 3.62 41.51 5 44 4.74 3.06 7.24 3.06 10.59 1.39 12.26-2.23 0-40.67 0-46.8 9.47-41.51 5.85-62.4" style="fill:#92e3a9;stroke:#263238;stroke-linecap:round;stroke-linejoin:round"/><path d="M284.66 298.3h-6.3a2 2 0 0 0-1.05.3v3.4a2 2 0 0 0 1.05.31h6.3a.49.49 0 0 1 .49.49v8.11a2 2 0 0 0 4 0v-8.11a4.49 4.49 0 0 0-4.49-4.5z" style="fill:#fff;stroke:#263238;stroke-linecap:round;stroke-linejoin:round"/><rect x="230.55" y="310.77" width="82.09" height="59.44" rx="4.82" style="fill:#92e3a9;stroke:#263238;stroke-linecap:round;stroke-linejoin:round"/><path style="fill:none;stroke:#263238;stroke-linecap:round;stroke-linejoin:round" d="m276.98 297.38.17 6.09"/></g></svg>