<svg xmlns="http://www.w3.org/2000/svg" data-name="Layer 1" width="883.027" height="802"><path d="M883.026 401a399.08 399.08 0 0 1-34.16 162.2q-1.095 2.475-2.22 4.92c-.37.82-.75 1.63-1.13 2.45-.38.81-.76 1.63-1.15 2.44-.5 1.05-1 2.09-1.51 3.13-.63 1.31-1.27 2.61-1.93 3.91q-.12.27-.27.54c-.55 1.1-1.1 2.2-1.67 3.3-.12.24-.24.48-.37.71-.65 1.28-1.32 2.56-2 3.83v.01q-1.08 2.025-2.17 4.04-2.7 4.98-5.55 9.87c-.57.97-1.13 1.94-1.71 2.9-.53.9-1.06 1.79-1.6 2.68-.37.62-.74 1.23-1.12 1.84q-.9 1.485-1.83 2.97c-.01.01-.01.01-.01.02-1.37 2.2-2.77 4.39-4.18 6.56h-.01c-.65 1.01-1.31 2.01-1.97 3.01v.01q-2.985 4.5-6.09 8.91v.01a.031.031 0 0 0-.02.01v.01l-.02.02q-2.46 3.525-5.02 6.99v.01c-1.09 1.48-2.19 2.96-3.3 4.42q-1.365 1.8-2.76 3.59c-.19.26-.39.51-.6.77v.01c-.25.33-.5.65-.77.98v.01q-5.925 7.575-12.21 14.85h-.01c-.22.27-.45.53-.68.79-.22.26-.46.52-.69.79h-.01c-.35.41-.71.82-1.07 1.23-.35.41-.72.82-1.09 1.23v.01a401.88 401.88 0 0 1-73.8 65.1q-5.43 3.735-11 7.27c-.92.59-1.84 1.17-2.77 1.75-.28.19-.56.36-.84.53-.49.31-.99.62-1.49.93-.49.3-.99.61-1.49.91-1.99 1.22-4 2.42-6.01 3.6-.5.3-1.01.59-1.52.89-.5.29-1.01.58-1.52.87a.092.092 0 0 1-.06.04l-.02.01-.02.02h-.01c-2.52 1.45-5.05 2.88-7.61 4.26q-6.87 3.75-13.88 7.23c-1.16.58-2.33 1.15-3.5 1.72-.97.47-1.95.94-2.92 1.4-.27.13-.53.26-.8.38-.81.38-1.62.76-2.43 1.13-.88.42-1.77.82-2.65 1.22-.99.45-1.97.89-2.96 1.33-3.72 1.66-7.48 3.26-11.25 4.8a392.113 392.113 0 0 1-41.23 14.26c-.65.19-1.31.38-1.97.56q-8.985 2.52-18.1 4.61-15.915 3.66-32.12 6.01c-.02 0-.05.01-.07.01-1.29.19-2.59.37-3.88.55-.11.02-.23.04-.35.05-.01.01-.02.01-.04 0 0 0 0 .01-.01 0-1.43.19-2.86.38-4.3.56-.1.02-.2.03-.3.04-1.34.16-2.69.32-4.04.47-1.45.16-2.9.31-4.36.46-1.11.11-2.22.22-3.33.32a1.529 1.529 0 0 1-.3.03c-1.01.09-2.02.18-3.03.26-.04 0-.09.01-.13.01-.88.08-1.76.14-2.64.21q-15.525 1.23-31.35 1.22-17.175 0-34-1.43c-.04 0-.08-.01-.12-.01q-3.585-.3-7.16-.66c-.63-.06-1.25-.13-1.88-.19-.12-.01-.24-.02-.36-.04l-.58-.06c-.1-.01-.21-.02-.31-.04-.83-.09-1.66-.18-2.5-.28-.93-.11-1.87-.22-2.8-.34-.93-.11-1.87-.23-2.8-.36-.2-.02-.41-.04-.61-.08-.68-.08-1.36-.17-2.03-.27-.33-.04-.65-.09-.97-.14-.65-.09-1.29-.18-1.94-.28-.02 0-.05-.01-.07-.01a395.166 395.166 0 0 1-60.29-13.59h-.01c-1.07-.33-2.14-.67-3.21-1.01q-.48-.135-.96-.3-4.17-1.335-8.29-2.76-5.685-1.95-11.29-4.08c-1.02-.39-2.03-.78-3.05-1.17-2.03-.8-4.05-1.6-6.06-2.42q-5.145-2.1-10.22-4.33h-.01v-.01q-4.74-2.085-9.41-4.3a1.006 1.006 0 0 1-.26-.12c-.01 0-.01-.01-.02-.01-.69-.32-1.38-.65-2.07-.98l-.02-.01a396.9 396.9 0 0 1-49.49-28.26q-7.605-5.085-14.95-10.51-5.925-4.365-11.68-8.95a401.648 401.648 0 0 1-52.84-50.49h-.01v-.01c-1.13-1.29-2.23-2.57-3.35-3.87v-.01c-.16-.18-.31-.36-.46-.54-.71-.83-1.4-1.65-2.09-2.49v-.01q-1.41-1.665-2.76-3.34c-.2-.24-.39-.47-.58-.71h-.01v-.01c-.74-.9-1.47-1.81-2.19-2.72-.37-.45-.73-.91-1.09-1.37h-.01v-.01q-3.27-4.125-6.41-8.33v-.01c-.58-.77-1.15-1.54-1.71-2.32h-.01q-4.02-5.43-7.83-10.99v-.01q-1.44-2.085-2.85-4.2-1.41-2.115-2.79-4.24h-.01q-1.424-2.19-2.82-4.4c-.05-.08-.1-.15-.14-.22q-1.38-2.175-2.72-4.38c-.72-1.17-1.43-2.33-2.12-3.5-.48-.79-.95-1.57-1.41-2.37-.17-.27-.32-.54-.47-.8-1.06-1.81-2.1-3.62-3.14-5.44-1.21-2.14-2.41-4.3-3.58-6.46-.48-.89-.96-1.79-1.43-2.69-.17-.29-.32-.58-.47-.88-.56-1.06-1.12-2.12-1.67-3.19-.55-1.06-1.1-2.13-1.64-3.2s-1.08-2.14-1.61-3.22c-.4-.81-.8-1.63-1.19-2.44a2.115 2.115 0 0 1-.11-.21c-.18-.38-.37-.75-.54-1.13a.663.663 0 0 1-.09-.19c-.41-.84-.81-1.67-1.2-2.51-.52-1.08-1.02-2.17-1.52-3.26-.36-.76-.7-1.53-1.05-2.3q-.75-1.62-1.47-3.27c-.51-1.13-1-2.27-1.49-3.41a32 32 0 0 1-.37-.86c-.23-.52-.45-1.04-.67-1.56-.59-1.38-1.17-2.78-1.74-4.17q-.975-2.355-1.9-4.72-.885-2.205-1.72-4.42l-.21-.54v-.01a399.23 399.23 0 0 1-19.64-70.46v-.01a399.879 399.879 0 0 1-5.32-41.48c-.06-.76-.11-1.52-.16-2.28q-.99-14.115-.97-28.34 0-6.315.2-12.57a399.144 399.144 0 0 1 88.48-238.96q3.616-4.485 7.36-8.86C250.607 54.55 359.947 0 482.026 0c142.73 0 268.05 74.57 339.1 186.88q5.55 8.73 10.62 17.78A399.063 399.063 0 0 1 883.026 401z" fill="#f2f2f2"/><path d="M676.206 715.75q-2.16 5.97-4.31 11.94c-.27.76-.55 1.51-.82 2.27q-5.49 15.21-10.99 30.43c-1.16.58-2.33 1.15-3.5 1.72-.97.47-1.95.94-2.92 1.4-.27.13-.53.26-.8.38-.81.38-1.62.76-2.43 1.13-.88.42-1.77.82-2.65 1.22-.99.45-1.97.89-2.96 1.33a13.282 13.282 0 0 1-.87-4.19 24.68 24.68 0 0 1 .79-6.68c.87-3.6 2.25-7.13 3.16-10.74.05-.17.09-.35.13-.52a39.353 39.353 0 0 0-2.66-25.69c-2.26-4.78-5.5-9.13-6.91-14.23a20.538 20.538 0 0 1 1.53-14.28 22.896 22.896 0 0 1 3.07-4.78c.29-.37.6-.72.92-1.07a20.24 20.24 0 0 1 11.14-6.25c8.21-1.46 16.79 2.91 21.38 9.77a19.6 19.6 0 0 1 3.33 9.27c.5 6.01-1.58 11.9-3.63 17.57z" fill="#e4e4e4"/><path d="M653.536 756.37c-1.88-3.47-5.03-6.51-5.63-10.41-1.95-12.52-6.65-21.5-14.44-26.59-2.26-1.47-2.62-4.72-4.01-7.06-.62-1.05-1.25-2.1-1.9-3.13q-1.575-2.565-3.28-5.03a81.704 81.704 0 0 0-7.11-9.04c-1.07-1.19-2.2-2.34-3.37-3.43l-.01-.01c-.73-.7-1.47-1.37-2.24-2.02q-.45-.39-.93-.78l-.02-.02a48.008 48.008 0 0 0-4.24-3.28c-3.39-2.29-7.22-3.88-11.15-2.61a24.352 24.352 0 0 0-4.44 2.04c-.72.41-1.43.84-2.14 1.27-.48.29-.96.58-1.44.88-.39.23-.78.46-1.17.68q-4.53 2.61-9.1 5.12c-.44.25-.88.49-1.33.73h-.01c-.31.18-.63.35-.95.52-.61.34-1.23.68-1.84 1.01q-2.745 1.485-5.5 2.94c-.94.5-1.89.98-2.84 1.46-.44.22-.88.44-1.31.67h-.01c-.16.08-.31.16-.47.24-1.3.67-2.58 1.36-3.82 2.11a31.36 31.36 0 0 0-9.19 8.43c-.48.66-.94 1.34-1.36 2.04a29.058 29.058 0 0 0-1.5 2.8c-.31.65-.6 1.3-.86 1.96v.01a31.368 31.368 0 0 0-.98 19.8v.01c.12.45.25.89.4 1.33.24.74.51 1.48.81 2.2a24.214 24.214 0 0 0 1.12 2.35v.01a44.41 44.41 0 0 0 8.24 10.22l.1.1 1.21 1.18c.22.21.45.42.69.62 3.46 2.97 9.05 5.22 12.21 8.27 1.69 1.63 2.68 3.48 2.29 5.79-1.04 6.13-.81 10.1.25 12.65 2.88 6.96 11.92 3.42 18.11 4.79.66-.18 1.32-.37 1.97-.56a392.113 392.113 0 0 0 41.23-14.26c3.77-1.54 7.53-3.14 11.25-4.8.99-.44 1.97-.88 2.96-1.33.88-.4 1.77-.8 2.65-1.22.81-.37 1.62-.75 2.43-1.13.27-.12.53-.25.8-.38.97-.46 1.95-.93 2.92-1.4-.99-1.93-2.02-3.84-3.05-5.74z" fill="#e4e4e4"/><path d="M580.372 659.284c2.102-6.348-.789-10.536-8.226-12.758a2.05 2.05 0 0 0-3.329.893l-6.494 19.24c-6.792-1.737-11.774-.547-12.856 6.172 2.681-6.843.16-11.136-7.382-12.967a2.05 2.05 0 0 0-3.38.766l-4.271 17.33a44 44 0 1 0 45.938-18.676z" fill="#e4e4e4"/><path d="M576.238 714.12a3.759 3.759 0 0 1-5.084-1.533.536.536 0 0 1 .945-.507 2.682 2.682 0 0 0 4.727-2.537.536.536 0 0 1 .945-.507 3.759 3.759 0 0 1-1.533 5.084z" fill="#fff"/><ellipse cx="730.015" cy="753.777" rx="4.291" ry="1.65" transform="rotate(-28.219 553.3 1044.54)" fill="#fff"/><path d="M550.112 707.591a9.55 9.55 0 0 1 12.918-6.931 10.615 10.615 0 1 0-13.39 6.79q.234.076.472.141z" fill="#fff"/><circle cx="553.284" cy="700.086" r="3.652" fill="#3f3d56"/><path d="M575.388 694.45a9.55 9.55 0 0 1 12.918-6.931 10.615 10.615 0 1 0-13.39 6.79q.235.076.472.142z" fill="#fff"/><circle cx="579.9" cy="686.742" r="3.652" fill="#3f3d56"/><path fill="#fff" d="m585.757 699.193 12.468-12.704 1.258 1.235-12.467 12.704zM587.122 702.12l15.065-9.483.939 1.492-15.064 9.484zM541.53 716.912l17.48-3.366.333 1.732-17.48 3.365zM544.463 723.611l16.231-7.31.724 1.608-16.23 7.31z"/><path d="M45.953 445.089C11.763 414.318-8.94 365.384 3.783 321.18a211.932 211.932 0 0 0 119.345 83.238c18.668 4.866 39.938 8.334 51.295 23.928 7.067 9.703 8.708 22.525 7.035 34.411-1.673 11.887-6.349 23.112-10.982 34.186l.245 2.986c-45.151-8.786-90.578-24.07-124.768-54.841z" fill="#e6e6e6"/><path d="M4.738 321.32c8.69 36.657 29.146 70.776 57.851 95.261 6.206 5.294 12.962 10.124 20.54 13.247a44.74 44.74 0 0 0 23.387 2.745c7.388-.96 14.835-2.799 22.33-1.947 7.898.898 14.497 5.324 19.107 11.697 5.64 7.798 8.143 17.157 10.272 26.395 2.364 10.257 4.657 20.948 11.428 29.33.82 1.016-.803 2.23-1.622 1.215-11.782-14.584-10.17-34.772-18.703-50.888-3.981-7.52-10.253-13.886-18.892-15.465-7.554-1.382-15.234.508-22.707 1.545-7.847 1.09-15.439.826-22.967-1.833-7.7-2.72-14.66-7.295-20.974-12.407a175.743 175.743 0 0 1-36.46-41.082A184.357 184.357 0 0 1 2.724 321.55c-.3-1.266 1.717-1.489 2.015-.23z" fill="#fff"/><path d="M52.839 409.115a27.178 27.178 0 0 1-35.186.679c-1.007-.829.233-2.433 1.242-1.603a25.166 25.166 0 0 0 32.729-.7c.973-.867 2.183.76 1.215 1.624zM102.833 433.554a52.382 52.382 0 0 0-11.36-36.445c-.817-1.019.807-2.233 1.623-1.216a54.486 54.486 0 0 1 11.744 37.95c-.096 1.303-2.103 1.007-2.007-.289zM18.554 361.038a15.384 15.384 0 0 0 7.734-12.38c.08-1.304 2.086-1.008 2.007.288a17.239 17.239 0 0 1-8.525 13.715 1.048 1.048 0 0 1-1.42-.204 1.019 1.019 0 0 1 .204-1.419z" fill="#fff"/><path d="M146.57 258.993c-.027.816-.054 1.632-.067 2.458a202.595 202.595 0 0 0 1.767 32.816c.1.843.216 1.695.34 2.533a213.581 213.581 0 0 0 25.54 74.371 207.416 207.416 0 0 0 17.61 26.136c9.01 11.397 19.686 23.037 24.27 36.353a35.581 35.581 0 0 1 1.221 4.232l-42.905 61.507c-.168.091-.322.193-.49.284l-1.6 2.534c-.367-.402-.738-.827-1.104-1.229-.214-.232-.418-.478-.631-.71-.14-.16-.278-.32-.413-.456a2.856 2.856 0 0 1-.125-.15c-.135-.135-.246-.275-.366-.401q-3.122-3.555-6.205-7.165c-.014-.01-.014-.01-.018-.034-15.613-18.38-29.829-38.226-40.58-59.599-.323-.643-.66-1.295-.965-1.966a197.922 197.922 0 0 1-11.945-30.009 174.98 174.98 0 0 1-4.266-17.182 145.5 145.5 0 0 1-1.538-45.466c3.741-30.186 17.095-58.839 40.655-77.452.603-.476 1.197-.939 1.814-1.405z" fill="#e6e6e6"/><path d="M147.254 259.676c-15.132 34.5-19.34 74.059-11.163 110.891 1.768 7.963 4.254 15.887 8.425 22.943a44.74 44.74 0 0 0 17.02 16.273c6.478 3.681 13.53 6.697 19 11.889 5.767 5.472 8.371 12.98 8.215 20.844-.191 9.622-3.828 18.601-7.69 27.259-4.288 9.612-8.894 19.529-8.534 30.299.044 1.305-1.984 1.296-2.027-.007-.626-18.738 12.815-33.887 15.705-51.892 1.349-8.401.173-17.26-5.773-23.722-5.2-5.65-12.47-8.767-19.061-12.437-6.921-3.855-12.824-8.636-17.234-15.291-4.511-6.808-7.313-14.652-9.276-22.535a175.743 175.743 0 0 1-4.377-54.753 184.357 184.357 0 0 1 15.022-60.79c.523-1.192 2.267-.155 1.747 1.03z" fill="#fff"/><path d="M132.801 358.735a27.178 27.178 0 0 1-28.502-20.642c-.306-1.268 1.65-1.802 1.956-.532a25.166 25.166 0 0 0 26.553 19.147c1.3-.107 1.286 1.92-.007 2.027zM158.005 408.349a52.382 52.382 0 0 0 12.872-35.94c-.04-1.305 1.988-1.296 2.027.007a54.486 54.486 0 0 1-13.47 37.37c-.862.984-2.286-.46-1.43-1.437zM134.372 299.707a15.384 15.384 0 0 0 13.63-5.228c.848-.994 2.271.45 1.428 1.438a17.239 17.239 0 0 1-15.064 5.818 1.048 1.048 0 0 1-1.01-1.017 1.019 1.019 0 0 1 1.016-1.01z" fill="#fff"/><path d="M538.52 263.095c5.961-32.965-3.944-70.37-30.984-90.145A154.345 154.345 0 0 1 475.95 274.1c-8.578 11.127-19.277 22.61-18.86 36.654.259 8.738 5.033 16.852 11.297 22.95 6.265 6.097 13.963 10.474 21.57 14.783l1.19 1.829c22.077-25.196 41.413-54.257 47.374-87.222z" fill="#e6e6e6"/><path d="M507.048 173.456a131.923 131.923 0 0 1 9.18 80.647 56.811 56.811 0 0 1-5.918 16.787 32.584 32.584 0 0 1-12.239 12.011c-4.683 2.743-9.79 5.005-13.724 8.838a19.951 19.951 0 0 0-5.784 15.257c.23 7.005 2.964 13.51 5.858 19.777 3.214 6.96 6.662 14.137 6.502 21.984-.02.95 1.457.925 1.476-.024.278-13.652-9.654-24.556-11.929-37.64-1.062-6.105-.29-12.567 3.98-17.33 3.732-4.164 8.997-6.502 13.762-9.237a34.769 34.769 0 0 0 12.405-11.299 52.52 52.52 0 0 0 6.541-16.498 127.99 127.99 0 0 0 2.668-39.913 134.263 134.263 0 0 0-11.515-44.126c-.392-.863-1.652-.091-1.263.766z" fill="#fff"/><path d="M518.512 245.455a19.793 19.793 0 0 0 20.56-15.302c.21-.926-1.22-1.296-1.43-.369a18.328 18.328 0 0 1-19.155 14.195c-.947-.066-.918 1.41.025 1.476zM500.628 281.823a38.149 38.149 0 0 1-9.714-26.049c.016-.95-1.46-.925-1.476.024a39.68 39.68 0 0 0 10.164 27.086c.636.708 1.66-.357 1.026-1.06zM516.808 202.485a11.204 11.204 0 0 1-9.974-3.678c-.628-.715-1.65.35-1.027 1.06a12.554 12.554 0 0 0 11.025 4.094.763.763 0 0 0 .726-.75.742.742 0 0 0-.75-.726z" fill="#fff"/><path d="M397.593 200.83c.38.458.759.916 1.135 1.386a147.545 147.545 0 0 1 13.619 19.681 65.1 65.1 0 0 1 .933 1.61 155.546 155.546 0 0 1 18.466 54.209 151.059 151.059 0 0 1 1.519 22.9c-.105 10.58-1.06 22.044 2.24 31.755a25.914 25.914 0 0 0 1.184 2.98l52.135 16.277c.137-.023.271-.033.409-.056l2.051.745c.032-.394.056-.805.088-1.2.019-.228.026-.461.046-.69.009-.154.017-.308.034-.446.003-.051.006-.103.006-.142.017-.138.018-.268.031-.395q.212-3.439.377-6.892c.003-.012.003-.012-.004-.028.79-17.546.123-35.311-3.22-52.411-.1-.515-.196-1.041-.321-1.563a144.137 144.137 0 0 0-6.506-22.604 127.44 127.44 0 0 0-5.208-11.795 105.964 105.964 0 0 0-19.393-26.862c-15.616-15.71-36.084-26.251-57.95-26.46a79.134 79.134 0 0 0-1.67.001z" fill="#e6e6e6"/><path d="M397.504 201.528a131.924 131.924 0 0 1 55.885 58.865 56.811 56.811 0 0 1 5.382 16.967 32.583 32.583 0 0 1-2.541 16.959c-2.088 5.009-4.804 9.89-5.637 15.32a19.95 19.95 0 0 0 4.567 15.664c4.401 5.454 10.5 9.002 16.585 12.264 6.756 3.622 13.83 7.277 18.427 13.638.557.77 1.72-.139 1.164-.908-7.997-11.068-22.492-13.794-32.186-22.871-4.524-4.236-7.798-9.86-7.257-16.233.474-5.572 3.27-10.608 5.427-15.662a34.77 34.77 0 0 0 3.103-16.49 52.52 52.52 0 0 0-4.71-17.11 127.99 127.99 0 0 0-21.9-33.476 134.263 134.263 0 0 0-35.762-28.298c-.833-.453-1.374.921-.547 1.371z" fill="#fff"/><path d="M450.005 252.114a19.793 19.793 0 0 0 7.204-24.597c-.39-.866-1.755-.3-1.364.567a18.328 18.328 0 0 1-6.748 22.866c-.796.518.117 1.679.908 1.164zM457.623 291.919a38.149 38.149 0 0 1-23.44-14.95c-.56-.77-1.723.14-1.164.907a39.68 39.68 0 0 0 24.423 15.508c.934.182 1.11-1.285.18-1.465zM422.774 218.83a11.204 11.204 0 0 1-10.179 3.069c-.931-.194-1.106 1.273-.18 1.465a12.555 12.555 0 0 0 11.267-3.37.763.763 0 0 0 .128-1.035.742.742 0 0 0-1.036-.128z" fill="#fff"/><path d="M131.275 378.018a27.215 27.215 0 0 1 27.214 27.214 27.22 27.22 0 0 1-22.003 26.71v44.512h-17.371v-98.436z" fill="#3f3d56"/><path d="M797.889 638.756v9.32q-5.925 7.575-12.21 14.85c-.45.53-.91 1.05-1.38 1.58-.71.83-1.44 1.65-2.17 2.47v-28.22z" fill="#cacaca"/><path d="M751.649 619.316a13.155 13.155 0 0 0-13.14 13.14v18.91a13.155 13.155 0 0 0 13.14 13.14h32.65c.47-.53.93-1.05 1.38-1.58q6.285-7.275 12.21-14.85c.26-.33.52-.66.77-.99a382.335 382.335 0 0 0 11.7-15.81c.01-.01.02-.01.02-.02q4.14-5.88 8.07-11.94z" fill="#3f3d56"/><path d="M835.719 457.456a18.999 18.999 0 0 0-6.24-1.04h-5.37a19.656 19.656 0 0 0-5.77.87 19.438 19.438 0 0 0-13.61 18.52v157.75c0 .59.03 1.17.08 1.74a18.424 18.424 0 0 0 .51 3c1.7-2.32 3.39-4.66 5.04-7.02.01-.01.02-.01.02-.02q4.14-5.88 8.07-11.94c1.41-2.17 2.81-4.36 4.18-6.56a398.425 398.425 0 0 0 26.24-49.56v-87.39a19.407 19.407 0 0 0-13.15-18.35z" fill="#3f3d56"/><path d="M173.859 638.756v18.83q-6.75-8.07-13.05-16.5c-.58-.77-1.15-1.55-1.72-2.33z" fill="#cacaca"/><path d="M204.339 619.316h-58.73q2.775 4.275 5.65 8.45 3.81 5.565 7.83 10.99c.57.78 1.14 1.56 1.72 2.33q6.315 8.43 13.05 16.5c.84 1.02 1.69 2.03 2.55 3.04q1.65 1.95 3.35 3.88h24.58a13.147 13.147 0 0 0 13.13-13.14v-18.91a13.147 13.147 0 0 0-13.13-13.14z" fill="#3f3d56"/><path d="M140.829 458.606a19.509 19.509 0 0 0-8.96-2.19h-5.36a19.18 19.18 0 0 0-7.39 1.47 19.411 19.411 0 0 0-12 17.92v67.77a398.875 398.875 0 0 0 38.49 75.74q2.775 4.275 5.65 8.45v-151.96a19.421 19.421 0 0 0-10.43-17.2z" fill="#3f3d56"/><path fill="#9e616a" d="m359.293 751.489 17.616-4.042-7.206-69.872-26 5.966 15.59 67.948z"/><path d="M375.319 690.866a20.481 20.481 0 0 1-.73-3.77 23.047 23.047 0 0 0-.88-4.45 23.356 23.356 0 0 0-1.85-3.8c-.35-.64-.72-1.28-1.05-1.93a15.988 15.988 0 0 1-.86-2.01c-10.31-30.45-24.7-71.83-34.68-96.05-5.87-14.25-41.97-18.99-76.03-20.2-4.15-.15-8.27-.25-12.3-.3-1.39-.02-2.77-.04-4.14-.05-3.5-.02-6.91-.02-10.19.02-.43 0-.86 0-1.29.01q-3.585.03-6.95.1c-15.42.3-26.75 1-28.77 1.13l-17.99-11.31-3.51-2.21-.37 2.21-2.83 16.86-4.83 28.77 12.11 3.4 7.86 2.2 46.57 13.06 9.9 2.78.06.02 16.67-.03 45.58-.08 2.2 5.83a10.28 10.28 0 0 0 4.21 14.84l1.71.81 20.83 55.12a24.938 24.938 0 0 0 4.47 13.93c.35.51.73 1.01 1.13 1.5l.46.55 8.01 15.67 4.77-1.1 20.3-4.65.1-.2c.01-.03.27-.58.65-1.54v-.03c1.59-3.97 5.11-14.82 1.66-25.1zM424.809 756.136a26.11 26.11 0 0 0-31.39-19.68l-14.07-6.35-3.94 2.77-16.34 11.46-1.35.31-4.38 1 6.05 26.37 65.62-15.05z" fill="#2f2e41"/><path d="m337.769 715.476-5.95 48.24-.2 1.58-.88 7.19c-3.43-1.4-6.85-2.85-10.23-4.34q-4.74-2.085-9.41-4.3v-48.36z" fill="#9e616a"/><circle cx="208.655" cy="347.771" r="36.073" fill="#9e616a"/><path d="M341.599 733.886c-1-1.37-2.04-2.8-2.1-4.17-.23-4.83-.47-9.61-.72-14.29-.18-3.27-.36-6.5-.54-9.66-.02-.4-.05-.8-.07-1.19-.31-5.23 1.24-10.75 2.73-16.1.49-1.75.98-3.52 1.42-5.29a38.43 38.43 0 0 0 1.37-12.13c-2.56-32.39-14-62.85-19.13-67.98-7.8-7.8-43.07-25.82-65.32-36.78-3.95-1.95-7.49-3.67-10.39-5.07-2.57-1.25-4.64-2.24-6.05-2.92-1.08-.51-1.78-.84-2.02-.96l-.12-.06-8.05.9-1.29.15-7.1.8-46.19 5.18-7.13.8-10.09 1.14-9.11 1.02-.34.03-.06.34c0 .01-.02.08-.04.21a95.32 95.32 0 0 0 0 29.84c1.18 6.71 3.41 13.53 7.37 19.27.54.78 1.1 1.53 1.7 2.25a.351.351 0 0 0 .08.1c.13.16.26.32.4.48v.01a32.92 32.92 0 0 0 17.37 10.57c1 .27 2.02.49 3.07.67 11.19 1.98 23.83 3.8 36.22 5.4 5.13.66 10.22 1.28 15.14 1.86 9.85 1.16 19.05 2.14 26.63 2.92 10.62 1.08 18.08 1.75 19.74 1.89l18.55 86.54a12.683 12.683 0 0 0 2.14 15.61l1.52 1.47 1.76 8.24 5.8 7.76.73.98h25.59l.14-.17c.09-.12 9.09-11.68 8.48-25.45-.06-1.42-1.05-2.77-2.09-4.21z" fill="#2f2e41"/><path d="M340.9 443.851a13.742 13.742 0 0 0-17.31 12.016l-29.972 9.368 1.25 19.603 42.142-13.824a13.816 13.816 0 0 0 3.89-27.163z" fill="#9e616a"/><path d="m321.344 476.29-22.4 8.478-.574 1.111a11.302 11.302 0 0 1-15.223 4.868l-50.35 19.057s-22.486-22.502-38.495-42.583l5.456-33.56a64.289 64.289 0 0 1 7.924-22.087c32.83 7.2 51.677 53.095 51.677 53.095l59.17-11.29z" fill="#0bf334"/><path d="M203.529 381.916c-9.031 2.439-18.988-.804-26.035-6.955s-11.457-14.867-13.997-23.87c-1.86-6.594-2.742-13.913.193-20.103s10.837-10.366 16.933-7.24c-3.76-4.38-1.881-11.627 2.51-15.375s10.423-4.823 16.167-5.41c8.336-.853 16.947-.948 24.879 1.752s15.14 8.605 17.622 16.609a12.64 12.64 0 0 0 15.077-3.404 11.452 11.452 0 0 1-6.31 12.417l12.154-3.94c2.09 4.424-1.573 9.9-6.256 11.316s-9.74-.132-14.184-2.179-8.752-4.634-13.58-5.433-10.498.753-12.73 5.107c-1.17 2.28-1.231 4.952-1.91 7.423s-2.4 5.033-4.954 5.235c-1.615.128-3.195-.732-4.805-.556a5.177 5.177 0 0 0-4.054 3.962 15.199 15.199 0 0 0-.014 5.98l3.087 23.598z" fill="#2f2e41"/><path d="m248.849 561.226-1.91-2.87-13.94-20.91-.28-.41 4.31-22.36 1.34-6.98 2.93-15.19-.85-34.77-.61-24.6-.09-3.86-3.09-9.42a33.929 33.929 0 0 0-18-20.11l-20.8-9.52a10.141 10.141 0 0 0-13.431 5.028q-.14.307-.259.622c-2.85.39-15.22 2.47-25.71 10.61a39.058 39.058 0 0 0-14.48 22.62c-.02.07-.03.14-.05.21-1.39 6.21-2.43 16.01-3.1 29.29q-.675 13.17-.85 30.86a448.623 448.623 0 0 0 3.31 58.82c.23 1.86.47 3.71.72 5.57.21 1.56 1.71 3.05 3.16 4.48 1.33 1.31 2.7 2.67 2.89 3.9.17 1.08-.52 2.21-1.34 3.39-.1.15-.21.3-.31.45-1.02 1.45-2.07 2.96-1.8 4.55.63 3.58 1 7.22 1.35 10.74a113.671 113.671 0 0 0 2.1 14.42c.35 1.46.75 2.93 1.2 4.4 1.05 3.45 2.32 6.89 3.56 10.25 1.07 2.92 2.18 5.92 3.12 8.88.18.55.35 1.09.51 1.63l.08.28.29.05h.02a11.059 11.059 0 0 1 1.4-1.96.406.406 0 0 1 .09-.1q.21-.255.48-.54c2.19-2.39 6.95-6.68 17.37-13.91 2.33-1.61 4.94-3.36 7.86-5.28 10.71-7.01 25.67-16.14 46.57-27.93q7.86-4.44 16.87-9.39z" fill="#0bf334"/><path d="M361.019 781.206a26.058 26.058 0 0 0-18.53-7.67l-10.87-8.24-1.43-1.09-9.68 3.94c3.38 1.49 6.8 2.94 10.23 4.34q16.095 6.57 32.87 11.74a26.325 26.325 0 0 0-2.59-3.02z" fill="#2f2e41"/><path fill="#ffb6b6" d="m602.45 750.808-13.614-6.511 18.701-56.905 20.093 9.61-25.18 53.806zM693.719 741.636q-5.94 3.705-12.03 7.2v.03l-.06.01-.02.01-1.54.38-2.21-5.84-5.1-13.47-13.9-36.7 21.61-5.33 1.22 4.95 9.14 37.07 2.62 10.6zM638.604 503.475a14.192 14.192 0 0 0 19.226 4.823 13.594 13.594 0 0 0 1.825-1.322l43.04 24.7-1.869-25.355-40.586-19.568a14.14 14.14 0 0 0-17.151-2.234 13.607 13.607 0 0 0-4.661 18.67q.086.144.176.286z"/><path d="m684.191 522.375 7.608 4.637 34.17 20.836a20.147 20.147 0 0 0 27.765-6.393l.011-.018a19.713 19.713 0 0 0 2.513-13.916l-15.187-75.873a21.053 21.053 0 0 0-27.636-15.977 20.045 20.045 0 0 0-12.648 24.351l15.88 53.846-24.341-11.349z" fill="#0bf334"/><path d="M824.299 597.186c-.01-.03-.03-.14-.06-.31l-.03-.11q-.105-.54-.24-1.2a269.775 269.775 0 0 0-7.85-29.97 92.057 92.057 0 0 0-7.47-17.34c-.1-.18-.21-.36-.32-.54l-.37-.6-3.11 1.14-.12.04-47.28 17.33-13.67 5.01-.43.16-2.33 9.5-32.69-4.23-26.64-3.45-7.65-.99a25.214 25.214 0 0 0-18.79 5.14 26.211 26.211 0 0 0-9.97 17.64c-.1.76-.16 1.53-.19 2.29l-2.31 86.17v.11l1.07 2.14 22.35 44.84h15.49l9.14-.01h7.43l-15.45-39.09.35-.53a17.189 17.189 0 0 0 1.77-15.23l1.74-5.04c3.61-10.41 1.9-15.41-.26-21.73a53.692 53.692 0 0 1-3.38-16.03l-.36-7.13c9.07 1.59 17.52 3.36 25.66 5.14q4.08.885 8.08 1.79c7.59 1.69 14.92 3.32 22.1 4.68 14.54 2.77 28.47 4.46 42.78 3.41.28-.02.56-.04.84-.07 3.48-.28 6.98-.73 10.52-1.36 1.99-.36 3.99-.77 6.01-1.25l1.69-.42a19.444 19.444 0 0 0 4.46-1.79 29.187 29.187 0 0 0 5.55-4.02c.01-.01.02-.01.02-.02q4.14-5.88 8.07-11.94c1.41-2.17 2.81-4.36 4.18-6.56 2-5.49 2.76-11.03 1.67-15.57z" fill="#2f2e41"/><path d="M824.629 580.996c-.15-.64-.34-1.29-.54-1.92a136.814 136.814 0 0 0-5.54-14.02c-2.36-5.2-5.19-10.77-8.56-16.8q-2.445-4.38-5.26-9.11-1.41-2.37-2.93-4.83a2.542 2.542 0 0 0-.13-.22l-.29-.48-46.78 6.26-17.42 2.33-1.04 8.68-.25 2.15c-.01 0-.01 0 0 .01l-.7 5.86v.01l-.93 7.74-.08-.01-25.85-3.35-26.64-3.45-14.31-1.85a25.214 25.214 0 0 0-18.79 5.14 26.211 26.211 0 0 0-9.97 17.64c-.09.7-.15 1.42-.18 2.13l-13.5 31.99a206.396 206.396 0 0 0-15.26 60.04l-9.9 31.65 1.41.13 20.98 1.95 5.54.52 12.2-17.81a94.04 94.04 0 0 0 3.94-6.26 95.074 95.074 0 0 0 5.39-10.84l26.39-62.8q3.06.525 6.06 1 13.875 2.25 26.64 3.67c27.67 3.09 51.63 3.33 72.96.71q8.985-1.095 17.37-2.88 3.075-.645 6.07-1.39c.47-.11.93-.22 1.39-.34a25.52 25.52 0 0 0 17.85-16.68 26.038 26.038 0 0 0 .66-14.57z" fill="#2f2e41"/><ellipse cx="725.154" cy="359.047" rx="32.358" ry="33.08" fill="#ffb6b6"/><path d="M801.989 535.426c-.05-.37-.11-.74-.19-1.11-.77-4.06-2.77-8.04-4.7-11.9-1.84-3.68-3.59-7.16-4.31-10.62-.71-3.41-.29-6.83.12-10.13.44-3.58.9-7.28-.13-10.87a266.743 266.743 0 0 0-21.4-52.86 40.188 40.188 0 0 0-33.35-28.06 9.472 9.472 0 0 0 1.07-5.46 9.26 9.26 0 0 0-3.41-6.27 8.927 8.927 0 0 0-6.59-1.92l-15.04 1.69a9.22 9.22 0 0 0-8.01 10.21 9.96 9.96 0 0 0 .5 2.18c-13.96 17.78-21.13 33.98-21.79 49.3v.01a52.232 52.232 0 0 0 .03 5.31 52.907 52.907 0 0 0 3.68 16.67 71.099 71.099 0 0 0 9.96 17.13q1.26 1.59 2.61 3.12 1.26 1.5 2.82 3.15l2.63 4.12 2.45 3.85 13.1 30.23 6.67-.22.93 6.65.22 1.55 4.32 15.47.32 1.16 5.91-2.81 35.26-16.74 26.36-12.52z" fill="#0bf334"/><path d="M847.351 530.436a70.782 70.782 0 0 0 12.502 20.128 74.376 74.376 0 0 0 2.853 3.196l5.119 8.032c18.869-14.143 34.157-69.832 34.157-69.832l-21.29-4.142z" transform="translate(-158.487 -49)" opacity=".2" style="isolation:isolate"/><path d="M675.976 395.217a14.225 14.225 0 0 1-4.804 19.25 13.647 13.647 0 0 1-2.025.994l1.507 49.603-21.481-13.522 1.862-45.03a14.185 14.185 0 0 1 6.11-16.205 13.575 13.575 0 0 1 18.642 4.589q.097.16.189.321z" fill="#ffb6b6"/><path d="m672.542 446.34-23.623 3.36 1.016 48.918a20.468 20.468 0 0 0 10.006 17.249 19.611 19.611 0 0 0 23.426-2.66l55.77-53.643a21.145 21.145 0 0 0 1.558-29.036 20.054 20.054 0 0 0-28.26-2.377q-.239.201-.47.41a20.573 20.573 0 0 0-1.571 1.564l-36.826 42.364z" fill="#0bf334"/><path d="m694.319 740.386-.87.16-11.76 2.17-3.83.71-6.03 1.11 2.14 8.63c2.57-1.39 5.11-2.82 7.64-4.28l.02-.01.06-.01v-.03q6.09-3.48 12.03-7.2c.28-.17.56-.34.84-.53zM606.799 741.516l-14.73-7.06-2.31-1.11-3.69 9.06-25.76 5.67a6.112 6.112 0 0 0-1 11.63l25.17 10.27 7.99-7.19-1.96 9.65 9.48 3.87 10.39-33.07zM811.742 344.7c-5.5-6.413-8.116-14.923-12.513-22.207-4.397-7.284-12.049-13.803-20.132-12.108-5.572 1.169-9.879 6.086-12.06 11.568-2.179 5.482-2.588 11.528-2.97 17.45.135-12.17-7.883-23.97-18.93-27.854-11.045-3.883-24.264.449-31.204 10.227a16.866 16.866 0 0 0-22.402-.47c-6.208 5.548-7.582 16.11-3.016 23.187s14.453 9.714 21.71 5.789l2.564 2.36c-1.444 5.05 1.357 11.015 6.064 12.916 3.816 1.542 9.205 1.285 10.633 5.29.998 2.8-.867 5.787-2.852 7.937-1.984 2.151-4.34 4.372-4.578 7.348-.36 4.49 4.28 7.636 8.498 8.583 10.172 2.285 21.458-2.425 27.32-11.402q.17-.26.369-.52a39.279 39.279 0 0 0 7.9-30.033c-.33-2.075.003-3.618 1.433-4.11 6.183-2.123 23.505 2.334 28.747 6.363 5.242 4.028 9.44 9.36 14.49 13.647 5.05 4.289 11.484 7.597 17.896 6.429 5.135-.935 9.503-4.663 12.442-9.16 2.938-4.497 4.629-9.738 6.144-14.947-11.355 6.56-26.896 3.813-35.553-6.282z" fill="#2f2e41"/><path d="M708.325 541.882v190.2q-5.43 3.735-11 7.27v-184.86c0-5.36-1.8-9.71-4.01-9.72h-166.49c-2.22.01-4.01 4.36-4.02 9.72v245.46c-2.22.22-4.44.43-6.66.61-.92.08-1.85.15-2.77.22-.53-.98-1.05-1.97-1.57-2.97v-255.93c0-1.48.06-2.97.16-4.44.9-12.48 5.37-21.6 10.6-21.62h175a4.682 4.682 0 0 1 1.84.39c4.38 1.86 7.84 10.02 8.71 20.57.14 1.68.22 3.39.21 5.1zM441.195 541.882v257.31c-.15.24-.3.47-.45.71q-5.64-.57-11.23-1.31v-244.1c0-5.36-1.91-9.71-4.26-9.72h-176.71c-2.35.01-4.26 4.36-4.26 9.72v169.46q-5.925-4.365-11.68-8.95v-173.12c0-1.48.06-2.97.17-4.44.95-12.48 5.7-21.6 11.26-21.62h185.73a5.14 5.14 0 0 1 1.95.39c4.65 1.86 8.33 10.02 9.26 20.57.15 1.68.22 3.39.22 5.1z" fill="#e4e4e4"/><path fill="#3f3d56" d="m381.974 456.372 11.581 50.955 7.4 8.106h5.339l-22.003-92.646-1.089 15.739v.011l-1.228 17.835z"/><path d="M420.539 518.036a.981.981 0 0 0-.13-.22 2.012 2.012 0 0 0-.45-.64l-1.35-1.35-7.1-7.11a2.806 2.806 0 0 0-1.95-.8h-.03l-5.01.03-4.31.03-6.02.04-41 .26-26.95.17a2.785 2.785 0 0 0-2.75 2.77 2.898 2.898 0 0 0 .26 1.17l.52 1.11 1.09 2.33 1.42 3.05.7 1.5a2.775 2.775 0 0 0 2.51 1.6h88.01a2.824 2.824 0 0 0 2.54-3.94z" fill="#3f3d56"/><path d="m485.267 567.874.695 1.505a2.799 2.799 0 0 0 2.513 1.599h88.013a2.819 2.819 0 0 0 2.537-3.938.84.84 0 0 0-.128-.22z" transform="translate(-158.487 -49)" opacity=".17" style="isolation:isolate"/><path opacity=".17" style="isolation:isolate" d="M383.202 438.526v.011l18.842 76.896h4.25l-22.003-92.646-1.089 15.739z"/><path d="m412.759 223.336-2.76-.37a2.892 2.892 0 0 0-2.13.57l-1.65 1.27-18.37 22.98a2.892 2.892 0 0 0-1.1 1.92l-1.03 7.82-25.64 195.09a2.925 2.925 0 0 0 .51 2.05l12.08 33.3.36.52.78 1.11a2.938 2.938 0 0 0 1.66 1.14l1.75.44a2.896 2.896 0 0 0 2.34-.42 2.852 2.852 0 0 0 1.24-2.02l3.13-23.78v-.01l2-15.26 1.69-12.87v-.01l27.64-210.23a2.887 2.887 0 0 0-2.486-3.238z" fill="#3f3d56"/><path d="m564.701 273.807-33.547 263.164.364.515.777 1.107a2.93 2.93 0 0 0 1.66 1.14l1.753.441a2.906 2.906 0 0 0 3.58-2.438l34.455-262.157a2.896 2.896 0 0 0-2.494-3.247l-2.767-.364a2.855 2.855 0 0 0-2.13.573z" transform="translate(-158.487 -49)" opacity=".17" style="isolation:isolate"/><path fill="#0bf334" d="m405.226 232.333-17.803 25.411-21.16 161.001 11.472 22.759 27.491-209.171z"/><path fill="#3f3d56" d="m578.645 456.372-11.581 50.955-7.4 8.106h-5.339l22.004-92.646 1.088 15.739v.011l1.228 17.835z"/><path d="m634.379 508.446-67.94-.43-6.03-.04-4.3-.03-5.01-.03h-.04a2.765 2.765 0 0 0-1.94.8l-8.46 8.46a2.184 2.184 0 0 0-.45.64.981.981 0 0 0-.13.22 2.824 2.824 0 0 0 2.54 3.94h88.01a2.8 2.8 0 0 0 2.52-1.6l.69-1.5 1.42-3.05 1.61-3.44a2.742 2.742 0 0 0 .26-1.17 2.785 2.785 0 0 0-2.75-2.77z" fill="#3f3d56"/><path d="m792.325 567.874-.694 1.505a2.799 2.799 0 0 1-2.514 1.599h-88.013a2.819 2.819 0 0 1-2.536-3.938.84.84 0 0 1 .127-.22z" transform="translate(-158.487 -49)" opacity=".17" style="isolation:isolate"/><path opacity=".17" style="isolation:isolate" d="M577.417 438.526v.011l-18.842 76.896h-4.25l22.004-92.646 1.088 15.739z"/><path d="m600.539 452.616-26.67-202.91a2.892 2.892 0 0 0-1.1-1.92l-18.36-22.98-1.65-1.27a2.929 2.929 0 0 0-2.14-.57l-2.76.37a2.894 2.894 0 0 0-2.5 3.24l27.64 210.24v.01l1.69 12.86 2.01 15.27v.02l3.12 23.76a2.832 2.832 0 0 0 1.25 2.02 2.873 2.873 0 0 0 2.33.42l1.75-.44a2.939 2.939 0 0 0 1.66-1.14l.78-1.11.36-.52 12.08-33.3a2.876 2.876 0 0 0 .51-2.05z" fill="#3f3d56"/><path d="m712.891 273.807 33.548 263.164-.365.515-.777 1.107a2.93 2.93 0 0 1-1.66 1.14l-1.753.441a2.906 2.906 0 0 1-3.58-2.438L703.85 275.579a2.896 2.896 0 0 1 2.493-3.247l2.767-.364a2.855 2.855 0 0 1 2.131.573z" transform="translate(-158.487 -49)" opacity=".17" style="isolation:isolate"/><path fill="#0bf334" d="m555.393 232.333 17.803 25.411 21.16 161.001-11.472 22.759-27.491-209.171z"/><path d="M224.499 556.936a8.208 8.208 0 0 1-.13 1.5c-.04.24-.09.47-.15.7a8.692 8.692 0 0 1-8.41 6.49h-37.63v89.75a8.648 8.648 0 0 1-1.77 5.25c-.86-1.01-1.71-2.02-2.55-3.04q-6.75-8.07-13.05-16.5v-75.46h-16.8a8.685 8.685 0 0 1-.72-17.34q.36-.03.72-.03h71.8a8.687 8.687 0 0 1 8.69 8.68zM824.129 556.936a8.694 8.694 0 0 1-5.58 8.12 8.508 8.508 0 0 1-2.43.54c-.22.02-.45.03-.67.03h-16.79v81.46c-.25.33-.51.66-.77.99q-5.925 7.575-12.21 14.85a8.622 8.622 0 0 1-4.39-7.55v-89.75h-37.64a8.503 8.503 0 0 1-3.24-.63 8.66 8.66 0 0 1-5.22-6.08v-.01a8.585 8.585 0 0 1 .7-5.86c-.01-.01-.01-.01 0-.01a8.495 8.495 0 0 1 1.54-2.16 8.692 8.692 0 0 1 6.22-2.62h71.8a8.678 8.678 0 0 1 8.68 8.677zM823.554 389.598a27.215 27.215 0 0 0-27.214 27.215 27.22 27.22 0 0 0 22.003 26.71v44.511h17.371v-98.436z" fill="#3f3d56"/><path d="M348.405 488.973a13.742 13.742 0 0 0-19.845 7.083l-31.379 1.224-4.227 14.616 44.609 2.284a13.816 13.816 0 0 0 10.842-25.207z" fill="#9e616a"/><path d="m322.63 515.756-32.232-.402-4.08-.055-65.578-.826s-17.808-16.99-33.314-34.481l2.173-15.72a64.228 64.228 0 0 1 21.535-39.767c22.21 14.84 35.089 44.213 35.089 44.213l21.595 9.664a94.547 94.547 0 0 1 43.17 12.643l7.101 4.114z" fill="#0bf334"/><path d="M423.899 797.816h116.26q-11.895 1.74-24.01 2.75h-68.24q-12.12-1.005-24.01-2.75z" fill="#ccc"/><path d="M447.273 739.287c2.25-20.307 14.548-40.45 33.794-47.306a94.135 94.135 0 0 0 .869 64.624c3.078 7.997 7.335 16.57 4.649 24.707-1.672 5.063-5.874 8.976-10.596 11.45-4.723 2.475-9.985 3.694-15.181 4.89l-1.014.862c-8.522-18.569-14.77-38.92-12.52-59.227z" fill="#ccc"/><path d="M481.264 692.362a80.46 80.46 0 0 0-19.395 45.546 34.65 34.65 0 0 0 .54 10.843 19.873 19.873 0 0 0 5.065 9.15c2.26 2.418 4.852 4.629 6.485 7.554a12.168 12.168 0 0 1 .727 9.924c-1.353 4.055-4.082 7.382-6.865 10.543-3.089 3.509-6.353 7.105-7.625 11.72-.154.558-1.012.287-.858-.272 2.212-8.028 9.914-12.675 13.52-19.927 1.683-3.384 2.356-7.296.689-10.823-1.458-3.083-4.129-5.366-6.438-7.794a21.205 21.205 0 0 1-5.287-8.763 32.032 32.032 0 0 1-.954-10.782 78.062 78.062 0 0 1 5.384-23.796 81.887 81.887 0 0 1 14.407-23.79c.38-.437.982.233.605.667z" fill="#fff"/><path d="M462.038 732.456a12.072 12.072 0 0 1-9.357-12.522.45.45 0 0 1 .9.033 11.178 11.178 0 0 0 8.728 11.63c.566.126.292.984-.27.859zM466.166 756.826a23.267 23.267 0 0 0 10.21-13.538c.156-.558 1.015-.287.859.271a24.2 24.2 0 0 1-10.653 14.066c-.496.303-.909-.498-.416-.799zM470.51 707.633a6.833 6.833 0 0 0 6.47-.415c.49-.309.903.492.415.799a7.657 7.657 0 0 1-7.157.475.465.465 0 0 1-.294-.565.452.452 0 0 1 .565-.294z" fill="#fff"/><path d="M540.486 727.403c-.302.202-.603.404-.904.613a89.985 89.985 0 0 0-11.385 9.136c-.278.255-.556.517-.826.779a94.868 94.868 0 0 0-20.224 28.476 92.128 92.128 0 0 0-4.872 13.123c-1.779 6.203-3.215 13.07-6.833 18.173a15.81 15.81 0 0 1-1.21 1.536l-33.308.446c-.076-.037-.153-.067-.23-.104l-1.328.079c.05-.236.107-.48.157-.717.03-.137.065-.274.094-.411.021-.092.043-.183.057-.267.007-.03.014-.061.022-.084.014-.084.036-.16.05-.236q.474-2.047.979-4.095c0-.008 0-.008.007-.015a135.464 135.464 0 0 1 10.999-30.078c.148-.284.296-.574.46-.858a87.913 87.913 0 0 1 7.735-12.082 77.707 77.707 0 0 1 5.096-5.989 64.628 64.628 0 0 1 16.009-12.33c11.862-6.466 25.66-9.068 38.478-5.386.328.095.649.19.977.291z" fill="#ccc"/><path d="M540.416 727.827a80.46 80.46 0 0 0-42.907 24.69 34.648 34.648 0 0 0-6.098 8.981 19.873 19.873 0 0 0-1.465 10.356c.35 3.291 1.088 6.617.63 9.936a12.168 12.168 0 0 1-5.394 8.362c-3.522 2.423-7.704 3.436-11.828 4.284-4.58.942-9.351 1.848-13.144 4.767-.46.354-.982-.38-.523-.733 6.6-5.079 15.547-4.151 22.793-7.771 3.381-1.69 6.274-4.407 7.066-8.227.693-3.34-.066-6.77-.448-10.1a21.206 21.206 0 0 1 1.055-10.178 32.032 32.032 0 0 1 5.73-9.184 78.062 78.062 0 0 1 18.625-15.758 81.887 81.887 0 0 1 25.827-10.322c.566-.12.643.778.082.897z" fill="#fff"/><path d="M500.927 748.265a12.072 12.072 0 0 1 .067-15.631c.379-.439 1.078.129.7.568a11.178 11.178 0 0 0-.034 14.54c.375.442-.36.962-.733.523zM489.55 770.208a23.267 23.267 0 0 0 16.302-4.662c.461-.352.983.382.523.734a24.201 24.201 0 0 1-16.975 4.817c-.577-.057-.425-.945.15-.889zM522.635 733.546a6.833 6.833 0 0 0 5.416 3.564c.578.049.426.937-.149.888a7.657 7.657 0 0 1-6-3.93.465.465 0 0 1 .105-.628.453.453 0 0 1 .628.106z" fill="#fff"/><circle cx="557.762" cy="745.101" r="10.593" fill="#ccc"/><path d="M592.346 786.63c-.65.19-1.31.38-1.97.56q-8.985 2.52-18.1 4.61a10.59 10.59 0 1 1 20.07-5.17zM652.866 763.89c-.81.38-1.62.76-2.43 1.13-.88.42-1.77.82-2.65 1.22-.99.45-1.97.89-2.96 1.33-3.72 1.66-7.48 3.26-11.25 4.8-.05-.08-.1-.17-.15-.26a10.594 10.594 0 0 1 18.67-10.02 11.741 11.741 0 0 1 .77 1.8z" fill="#ccc"/><circle cx="595.124" cy="719.1" r="10.593" fill="#ccc"/><path d="M497.955 138.702c-62.31 16.39-131.35 26.36-201.55 29.09a252.37 252.37 0 0 1-30.88-.21c-22.59-1.9-41.94-9-63.49-12.88-10.36-1.86-21.9-3.22-32.33-5.23q3.615-4.485 7.36-8.86c22.49 1.9 45.33 8.12 68.09 11.01 38.69 4.92 82.04-.57 111.37-14.11 14.23-6.57 25.13-14.77 39.31-21.37a18.32 18.32 0 0 1 6.17-1.89c4.49-.41 8.43 1.4 11.64 3.02 23.79 12.01 58.33 21.77 90.39 16.4 2.39 1.87-2.15 4-6.08 5.03zM639.825 180.967c.293-.053.587-.095.88-.146a23.903 23.903 0 0 1-3.465-2.61zM831.745 204.662q-20.085 1.605-40.38 2.39a254.385 254.385 0 0 1-30.88-.21c-22.59-1.91-41.94-9-63.49-12.88-19.75-3.55-43.75-5.26-56.29-13.14 32.41-5.61 65.99 5.81 99.41 10.06a237.376 237.376 0 0 0 81.01-4q5.55 8.73 10.62 17.78z" fill="#fff"/><path d="M530.324 354.666c-31.37-107.668-49.832-218.682-49.832-330.827v-8.127h-10.423v8.127c0 112.145-18.464 223.159-49.832 330.828a57.306 57.306 0 0 0-2.281 16.042 15.634 15.634 0 0 0 15.634 15.634h20.845a20.845 20.845 0 1 0 41.69 0h16.222v44.928a8.959 8.959 0 1 0 2 .167v-45.095h2.624a15.634 15.634 0 0 0 15.634-15.634 57.307 57.307 0 0 0-2.281-16.043z" fill="#fff"/></svg>