<svg xmlns="http://www.w3.org/2000/svg" viewBox="0 0 500 500"><ellipse cx="250" cy="351.73" rx="234.84" ry="135.59" style="fill:#f5f5f5"/><path d="m349.18 280.74-198.36 114.5a10.74 10.74 0 0 1-10.73 0l-10.47-6a3.86 3.86 0 0 1 0-6.69L328 268a10.74 10.74 0 0 1 10.72 0l10.47 6.05a3.87 3.87 0 0 1-.01 6.69z" style="fill:#e0e0e0"/><ellipse cx="318.78" cy="384.56" rx="42.65" ry="24.62" style="fill:#e0e0e0"/><ellipse cx="401.36" cy="296.74" rx="33.39" ry="19.28" style="fill:#e0e0e0"/><ellipse cx="98.92" cy="417.13" rx="33.39" ry="19.28" style="fill:#e0e0e0"/><path d="M137.76 162.35 339 46.18c2.31-1.33 4.38-1.23 5.85 0l7 4.82-4.85 5.86v162.25c0 5.95-3.61 12.85-8.07 15.43l-199.2 115-.37 6.33-7.34-5c-1.46-1.1-2.36-3.27-2.36-6.24V177.77c.03-5.95 3.64-12.85 8.1-15.42z" style="fill:#92e3a9"/><path d="M137.76 162.35 339 46.18c2.31-1.33 4.38-1.23 5.85 0l7 4.82-4.85 5.86v162.25c0 5.95-3.61 12.85-8.07 15.43l-199.2 115-.37 6.33-7.34-5c-1.46-1.1-2.36-3.27-2.36-6.24V177.77c.03-5.95 3.64-12.85 8.1-15.42z" style="fill:#fff;opacity:.4"/><path d="M136.54 349.31V182.48a20.15 20.15 0 0 1 2.71-9.59l-7.19-4.12a20.08 20.08 0 0 0-2.37 9V344.6c0 3 .9 5.14 2.36 6.24l6.76 4.63c-1.4-1.12-2.27-3.25-2.27-6.16z" style="fill:#92e3a9"/><path d="M136.54 349.31V182.48a20.15 20.15 0 0 1 2.71-9.59l-7.19-4.12a20.08 20.08 0 0 0-2.37 9V344.6c0 3 .9 5.14 2.36 6.24l6.76 4.63c-1.4-1.12-2.27-3.25-2.27-6.16z" style="fill:#fff;opacity:.2"/><path d="m139.28 355.8.11.07z" style="fill:#92e3a9;opacity:.30000000000000004"/><path d="m144.61 355.42 201.2-116.17c4.46-2.57 8.07-9.48 8.07-15.42V57c0-5.94-3.61-8.67-8.07-6.1l-201.2 116.16c-4.46 2.58-8.07 9.48-8.07 15.42v166.83c0 5.95 3.61 8.69 8.07 6.11z" style="fill:#92e3a9"/><path d="m144.61 355.42 201.2-116.17c4.46-2.57 8.07-9.48 8.07-15.42V57c0-5.94-3.61-8.67-8.07-6.1l-201.2 116.16c-4.46 2.58-8.07 9.48-8.07 15.42v166.83c0 5.95 3.61 8.69 8.07 6.11z" style="fill:#92e3a9"/><path d="m144.61 355.42 201.2-116.17c4.46-2.57 8.07-9.48 8.07-15.42V57c0-5.94-3.61-8.67-8.07-6.1l-201.2 116.16c-4.46 2.58-8.07 9.48-8.07 15.42v166.83c0 5.95 3.61 8.69 8.07 6.11z" style="fill:#fff;opacity:.7000000000000001"/><path d="M144.61 167.06 345.81 50.9c4.46-2.57 8.07.16 8.07 6.1v8.16L136.54 190.64v-8.16c0-5.94 3.61-12.84 8.07-15.42z" style="fill:#92e3a9"/><path d="M144.61 167.06 345.81 50.9c4.46-2.57 8.07.16 8.07 6.1v8.16L136.54 190.64v-8.16c0-5.94 3.61-12.84 8.07-15.42z" style="fill:#fff;opacity:.5"/><path d="M349 50.72c2.47 0 4.08 2.47 4.08 6.28v166.83c0 5.68-3.45 12.3-7.68 14.74L144.22 354.73a5.63 5.63 0 0 1-2.81.87c-2.48 0-4.08-2.47-4.08-6.29V182.48c0-5.68 3.44-12.29 7.68-14.74l201.2-116.16a5.68 5.68 0 0 1 2.81-.86m0-.79a6.45 6.45 0 0 0-3.21 1l-201.2 116.13c-4.46 2.58-8.07 9.48-8.07 15.42v166.83c0 4.43 2 7.07 4.87 7.07a6.52 6.52 0 0 0 3.2-1l201.2-116.17c4.46-2.57 8.07-9.48 8.07-15.42V57c0-4.42-2-7.07-4.86-7.07z" style="fill:#92e3a9"/><path d="M154.65 310.51a2.1 2.1 0 0 1-1.05-3.92l60.4-34.87a2.1 2.1 0 1 1 2.1 3.63l-60.4 34.87a2 2 0 0 1-1.05.29zM154.65 323.67a2.09 2.09 0 0 1-1.05-3.91l86-49.68a2.1 2.1 0 1 1 2.1 3.64l-86 49.67a2.09 2.09 0 0 1-1.05.28zM250.19 281.68a2.09 2.09 0 0 1-1.05-3.91l59.51-34.36a2.1 2.1 0 1 1 2.1 3.63l-59.52 34.36a2.08 2.08 0 0 1-1.04.28zM154.65 336.84a2.1 2.1 0 0 1-1.05-3.92l76.77-44.32a2.1 2.1 0 0 1 2.1 3.64l-76.77 44.32a2.09 2.09 0 0 1-1.05.28zM154.65 201.19a2.1 2.1 0 0 1-1.05-3.92L214 162.4a2.1 2.1 0 1 1 2.1 3.63l-60.4 34.88a2.09 2.09 0 0 1-1.05.28zM154.65 214.36a2.1 2.1 0 0 1-1.05-3.92l86-49.67a2.1 2.1 0 1 1 2.1 3.63l-86 49.67a2 2 0 0 1-1.05.29zM250.19 172.37a2.1 2.1 0 0 1-1.05-3.92l59.51-34.36a2.1 2.1 0 1 1 2.1 3.63l-59.52 34.36a2 2 0 0 1-1.04.29zM154.65 227.52a2.09 2.09 0 0 1-1.05-3.91l76.77-44.32a2.1 2.1 0 0 1 2.1 3.63l-76.77 44.32a2.09 2.09 0 0 1-1.05.28z" style="fill:#fafafa"/><path d="M153.67 172.14a6.66 6.66 0 0 1-3 5.23c-1.67 1-3 .18-3-1.74a6.66 6.66 0 0 1 3-5.23c1.65-.97 3-.19 3 1.74zM164.32 166a6.66 6.66 0 0 1-3 5.23c-1.67 1-3 .18-3-1.74a6.66 6.66 0 0 1 3-5.23c1.68-.98 3-.2 3 1.74zM175 159.84a6.66 6.66 0 0 1-3 5.23c-1.67 1-3 .18-3-1.74a6.66 6.66 0 0 1 3-5.23c1.62-.97 3-.19 3 1.74z" style="fill:#fff"/><g><path style="fill:#92e3a9" d="m196.15 213.25-4.29-1.86v-44.47l4.29 1.86v44.47z"/><path style="opacity:.6000000000000001" d="m196.15 213.25-4.29-1.86v-44.47l4.29 1.86v44.47z"/><path style="fill:#92e3a9" d="M370.64 67.82 196.15 168.78l-4.29-1.86L366.34 65.97l4.3 1.85z"/><path style="opacity:.4" d="M370.64 67.82 196.15 168.78l-4.29-1.86L366.34 65.97l4.3 1.85z"/><path style="fill:#92e3a9" d="M370.64 112.29 196.15 213.25v-44.47L370.64 67.82v44.47z"/><path style="opacity:.30000000000000004" d="M370.64 112.29 196.15 213.25v-44.47L370.64 67.82v44.47z"/><text transform="matrix(.87 -.5 0 1 257.71 166.69)" style="font-size:31.263328552246094px;fill:#fff;font-family:Montserrat-Black,Montserrat;font-weight:800;letter-spacing:.20000565408805093em">/</text><path d="m416.83 181.68 3.46 4.13a56 56 0 0 0 2.44 11.19c2 6.45 1.66 9.18 1.66 9.18l7.34-.57-2.93-23a10.84 10.84 0 0 0-1.55-4.33l-1.78-2.87z" style="fill:#945959"/><path d="M420.85 298.17s-4.61 3.59-4.17 5.71 7.63 3.13 11.12-1c1.55-1.83 2.65-5.56 2.79-10.11.07-2.27 2.93-5.63 0-8s-4.1-2.93-4.83-2.63-4.91 16.03-4.91 16.03z" style="fill:#37474f"/><path d="m417.41 280.82 2.71 5.78s.88 8.35.73 11.57c0 0 4.18 2.56 5.42-2.29a32 32 0 0 0 .66-7 15.72 15.72 0 0 1-.57-5 4.1 4.1 0 0 0-.09-1.56l-1.24-5.1z" style="fill:#945959"/><path d="M379.84 290.36s-1.67 1.12-2.84 1.95-6.07 4.9.78 6.15a11.32 11.32 0 0 0 9.47-3.07c3.37-3.32 5.81-2.29 7-3.61s.32-8.69-1.35-8.35z" style="fill:#37474f"/><path d="m385.54 277.38.53 4.77a2.32 2.32 0 0 1-.19 1.19c-.49 1.05-1.91 3.34-6 7 0 0-.07 3.69 5.11 1.91a22.35 22.35 0 0 0 4-2.41 4.89 4.89 0 0 0 1.46-1.64 11.77 11.77 0 0 1 2.4-3.15l.54-7.69z" style="fill:#945959"/><path d="M381 196.62s-1.44 7.15-1.14 20.72c.19 9.12.38 15.94.47 19.44a47.37 47.37 0 0 0 .43 5.19l4.76 35.41a8.35 8.35 0 0 0 7.81 0s.68-7.81 1.46-11.91c.7-3.63 1.62-14.24-.22-19.8a10.82 10.82 0 0 1-.38-5L399.6 205z" style="fill:#455a64"/><path d="M384.7 204.82a12.46 12.46 0 0 0 7 7.15l3.95 19.26 4-26.19z" style="fill:#37474f"/><path d="M382.61 196.25s-1 8.69 6.25 12.08a18.48 18.48 0 0 0 4.54 1.67s5.93 35.36 7 38 17 32.8 17 32.8 6.3 1.32 7.62-3.59c0 0-1.39-6.44-3.15-13.47-1.48-5.92-3.22-12.62-6.27-15.9a6.44 6.44 0 0 1-1.79-4.54c.13-5.75.39-17.82.44-21.07.08-4.32 1.69-18.09-1.09-23.65l-8.58-7.84z" style="fill:#455a64"/><path d="m376.66 147.74-6.46-3.84s-4.11-5.19-7.44-9.81-4.73-7-4.73-7a10.82 10.82 0 0 0 1.76-5.34c0-2.78-.15-4.1.37-5.13s0-2.12-1.39-1.68-2.42 3.43-2 5.38l-7.76 4.5s1.29 3.45 3.07 5.06c0 0 7.11 17.13 9.89 19.91s7.64 6.55 7.64 6.55z" style="fill:#945959"/><path d="m389.93 155.62-13.27-7.88s-6.14.43-7 8.57l11.61 8.7z" style="fill:#92e3a9"/><path d="m389.93 155.62-13.27-7.88s-6.14.43-7 8.57l11.61 8.7z" style="opacity:.2"/><path d="m392.5 155.62 8.86.44 5.79.29 1 13.69s-1.53 7.91-2.7 10.69 6.51 14.21 7.76 17.87c0 0-4.91.66-7.4-5a14.54 14.54 0 0 1-13.81 8.95c-7.06 0-11-5.93-11-5.93l1.61-10a34 34 0 0 1-1.61-9.45s-4-1.47-3.09-7.39 12-14.13 12-14.13z" style="fill:#92e3a9"/><path d="M410.6 133.51s5.07-4.19 9.45.58c6.3 6.87-7.32 20.36 4.76 20.65 0 0-1.39 1.61-6.08 1.61s-8.71-4.85-7.91-13.77z" style="fill:#263238"/><path d="M409 133.29s1.62-1 2.24-.28 1.44 6.31-.41 9.57c-.88 1.54-2.63-.58-2.63-.58z" style="fill:#92e3a9"/><path d="M381.83 134.09s.07 5.79-3.66 4.18a3.94 3.94 0 0 0 3.89 2.47c2.05 0 3.23-2 3.23-3.57z" style="fill:#263238"/><circle cx="395.65" cy="131.88" r="11.3" transform="rotate(-30.63 395.69 131.873)" style="fill:#263238"/><path d="M410.16 137.17c0 6.24-5.57 14.17-11.81 14.17a11.29 11.29 0 0 1-11.3-11.29c0-6.24 5.06-13.35 11.3-13.35s11.81 2.12 11.81 10.47z" style="fill:#263238"/><path d="M392.89 130.54a6.63 6.63 0 1 1-6.63-6.62 6.63 6.63 0 0 1 6.63 6.62z" style="fill:#263238"/><path d="M392.5 149.54v6.08s-5.68 5.71-.15 6.21 9-5.77 9-5.77v-11.59z" style="fill:#945959"/><path d="M401.26 142.64v.36c-2 7.79-7.11 9.49-8.76 9.88l-.06-12.06h8.57z" style="fill:#703838"/><path d="M394.1 125.29a10.89 10.89 0 0 0-10.18 11.29c-.1 8.63 1.22 15.21 5.69 15.48s14.46-3.76 14.93-15-7.25-12.06-10.44-11.77z" style="fill:#945959"/><path style="fill:#703838" d="m389.96 140.05.08 5.06-2.98-.86 2.9-4.2z"/><path d="M394.41 139.91a1 1 0 1 1-1.05-1 1 1 0 0 1 1.05 1zM387.61 139.29a1 1 0 1 1-1-1 1 1 0 0 1 1 1z" style="fill:#263238"/><path d="m385.29 137.17 2-1.23s-.78-.79-1.55-.3a1.42 1.42 0 0 0-.45 1.53z" style="fill:#92e3a9"/><path d="M389.37 146.88a32.2 32.2 0 0 0 3.05-1.68s.64 1.66-.71 2.34a1.92 1.92 0 0 1-2.34-.66z" style="fill:#703838"/><path d="m385.29 137.17 2-1.23s-.78-.79-1.55-.3a1.42 1.42 0 0 0-.45 1.53zM399.49 139.44s-.2 3.63 1.89 3.63h4.1v-6.92c0-7.76-5.89-15.87-18.42-9.46 0 0-.61 10.36 12.43 12.75z" style="fill:#263238"/><path d="M401.07 143.23a5.2 5.2 0 0 1 .45-2.3 2.44 2.44 0 0 1 2.13-1.63c2.44 0 2.74 2.31 2.7 3.15a5 5 0 0 1-5.22 4.6z" style="fill:#945959"/><path d="M406.35 156.31s-5.76 5.74 1.59 14.6 8.89 10.77 8.89 10.77 7.54.74 8.64-6.22c0 0-8.86-12.45-11.28-15.59s-4.62-3.4-7.84-3.56z" style="fill:#92e3a9"/><path d="M406.35 156.31s-5.76 5.74 1.59 14.6 8.89 10.77 8.89 10.77 7.54.74 8.64-6.22c0 0-8.86-12.45-11.28-15.59s-4.62-3.4-7.84-3.56z" style="opacity:.2"/><path d="M389.59 177.88s8.82 2.46 11.77-5.93c0 .05-1.52 10.47-11.77 5.93z" style="opacity:.30000000000000004"/><path d="M424.39 206.21s-1.4.82-1.73 3.75c-.1.84-1.64 2.71-1.41 3.18s1.77 1.11 3.43-1.64a10.76 10.76 0 0 1 .06 4.24c-.45 2.17-1.23 4.95 1.6 4.34s7-2.85 6.34-7.07c-.61-4.07-.95-7.37-.95-7.37z" style="fill:#945959"/></g><g><path style="fill:#92e3a9" d="m257.81 260.82-4.3-1.85V214.5l4.3 1.85v44.47z"/><path style="opacity:.6000000000000001" d="m257.81 260.82-4.3-1.85V214.5l4.3 1.85v44.47z"/><path style="fill:#92e3a9" d="m358.13 158.31-100.32 58.04-4.3-1.85 100.32-58.04 4.3 1.85z"/><path style="opacity:.4" d="m358.13 158.31-100.32 58.04-4.3-1.85 100.32-58.04 4.3 1.85z"/><path style="fill:#92e3a9" d="m358.13 202.78-100.32 58.04v-44.47l100.32-58.04v44.47z"/><path style="opacity:.30000000000000004" d="m358.13 202.78-100.32 58.04v-44.47l100.32-58.04v44.47z"/><text transform="matrix(.87 -.5 0 1 283.73 232.72)" style="font-size:29.17784881591797px;fill:#fff;font-family:Montserrat-Black,Montserrat;font-weight:800;letter-spacing:.2000098136532195em">C</text><text transform="matrix(.5 -.29 0 .58 306.17 210.05)" style="font-size:29.17784881591797px;fill:#fff;font-family:Montserrat-Black,Montserrat;font-weight:800;letter-spacing:.19995195357807474em">++</text><path d="M345.13 383.1s4.08-2.28 4.59-4.82-4-8.39-4-8.39-3.31 1.89-.59 13.21z" style="fill:#92e3a9"/><path d="M345.13 383.1s4.08-2.28 4.59-4.82-4-8.39-4-8.39-3.31 1.89-.59 13.21z" style="opacity:.2"/><path style="fill:#92e3a9" d="m295.18 390.97 5.95-3.51.78-5.96-2.05-.48-4.68 9.95z"/><path style="opacity:.30000000000000004" d="m295.18 390.97 5.95-3.51.78-5.96-2.05-.48-4.68 9.95z"/><path d="m330.42 356.71 5.56 8.88 3.71 12.3s6.85-.85 2.54-16.64l-3.23-9.52zM294 360l1.17 14.15-4.09 10.85s2.05 5.07 8.49-5.66c3.42-5.7 3.53-6.83 3.53-6.83l1.35-12.5z" style="fill:#ffa8a7"/><path d="m299.31 222.16-2.09 4.14a.47.47 0 0 0 .27.66l2.48.82z" style="fill:#f28f8f"/><path d="M302.21 215.22s-3.21 1.71-3.21 11.51c0 5.39.37 8.83 3.17 8.62s10.86-1.27 10.86-1.27v-18.86z" style="fill:#ffa8a7"/><path d="M302.21 235.35c1-.08 2.62-.26 4.32-.46v-1a22 22 0 0 1-4.79 1.45 2.43 2.43 0 0 0 .47.01z" style="fill:#f28f8f"/><path style="fill:#ffa8a7" d="M306.05 233.47v6.16h8.42v-8.65l-8.42 2.49zM320.46 255.08l5.47 11.23-4.1 5.37 2.83 9.59 8.79-10.37a6.54 6.54 0 0 0 1.11-6.61c-2.42-6.22-7.23-18.46-8.53-20.63-1.76-2.93-3.86-4.49-7-4.39s1.43 15.81 1.43 15.81z"/><path d="M323.1 273.53c1.27 3.81 4 9.17 3.92 27.18-.08 12.59 0 19.68.12 22.8a4.51 4.51 0 0 0 1.22 3c1.34 1.38 3.62 4.35 5.77 10a139.29 139.29 0 0 1 4.87 15.22s-1.56 5.08-8.59 5l-17.58-28.25a9.44 9.44 0 0 1-1.33-3.73l-4.62-35.09v-14.37z" style="fill:#92e3a9"/><path d="M323.1 273.53c1.27 3.81 4 9.17 3.92 27.18-.08 12.59 0 19.68.12 22.8a4.51 4.51 0 0 0 1.22 3c1.34 1.38 3.62 4.35 5.77 10a139.29 139.29 0 0 1 4.87 15.22s-1.56 5.08-8.59 5l-17.58-28.25a9.44 9.44 0 0 1-1.33-3.73l-4.62-35.09v-14.37z" style="opacity:.6000000000000001"/><path d="m310.6 317.78 4.88-17.5s6.86-7 4.42-19l-10.37 13.06.52 19.92z" style="fill:#92e3a9"/><path d="m310.6 317.78 4.88-17.5s6.86-7 4.42-19l-10.37 13.06.52 19.92z" style="opacity:.7000000000000001"/><path d="M294.49 274.51c-.29 5.66-3.36 40.9-2.92 51.15S294 360 294 360s6.63 2.74 10.44 0c0 0 1.61-9.5 2.66-17a29.83 29.83 0 0 0-.39-11.68 8.54 8.54 0 0 1 0-4.29l7.48-28.71s6.46-4.53 6.46-17.06v-9.4z" style="fill:#92e3a9"/><path d="M294.49 274.51c-.29 5.66-3.36 40.9-2.92 51.15S294 360 294 360s6.63 2.74 10.44 0c0 0 1.61-9.5 2.66-17a29.83 29.83 0 0 0-.39-11.68 8.54 8.54 0 0 1 0-4.29l7.48-28.71s6.46-4.53 6.46-17.06v-9.4z" style="opacity:.6000000000000001"/><path d="M312.46 235.3 299 240.24s-6.3 5.47-6.3 15.92c0 2.93 2.83 5.56 2.83 5.56s-1 9.18-1.08 12.79c0 0 6.88 4.83 19.71 2.93a22.88 22.88 0 0 0 8.9-3.91s-2-8.1-2.25-8.88 2.74-10.25 2.74-17.77z" style="fill:#455a64"/><path d="M300.57 217.41s.54 4.73 3.57 6c0 0-2.4 3.29 1.16 4.73v-2.54l1.49 2.91s-4.19 17 3.08 17a5.3 5.3 0 0 0 3.47-1.22s1.12 4.44 7.85 4.44 8-6.59 8-6.59-4.49 1.36-4.49-3.32-.34-19.72-.59-22a11.27 11.27 0 0 0-10-9.13c-5.25-.63-12.06-.59-16 4.83s1.68 6.94 1.68 6.94.13-.19.78-2.05z" style="fill:#263238"/><path d="M305.3 225.62s-.22-4.14 3-3.82c3.68.36 2.51 7-2 7z" style="fill:#ffa8a7"/><path d="M325.81 213a9.91 9.91 0 0 0-3.37-3.23 3.67 3.67 0 0 0-4.9 1.83 5.95 5.95 0 0 0 3.75 8.32 6.49 6.49 0 0 0 1 .19 3.9 3.9 0 0 0 4.15-3 5.77 5.77 0 0 0 .21-1.45 4.49 4.49 0 0 0-.84-2.66z" style="fill:#92e3a9"/><path d="M328.56 214a5.28 5.28 0 1 1-5.28-5.29 5.28 5.28 0 0 1 5.28 5.29z" style="fill:#263238"/><path d="M299 240.24s4.53.69 4.53 6.74-11.13 8.79-16.4 10.74c-3 1.13-7.07 2.71-9.92 3.85a6.4 6.4 0 0 1-6.59-1.14 105.52 105.52 0 0 1-15-16.18s-6.36-2.25-6.17-8.5 4-8 4-8v2.08a4.44 4.44 0 0 0 1.73 3.52l1.27 1a1.13 1.13 0 0 0 1.75-.5c.44-1.2 1.21-2.76 2.36-3.28 1.95-.88 1.27 2.91.78 4.72a10.58 10.58 0 0 0-.39 3.19l14.25 12.59s15.64-8.23 23.8-10.83z" style="fill:#ffa8a7"/><path d="M303.1 372.53a6.62 6.62 0 0 0-4.8 3.51c-1.56 3.12-4.49 11.91-7.22 9l.93-2.45s-10.93 2.39-8.32 5.25 10.8 4.13 11.49 3.15 4.39-8 4.39-8l2.05 9.37a1.64 1.64 0 0 0 2.15 0s2.67-17.98-.67-19.83zM339.69 377.89a4.06 4.06 0 0 0 2.15-4.39c-.39-3.32-2.92-9.93.39-12.25 1.47-1 4.73 3.46 7.49 8.83s3.54 6.93 3.54 6.93-.3 1.44-1.56 1.37l-6.05-6.25a12.4 12.4 0 0 0 .19 5.76c.88 2.93 1 4.63-2.19 6.05s-11.92 3.36-7.25-2.53a16.91 16.91 0 0 1 3.29-3.52z" style="fill:#92e3a9"/></g><g><path d="m105.27 394.07.78 8.07s.87 1.66 4.88 1.66 3.12-3.42 3.12-3.42l.39-6.31z" style="fill:#ffa8a7"/><path d="M117.3 312.38c0 4.19-.39 45.09-.42 47.83a2.81 2.81 0 0 1 0 .29c-.16 2.28-2.14 30.32-2.43 33.57 0 0-4.78 3.64-9.17 0 0 0-1.18-9.89-1.57-12.82s-1.86-16 0-20.31l-4.78-24.79v-19.91z" style="fill:#37474f"/><path d="M111.88 318.66s-1 6.26-8.18 9.68l-3.15 16.25-1.63-7.59v-17.74z" style="fill:#263238"/><path d="m74.61 400.38-.78 6s2.09 5.45 8.47 2.82l1.17-6.24z" style="fill:#ffa8a7"/><path d="M83.47 313.11c-.44 4.68-1.73 16.59-2.22 32s-.49 15.32-.49 15.32a42.92 42.92 0 0 0-3.55 11.91c-.61 5.78-2.6 28-2.6 28a9 9 0 0 0 8.86 2.54l11.78-37a21.87 21.87 0 0 0 .73-3.08l5.77-36.37s10.06-1.36 12.3-14.35z" style="fill:#37474f"/><path style="fill:#f28f8f" d="m120.52 284.33 11.34 9.08v-13.18l-4.02-4.1-7.32 8.2z"/><path d="M109.46 263.76a10.84 10.84 0 0 1 7.48 2.27c3.51 2.78 10.9 10.1 10.9 10.1a9.88 9.88 0 0 1-7.32 8.2l-7.25-5.19z" style="fill:#92e3a9"/><path d="M109.46 263.76a10.84 10.84 0 0 1 7.48 2.27c3.51 2.78 10.9 10.1 10.9 10.1a9.88 9.88 0 0 1-7.32 8.2l-7.25-5.19z" style="fill:#fff;opacity:.2"/><path d="M94.74 263.83s-7.46.75-10.83 1.48l-1.24 13.46s2.62 15 2.62 17.11-1.82 17.23-1.82 17.23 5.15 3.37 20.14 3.37a27.86 27.86 0 0 0 13.69-4.1v-29.91c0-5.82-2.27-15-7.84-18.71h-4.58z" style="fill:#92e3a9"/><path d="M94.74 263.83s-7.46.75-10.83 1.48l-1.24 13.46s2.62 15 2.62 17.11-1.82 17.23-1.82 17.23 5.15 3.37 20.14 3.37a27.86 27.86 0 0 0 13.69-4.1v-29.91c0-5.82-2.27-15-7.84-18.71h-4.58z" style="opacity:.2"/><path style="fill:#92e3a9" d="m136.15 304.91-4.29-1.85v-44.47l4.29 1.85v44.47z"/><path style="opacity:.6000000000000001" d="m136.15 304.91-4.29-1.85v-44.47l4.29 1.85v44.47z"/><path style="fill:#92e3a9" d="m236.47 202.4-100.32 58.04-4.29-1.85 100.31-58.04 4.3 1.85z"/><path style="opacity:.4" d="m236.47 202.4-100.32 58.04-4.29-1.85 100.31-58.04 4.3 1.85z"/><path style="fill:#92e3a9" d="m236.47 246.87-100.32 58.04v-44.47l100.32-58.04v44.47z"/><path style="opacity:.30000000000000004" d="m236.47 246.87-100.32 58.04v-44.47l100.32-58.04v44.47z"/><text transform="matrix(.87 -.5 0 1 152.89 282.47)" style="font-size:29.17784881591797px;fill:#fff;font-family:Montserrat-Black,Montserrat;font-weight:800;letter-spacing:.2000098136532195em">CSS</text><path d="M114 235.46s5.83 5.12.76 16.53l-5.93-15.42z" style="fill:#263238"/><path d="M94.74 263.83s2 5.35 7.57 5.35 2.57-5.42 2.57-5.42z" style="fill:#ffa8a7"/><path style="fill:#ffa8a7" d="m94.74 263.83 10.14-.07v-15.51H94.74v15.58z"/><path d="M104.88 263.14c-3.74-1.45-8.49-3.85-8.49-6.14l-1.23-7.71h9.72z" style="fill:#f28f8f"/><path d="M102.55 232.3c3.58 0 11.18 2 12.06 11.36s-.49 17.32-4.8 17.32c-8.46 0-16.58-1.08-16.65-14.92-.06-12.21 5.9-13.76 9.39-13.76z" style="fill:#ffa8a7"/><path d="m94.75 254.26 1.37-4.26a.71.71 0 0 0 1.17-.54v-7.55s3.52-1 3.15-3.95c0 0 1.8 1.61 8.7 1.61s8.58-5.85 7.89-9.11c0 0-1.28 1.32-4.93 1.32s-18.84-4.58-19.23 4.6c0 0-1.29-1.88-3.36 0l2.67 1.62s-3.16-.1-2.67 4.53c.39 3.66 1.91 10.59 2.54 13.36a3.13 3.13 0 0 0 1.29 1.88l1.41.95z" style="fill:#263238"/><path style="fill:#f28f8f" d="M107.93 246.47v5.52l3.23-1-3.23-4.52z"/><path d="M102.19 247.42a1.13 1.13 0 1 0 1.12-1.12 1.12 1.12 0 0 0-1.12 1.12zM110.6 246.64a1.13 1.13 0 1 0 1.13-1.13 1.13 1.13 0 0 0-1.13 1.13zM113.1 244.29l-2.2-1.3s.84-.88 1.68-.35a1.53 1.53 0 0 1 .52 1.65zM101 245.11l2.19-1.31s-.84-.88-1.68-.35a1.54 1.54 0 0 0-.51 1.66z" style="fill:#263238"/><path d="M109.45 254.22a4.75 4.75 0 0 1-3-.81s-.21 1.6 1.13 1.9a1.73 1.73 0 0 0 1.87-1.09z" style="fill:#f28f8f"/><path d="M95.58 248.45c1.27 2.21.94 4.89-.83 5.81-1.15.59-4.52-.68-5.79-2.89s-.56-4.1 1.17-5.1 4.17-.03 5.45 2.18z" style="fill:#ffa8a7"/><path style="fill:#253239" d="m96.22 250.09-3.89-4.22 2.8-1.68 1.09 5.9z"/><path d="m102 281.41 5.35 5.93s4.37-.62 9.44-.88a87.93 87.93 0 0 0 11.94-2.09s1-4.28 3.14-6v3.35s2.87 1 4.29-.42c2.45-2.41 4.64-4.63 4.64.42 0 7.05-3 9.91-11.1 9.76 0 0-20.45 8.57-25.35 7.61-3-.57-11.24-8.34-11.24-8.34z" style="fill:#ffa8a7"/><path d="M80 267.26c3.44-3.5 7.37-1.87 10.82 1.58S102 281.41 102 281.41s-.78 7.11-8.89 9.37c0 0-10.94-11.39-12.34-12.94-2.54-2.84-4.03-7.24-.77-10.58z" style="fill:#92e3a9"/><path d="M80 267.26c3.44-3.5 7.37-1.87 10.82 1.58S102 281.41 102 281.41s-.78 7.11-8.89 9.37c0 0-10.94-11.39-12.34-12.94-2.54-2.84-4.03-7.24-.77-10.58z" style="fill:#fff;opacity:.2"/><path d="M152.56 295.44a8.34 8.34 0 0 1 3.08-5.85c4.61-3.52 4.42 0 4.53 1.45s-4.27 6.6-9.07 5.24z" style="fill:#ffa8a7"/><path d="M73.83 406.34a5.22 5.22 0 0 0 1 1.48.72.72 0 0 0 1.18-.47 1.89 1.89 0 0 1 1-1.6c.69-.29 6.2-.39 6.25.73A12 12 0 0 1 83 409s.89 7.58 2.58 10.58 4.45 7.85-1.36 9.27-10.2-1.66-10.4-5.76-.1-7-.49-7.71-2.44-1.08-1.66-4.83.9-6 2.4-6.12z" style="fill:#455a64"/><path d="M77.79 413.3a.5.5 0 0 1-.43-.22.53.53 0 0 1 .12-.73 6.5 6.5 0 0 1 6.2-.39.52.52 0 1 1-.42 1 5.51 5.51 0 0 0-5.18.29.52.52 0 0 1-.29.05zM78.65 417a.54.54 0 0 1-.43-.22.53.53 0 0 1 .13-.73 6.49 6.49 0 0 1 6.2-.4.54.54 0 0 1 .27.7.53.53 0 0 1-.7.26 5.47 5.47 0 0 0-5.17.29.47.47 0 0 1-.3.1zM80 420.65a.51.51 0 0 1-.43-.22.53.53 0 0 1 .13-.73 6.5 6.5 0 0 1 6.2-.39.52.52 0 0 1 .27.69.54.54 0 0 1-.69.27 5.52 5.52 0 0 0-5.18.29.53.53 0 0 1-.3.09z" style="fill:#ebebeb"/><path d="M106.05 402.14a5.91 5.91 0 0 0 3.51 1s-.59-2.31 1.12-3.09 4.44-1.81 5-.88a10.29 10.29 0 0 1 .64 3.32s4.07 3.69 7.09 4.73 7 2.1 6.62 4.89-4.88 6.83-11 4.05-7.22-2.88-9.18-3.18-5.61-.14-5.46-3.41-.13-8.68 1.5-9.12z" style="fill:#455a64"/><path d="M113.06 407.14a.58.58 0 0 1-.18 0 .53.53 0 0 1-.32-.67 5.7 5.7 0 0 1 4.68-3.43.52.52 0 0 1 .12 1 4.66 4.66 0 0 0-3.81 2.75.54.54 0 0 1-.49.35zM116.18 409.2h-.17a.51.51 0 0 1-.32-.66 5.47 5.47 0 0 1 4.54-3.45.52.52 0 0 1 .13 1 4.51 4.51 0 0 0-3.68 2.74.53.53 0 0 1-.5.37zM120.12 410.83H120a.53.53 0 0 1-.42-.61 4.12 4.12 0 0 1 4.29-3.33.53.53 0 0 1 .51.54.51.51 0 0 1-.54.51 3.11 3.11 0 0 0-3.23 2.47.53.53 0 0 1-.49.42z" style="fill:#ebebeb"/></g><g><path d="M189.51 83.24 181 88.08v-4.32c-.31-4-3.33-5.52-7-3.39a13.53 13.53 0 0 0-4.19 4C169 79 164.56 77 159.22 80.09c-5.94 3.43-10.75 11.76-10.75 18.61v6.45a2.91 2.91 0 0 1-1.45 2.52l-5 2.94a7.19 7.19 0 0 0-3.56 6.22 3 3 0 0 0 4.45 2.57l46.47-26.84a8.13 8.13 0 0 0 4.06-7 2.63 2.63 0 0 0-3.93-2.32zM112.33 93.24 106 96.82V93.67c-.23-3-2.46-4.08-5.19-2.51a10 10 0 0 0-3.09 3c-.62-4-3.89-5.45-7.84-3.17a17.58 17.58 0 0 0-8 13.77v4.77a2.15 2.15 0 0 1-1.07 1.86l-3.7 2.17a5.35 5.35 0 0 0-2.64 4.61 2.2 2.2 0 0 0 3.3 1.9l34.38-19.86a6 6 0 0 0 3-5.2 2 2 0 0 0-2.82-1.77z" style="fill:#e6e6e6"/></g></svg>