<svg xmlns="http://www.w3.org/2000/svg" data-name="Layer 1" width="844.521" height="544.595"><path d="m753.402 521.336 13.887.366a44.822 44.822 0 0 0 6.757-20.48c-8.899 9.435-24.595 7.065-36.089 13.075a26.96 26.96 0 0 0-13.825 18.84l-5.726 8.018a45.177 45.177 0 0 0 37.19-6.91 43.639 43.639 0 0 0 8-7.473c-5.15-2.383-10.194-5.436-10.194-5.436z" fill="#f2f2f2"/><path d="m745.752 500.192 12.592-5.866a44.822 44.822 0 0 0-3.085-21.344c-3.757 12.414-18.863 17.292-26.47 27.797a26.96 26.96 0 0 0-3.972 23.029l-1.549 9.73a45.177 45.177 0 0 0 30.205-22.771 43.638 43.638 0 0 0 3.828-10.257c-5.673.165-11.55-.318-11.55-.318z" fill="#f2f2f2"/><path fill="#a0616a" d="M725.084 533.946h-8.518l-4.052-32.854h12.571l-.001 32.854z"/><path d="m724.857 531.163-9.088-3.692-.269-.11-5.018 3.802a10.685 10.685 0 0 0-10.677 10.222c-.013.152-.013.31-.013.468v.35h27.464v-11.04z" fill="#2f2e41"/><path fill="#a0616a" d="m708.863 516.955-7.341 4.32-20.155-26.261 10.835-6.375 16.661 28.316z"/><path d="m713.933 521.284-.997-1.698-3.61-6.133-1.876 1.107-.192.11-9.707 1.43-.29.041-2.392 5.823a10.69 10.69 0 0 0-3.795 14.637l.18.295 23.669-13.928z" fill="#2f2e41"/><path d="M735.872 333.094c3.993 12.045 3.571 25.118-.96 39.15l-1.183 48.236-3.799 30.427a52.099 52.099 0 0 1 3.467 18.681c-.016 16.742-1.142 40.525-6.849 51.698h-13.506l-3.048-49.755-3.638-25.016-.449-26.806-.391-23.38-14.685 21.474-14.27 20.866 14.184 23.925 12.374 38.499-13.062 11L675.24 484l-7.181-8.344-19.604-42.438 1.762-5.909a139.784 139.784 0 0 1 15.662-34.531l19.5-45.257z" fill="#2f2e41"/><path d="M510.923 342.094h-268.01a8.076 8.076 0 0 1-8.067-8.066V129.16a8.075 8.075 0 0 1 8.067-8.066h268.01a8.075 8.075 0 0 1 8.066 8.066v204.868a8.076 8.076 0 0 1-8.066 8.066z" fill="#fff"/><path d="M510.923 343.094h-268.01a9.077 9.077 0 0 1-9.066-9.066V129.16a9.077 9.077 0 0 1 9.066-9.066h268.01a9.077 9.077 0 0 1 9.066 9.066v204.868a9.077 9.077 0 0 1-9.066 9.066zm-268.01-221a7.074 7.074 0 0 0-7.066 7.066v204.868a7.074 7.074 0 0 0 7.066 7.066h268.01a7.074 7.074 0 0 0 7.066-7.066V129.16a7.074 7.074 0 0 0-7.066-7.066z" fill="#f0f0f0"/><path d="M235.465 303.094v30.934a7.458 7.458 0 0 0 7.448 7.447h268.01a7.458 7.458 0 0 0 7.447-7.447v-30.934z" fill="#f0f0f0"/><path fill="#f0f0f0" d="m236.913 124.083 1.078-1.684L518.91 302.25l-1.079 1.685z"/><path d="M697.862 36.552H65.538a1.016 1.016 0 0 1 0-2.03h632.324a1.016 1.016 0 0 1 0 2.03z" fill="#cacaca"/><ellipse cx="87.893" cy="11.169" rx="10.925" ry="11.169" fill="#3f3d56"/><ellipse cx="125.636" cy="11.169" rx="10.925" ry="11.169" fill="#3f3d56"/><ellipse cx="163.378" cy="11.169" rx="10.925" ry="11.169" fill="#3f3d56"/><path d="M675.245 2.768h-26.81a2.03 2.03 0 0 0 0 4.06h26.81a2.03 2.03 0 0 0 0-4.06zM675.245 10.388h-26.81a2.03 2.03 0 0 0 0 4.06h26.81a2.03 2.03 0 0 0 0-4.06zM675.245 17.998h-26.81a2.03 2.03 0 0 0 0 4.06h26.81a2.03 2.03 0 0 0 0-4.06z" fill="#3f3d56"/><path d="M601.764 275.287a6.618 6.618 0 0 0 10.136.478l21.565 9.379-2.1-12.039-20.157-7.06a6.653 6.653 0 0 0-9.444 9.242z" fill="#a0616a"/><path d="m621.385 268.486 41.197 5.339 42.485-25.593a18.784 18.784 0 0 1 26.807 8.35 18.804 18.804 0 0 1-8.433 24.393l-57.09 20.344-.107.038-50.09-22.311z" fill="#3f3d56"/><path d="m681.548 340.377 3.424-8.561-2.264-7.36 6.71-73.362.991-11.118.067-8.288 22.946-.56 2.488 6.32 4.924 2.944a35.646 35.646 0 0 1 17.308 31.18l-.89 48.12 2.29 4.581a9.638 9.638 0 0 1-5.68 13.49l-50.444 15.331z" fill="#3f3d56"/><circle cx="699.848" cy="202.421" r="20.849" fill="#a0616a"/><path d="M721.558 206.966c.622-2.62.336-6.306-.015-8.944a25.035 25.035 0 0 0-10.597-17.383 7.633 7.633 0 0 0-3.802-1.511 3.282 3.282 0 0 0-3.3 1.996 6.842 6.842 0 0 0-3.86-3.828 12.058 12.058 0 0 0-5.494-.74 20.08 20.08 0 0 0-16.752 11.975c-.557 1.323-2.112-3.564-2.818-2.314a5.557 5.557 0 0 1-3.151 2.77c-1.383.385-1.944 6.081-2.489 4.753a6.332 6.332 0 0 0 6.054 8.829 34.87 34.87 0 0 0 4.143-.793 10.33 10.33 0 0 1 11.31 7.73 13.685 13.685 0 0 1 1.8-4.005 4.632 4.632 0 0 1 3.715-2.042 5.204 5.204 0 0 1 3.576 2.056c.918 1.077 1.607 2.335 2.532 3.407 2.713 3.145 6.383 10.48 10.249 9.945 3.051-.422 8.05-8.324 8.899-11.9z" fill="#2f2e41"/><path d="M761.086 378.192a6.618 6.618 0 0 0-2.837-9.743l1.875-23.442-10.706 5.893-.139 21.357a6.654 6.654 0 0 0 11.807 5.935z" fill="#a0616a"/><path d="m748.286 361.839-8.317-40.701-37.993-31.883a18.784 18.784 0 0 1-.799-28.065 18.804 18.804 0 0 1 25.81.062l37.766 47.4.071.089-4.852 54.618z" fill="#3f3d56"/><path d="M843.33 544.595H495.342a1.19 1.19 0 1 1 0-2.381H843.33a1.19 1.19 0 1 1 0 2.381z" fill="#ccc"/><path d="M618.438 350.952h-158.14a4.161 4.161 0 0 1-4.156-4.157V282.63a4.161 4.161 0 0 1 4.156-4.157h158.14a4.161 4.161 0 0 1 4.157 4.157v64.166a4.161 4.161 0 0 1-4.157 4.157z" fill="#f98826"/><path d="M603.38 381.733H475.356a4.988 4.988 0 1 1 0-9.976H603.38c6.433-.09 6.497 10.066 0 9.976zM603.38 404.594H475.356a4.988 4.988 0 0 1 0-9.976H603.38c6.433-.09 6.497 10.067 0 9.976zM603.38 427.456H475.356a4.988 4.988 0 1 1 0-9.976H603.38c6.433-.09 6.497 10.066 0 9.976z" fill="#e4e4e4"/><path d="m208.899 464.39 13.241-4.2a44.822 44.822 0 0 0-.319-21.563c-5.32 11.828-20.927 14.727-29.82 24.168a26.96 26.96 0 0 0-6.897 22.327l-2.786 9.45a45.177 45.177 0 0 0 32.88-18.702 43.639 43.639 0 0 0 5.114-9.68c-5.648-.566-11.413-1.8-11.413-1.8z" fill="#f2f2f2"/><path d="m194.75 446.915 9.978-9.665a44.822 44.822 0 0 0-9.903-19.158c.514 12.96-12.163 22.515-15.912 34.93a26.96 26.96 0 0 0 3.785 23.06l1.721 9.702a45.177 45.177 0 0 0 21.088-31.404 43.639 43.639 0 0 0 .26-10.945c-5.307 2.013-11.018 3.48-11.018 3.48z" fill="#f2f2f2"/><path d="M221.426 266.967a7.523 7.523 0 0 1-8.515-7.782l-48.096-48.8 13.426-9.348 43.056 50.909a7.564 7.564 0 0 1 .13 15.02z" fill="#ffb6b6"/><path d="M150.018 189.276s-3.408 2.043 2.265 8.264c4.542 4.981 24.363 28.929 32.275 33.929-.863 2.49 21.021 26.342 23.322 27.863l12.164-15.18c-.695-4.352-24.63-25.13-26.278-24.601l-7.631-9.487-17.292-29.003-16.387 6.694z" fill="#f98826"/><path fill="#ffb6b6" d="M112.035 480.052h9.067l4.315-34.974h-13.383l.001 34.974z"/><path d="m109.075 473.842 14.487-.865v6.206l13.772 9.512a3.877 3.877 0 0 1-2.203 7.067h-17.246l-2.973-6.139-1.16 6.14h-6.503z" fill="#2f2e41"/><path fill="#ffb6b6" d="M162.968 480.052h9.067l4.315-34.974h-13.382v34.974z"/><path d="m160.008 473.842 14.487-.865v6.206l13.772 9.512a3.877 3.877 0 0 1-2.203 7.067h-17.246l-2.973-6.139-1.16 6.14h-6.503zM108.122 449.892h.099l1.744-56.867a14.87 14.87 0 0 1 .195-14.052l.25-.452-.648-3a19.114 19.114 0 0 1 1.092-11.504l1.627-53.047c-5.812-37.666 21.887-62.231 21.887-62.231l-5.062-21.293 50.112-4.929-3.558 26.222 8.908 30.606c5.89 57.374 4.82 113.283-4.524 167.45l.254.128c.918.317 1.311 1.588.88 2.839s-1.526 2.008-2.443 1.692l-21.913-.763c-.918-.316-1.311-1.587-.88-2.838.432-1.251 1.526-2.008 2.444-1.692l1.49.754-3.178-54.875.353-10.023-.727-11.371-3.359-51.147-12.713 62.896-12.987 68.13a2.389 2.389 0 0 1-1.61 4.16h-17.733a2.396 2.396 0 0 1 0-4.793z" fill="#2f2e41"/><path d="m169.657 173.88-9.854-5.913-19.71-1.971-17.421 8.87.175 27.1 11.051 28.107 43.055 8.874 5.023-24.701s12.812-17.207-.985-27.062z" fill="#f98826"/><path d="M127.473 290.886a7.523 7.523 0 0 1-1.668-11.414l-6.356-68.223 16.312 1.26 1.118 66.665a7.564 7.564 0 0 1-9.406 11.712z" fill="#ffb6b6"/><path d="M123.276 175.138s-3.932-.575-3.477 7.833c.365 6.73-1.368 48.22 1.593 57.097-2.244 1.383-2.364 35.15-1.545 37.784l19.025-4.055c2.216-3.81.757-38.72-.854-39.355l.095-12.175 4.204-40.13-16.191-6.633zM220.508 297.199a5.411 5.411 0 0 1-1.116-4.51 72.012 72.012 0 0 0 0-28.374 5.411 5.411 0 0 1 1.116-4.511 5.29 5.29 0 0 1 4.025-1.941c8.288-3.303 16.225-3.303 23.595 0a5.352 5.352 0 0 1 5.205 4.6 119.103 119.103 0 0 1 0 32.077 5.351 5.351 0 0 1-5.294 4.6h-23.425a5.288 5.288 0 0 1-4.106-1.941z" fill="#f98826"/><path d="M227.067 270.093h19.716a1.232 1.232 0 0 0 0-2.465h-19.716a1.232 1.232 0 0 0 0 2.465zM227.067 279.95h19.716a1.232 1.232 0 0 0 0-2.464h-19.716a1.232 1.232 0 0 0 0 2.465zM227.067 289.809h19.716a1.232 1.232 0 0 0 0-2.465h-19.716a1.232 1.232 0 0 0 0 2.465z" fill="#fff"/><path d="M282.67 495.405a1.186 1.186 0 0 1-1.19 1.19H1.19a1.19 1.19 0 1 1 0-2.38h280.29a1.187 1.187 0 0 1 1.19 1.19z" fill="#ccc"/><path data-name="a1ca5f83-7fa1-45b1-9d3b-bf096f25c0e5" d="M168.42 155.921V137.56a24.604 24.604 0 1 0-49.208-.032v.032c-4.336 9.036-1.623 13.332 0 18.361a3.309 3.309 0 0 0 3.304 3.304h42.599a3.31 3.31 0 0 0 3.305-3.304z" fill="#2f2e41"/><circle cx="151.883" cy="139.615" r="18.417" fill="#ffb7b7"/><path d="M132.61 144.443c.166-.027.333-.062.5-.088 2.873-.51 5.745-1.01 8.61-1.529l.263-6.492 3.47 5.816c7.916 2.627 15.321 1.142 22.288-2.135a62.923 62.923 0 0 0 6.677-3.68 24.407 24.407 0 0 0-11.992-17.273c-.263-.149-.518-.28-.782-.413a.009.009 0 0 1-.009-.008 26.62 26.62 0 0 0-1.361-.598 20.287 20.287 0 0 0-21.296 4.13c-5.622 5.367-8.152 14.231-6.369 22.27z" fill="#2f2e41"/></svg>