<svg xmlns="http://www.w3.org/2000/svg" viewBox="0 0 500 500"><path style="fill:#ebebeb" d="M0 382.4h500v.25H0zM416.78 398.49h33.12v.25h-33.12zM322.53 401.21h8.69v.25h-8.69zM396.59 389.21h19.19v.25h-19.19zM52.46 390.89h43.19v.25H52.46zM104.56 390.89h6.33v.25h-6.33zM131.47 395.11h93.68v.25h-93.68zM237 337.8H43.91a5.71 5.71 0 0 1-5.7-5.71V60.66a5.71 5.71 0 0 1 5.7-5.66H237a5.71 5.71 0 0 1 5.71 5.71v271.38a5.71 5.71 0 0 1-5.71 5.71zM43.91 55.2a5.46 5.46 0 0 0-5.45 5.46v271.43a5.46 5.46 0 0 0 5.45 5.46H237a5.47 5.47 0 0 0 5.46-5.46V60.66A5.47 5.47 0 0 0 237 55.2zM453.31 337.8h-193.1a5.72 5.72 0 0 1-5.71-5.71V60.66a5.72 5.72 0 0 1 5.71-5.66h193.1a5.71 5.71 0 0 1 5.69 5.66v271.43a5.71 5.71 0 0 1-5.69 5.71zM260.21 55.2a5.47 5.47 0 0 0-5.46 5.46v271.43a5.47 5.47 0 0 0 5.46 5.46h193.1a5.47 5.47 0 0 0 5.46-5.46V60.66a5.47 5.47 0 0 0-5.46-5.46z"/><path transform="rotate(180 315.41 147.425)" style="fill:#e6e6e6" d="M218.41 72.24h194V222.6h-194z"/><path transform="rotate(180 311.37 147.425)" style="fill:#f5f5f5" d="M214.37 72.24h194V222.6h-194z"/><path transform="rotate(180 308.715 226.955)" style="fill:#e6e6e6" d="M205.01 222.6h207.4v8.7h-207.4z"/><path transform="rotate(180 299.69 226.955)" style="fill:#f5f5f5" d="M200.46 222.6h198.46v8.7H200.46z"/><path transform="rotate(90 311.375 147.425)" style="fill:#fafafa" d="M244.01 57.67h134.72v179.5H244.01z"/><path style="fill:#fff" d="m288.31 214.78 50.27-134.72h-51.26l-50.26 134.72h51.25zM325.37 214.78l50.26-134.72h-28.24l-50.26 134.72h28.24z"/><path transform="rotate(90 311.375 147.425)" style="fill:#f5f5f5" d="M244.01 143.38h134.72v8.08H244.01z"/><path transform="rotate(90 223.15 147.42)" style="fill:#e6e6e6" d="M155.79 145.9h134.72v3.05H155.79z"/><path transform="rotate(90 316.94 147.42)" style="fill:#e6e6e6" d="M249.58 145.9H384.3v3.05H249.58z"/><path transform="rotate(180 128.205 150.29)" style="fill:#e6e6e6" d="M90.24 72.24h75.93v156.09H90.24z"/><path transform="rotate(180 121.42 150.29)" style="fill:#f0f0f0" d="M79.52 72.24h83.8v156.09h-83.8z"/><path transform="rotate(90 121.42 150.29)" style="fill:#fff" d="M56.96 121.97h128.93v56.64H56.96z"/><rect x="86.9" y="135.12" width="69.04" height="30.33" rx="5.41" transform="rotate(90 121.42 150.29)" style="fill:#f5f5f5"/><rect x="61.85" y="258.89" width="30.43" height="106.44" rx="12" style="fill:#f5f5f5"/><rect x="75.5" y="262.44" width="20.57" height="99.33" rx="9.29" style="fill:#ebebeb"/><rect x="83.96" y="258.89" width="30.43" height="106.44" rx="12" style="fill:#f5f5f5"/><rect x="97.6" y="262.44" width="20.57" height="99.33" rx="9.29" style="fill:#ebebeb"/><rect x="106.06" y="258.89" width="30.43" height="106.44" rx="12" style="fill:#f5f5f5"/><rect x="119.7" y="262.44" width="20.57" height="99.33" rx="9.29" style="fill:#ebebeb"/><rect x="128.16" y="258.89" width="30.43" height="106.44" rx="12" style="fill:#f5f5f5"/><rect x="141.8" y="262.44" width="20.57" height="99.33" rx="9.29" style="fill:#ebebeb"/><rect x="150.26" y="258.89" width="30.43" height="106.44" rx="12" style="fill:#f5f5f5"/><rect x="163.91" y="262.44" width="20.56" height="99.33" rx="9.29" style="fill:#ebebeb"/><rect x="172.37" y="258.89" width="30.43" height="106.44" rx="12" style="fill:#f5f5f5"/><rect x="186.01" y="262.44" width="20.56" height="99.33" rx="9.29" style="fill:#ebebeb"/><rect x="194.47" y="258.89" width="30.43" height="106.44" rx="12" style="fill:#f5f5f5"/><path d="M226.94 353.5h-26.48a2 2 0 0 1-2-2 2 2 0 0 1 2-2h26.48a2 2 0 0 1 2 2 2 2 0 0 1-2 2zM226.94 277.33h-26.48a2 2 0 0 1-2-2 2 2 0 0 1 2-2h26.48a2 2 0 0 1 2 2 2 2 0 0 1-2 2z" style="fill:#f5f5f5"/><path d="M299.32 297.06h74.11a7.23 7.23 0 0 0 7.23-7.22 7.23 7.23 0 0 0-7.23-7.22h-74.11a7.22 7.22 0 0 0-7.22 7.22 7.22 7.22 0 0 0 7.22 7.22z" style="fill:#ebebeb"/><path d="M338 258.08a10.55 10.55 0 0 1-8.16-12.47l10.52-50.32a10.53 10.53 0 0 1 12.47-8.16A10.53 10.53 0 0 1 361 199.6l-10.51 50.32a10.54 10.54 0 0 1-12.49 8.16z" style="fill:#e0e0e0"/><path d="M331.64 257a9 9 0 0 1-10.26-7.56l-6.57-43.48a9 9 0 0 1 7.56-10.25 9 9 0 0 1 10.26 7.56l6.57 43.47a9 9 0 0 1-7.56 10.26zM344.43 208.63a3 3 0 0 1-3.93-1.5l-5.92-13.22a3 3 0 0 1 1.49-3.92 3 3 0 0 1 3.93 1.5l5.92 13.22a3 3 0 0 1-1.49 3.92zM362.34 209.9a3 3 0 0 1-.4 4.18l-11.19 9.21a3 3 0 0 1-4.18-.41 3 3 0 0 1 .41-4.18l11.18-9.2a3 3 0 0 1 4.18.4z" style="fill:#e0e0e0"/><path d="M330.26 194a1.71 1.71 0 0 1 .87 2.24l-3.33 7.57a1.71 1.71 0 0 1-2.24.87 1.71 1.71 0 0 1-.87-2.24l3.33-7.57a1.71 1.71 0 0 1 2.24-.87zM312.44 209.25a1.7 1.7 0 0 1 2.4.07l5.68 6a1.7 1.7 0 0 1-.07 2.4 1.7 1.7 0 0 1-2.4-.07l-5.68-6a1.7 1.7 0 0 1 .07-2.4z" style="fill:#e0e0e0"/><path style="fill:#e6e6e6" d="M355.96 282.62H316.8L308.63 244h55.5l-8.17 38.62z"/><path d="M360.45 250.66h-48.14a6.66 6.66 0 0 1-6.66-6.66 6.66 6.66 0 0 1 6.66-6.65h48.14a6.66 6.66 0 0 1 6.66 6.65 6.66 6.66 0 0 1-6.66 6.66z" style="fill:#f5f5f5"/><path style="fill:#e0e0e0" d="m290.51 382.4 16.28-85.34h13.63l-24.74 85.34h-5.17zM382.25 382.4l-16.27-85.34h-13.64l24.74 85.34h5.17zM352.34 382.4l-11.83-85.34h-13.63l20.29 85.34h5.17z"/><g><ellipse cx="250" cy="416.24" rx="193.89" ry="11.32" style="fill:#f5f5f5"/></g><g><path d="M138.39 330.33H92.65a3 3 0 0 1 0-6h45.74a3 3 0 0 1 0 6z" style="fill:#407bff"/><path d="M138.39 330.33H92.65a3 3 0 0 1 0-6h45.74a3 3 0 0 1 0 6z" style="fill:#fff;opacity:.8"/><path style="fill:#7f3e3b" d="m179.58 407.52 6.74-3.09-3.25-17.4-6.73 3.1 3.24 17.39z"/><path d="m186 402.58-7.57 3.47a.53.53 0 0 0-.29.69l2.38 6.16a1.32 1.32 0 0 0 1.73.66c2.62-1.26 3.8-2 7.13-3.52 2.05-.94 10.86-4.72 13.68-6s1.47-4.06.15-3.76c-5.89 1.33-13.27 2.82-15.86 2.2a2.06 2.06 0 0 0-1.35.1z" style="fill:#263238"/><path style="opacity:.2" d="m176.33 390.13 6.74-3.09 1.68 8.97-6.75 3.09-1.67-8.97z"/><path d="M132.06 295.63s57.68 4.13 55.35 25.26c-3.34 30.37-.59 68.79-.59 68.79l-12.56 5.18s-11-42.81-8.07-66.48c-14.39-6-53.41-.25-58-12.68a40.75 40.75 0 0 1-1.72-20.07z" style="fill:#263238"/><path d="M160.16 313.22s-1.4 6.28-2.36 13.1h.13l1.48.23.75.14.85.16a31.68 31.68 0 0 1 3.43.88c.27.08.52.17.77.26s.67.24 1 .37a73.15 73.15 0 0 0-.51 8.79c8.75-12.85 1.23-23.93-5.54-23.93z" style="opacity:.30000000000000004"/><path style="fill:#407bff" d="m173.13 398.99 16.25-7.46-1.05-5.98-16.71 6.11 1.51 7.33zM189 402.66a9.73 9.73 0 0 1-1.91.58.16.16 0 0 1-.17-.07.17.17 0 0 1 0-.19c.14-.25 1.45-2.42 2.42-2.48a.63.63 0 0 1 .57.28.94.94 0 0 1 .2.94 2 2 0 0 1-1.11.94zm-1.58.15c1.31-.31 2.18-.75 2.35-1.21a.59.59 0 0 0-.14-.61.29.29 0 0 0-.28-.14c-.55.03-1.41 1.15-1.96 1.96z"/><path d="M187.1 403.23h-.1a.14.14 0 0 1-.14-.09c0-.07-1.09-1.94-.71-2.91a.83.83 0 0 1 .56-.52.66.66 0 0 1 .79.21c.49.66.14 2.53-.35 3.24zm-.34-3.16a.5.5 0 0 0-.27.3 3.83 3.83 0 0 0 .54 2.34 3.44 3.44 0 0 0 .21-2.57c-.06-.09-.16-.17-.4-.1z" style="fill:#407bff"/><path d="m134.87 235.51 7 20.3c1.19 3.38 2.37 6.75 3.59 10.08s2.47 6.65 3.81 9.81l-.33-.6a3.59 3.59 0 0 0-1.31-1.15 3.64 3.64 0 0 0-2-.41c-.91.12-.88.31-.78.24a6.09 6.09 0 0 0 1.58-1.09 49 49 0 0 0 3.95-3.95c1.33-1.45 2.64-3 4-4.51l3.94-4.64 4.78 2.86c-.83 2-1.77 3.88-2.73 5.79s-2 3.75-3.19 5.6a44.63 44.63 0 0 1-4 5.49 16.46 16.46 0 0 1-3.18 2.85 7.6 7.6 0 0 1-3.65 1.32 6.3 6.3 0 0 1-3.47-.72 6.6 6.6 0 0 1-2.42-2.22l-.12-.18-.21-.41c-1.68-3.4-3.16-6.76-4.58-10.16s-2.77-6.77-4.06-10.18-2.55-6.82-3.75-10.25-2.38-6.86-3.47-10.36z" style="fill:#803e3c"/><path d="M136.13 236.61c6 6.92 10 16.6 10 16.6l-15.76 9.49c-4.55-5.54-10.22-20.22-10.46-25.17-.35-7.61 9.72-8.37 16.22-.92z" style="fill:#407bff"/><path d="M130.57 243.67c3.44 2.89 5.88 8.9 7 14.73l-7.14 4.3c-2.25-2.74-4.78-7.71-6.79-12.65 1.56-4.9 3.89-8.94 6.93-6.38z" style="opacity:.30000000000000004"/><path style="fill:#7f3e3b" d="M132.8 406.94h7.42l3.39-17.16h-7.41l-3.4 17.16z"/><path d="M140.45 405.14h-8.33a.53.53 0 0 0-.55.51l-.41 6.59a1.32 1.32 0 0 0 1.3 1.32c2.9-.05 4.29-.22 7.95-.22 2.25 0 9.9.23 13 .23s3-3.08 1.7-3.36c-5.91-1.25-11.3-3-13.4-4.61a2 2 0 0 0-1.26-.46z" style="fill:#263238"/><path style="opacity:.2" d="M136.2 389.78h7.41l-1.75 8.85h-7.42l1.76-8.85z"/><path d="M117.53 295.63s48.88 4.13 47.68 25.35c-1.32 23.24-20.13 75.51-20.13 75.51H131.5s6.14-47.29 9.11-70.95c-13.77 0-42.36 2.59-46.94-9.84A40.75 40.75 0 0 1 92 295.63z" style="fill:#263238"/><path style="fill:#407bff" d="M130.04 396.49h17.88l1.02-7.05-18.66.84-.24 6.21zM143.07 406.43a9.5 9.5 0 0 1-2-.26.17.17 0 0 1-.06-.31c.24-.17 2.33-1.6 3.24-1.25a.67.67 0 0 1 .4.49 1 1 0 0 1-.21.94 2 2 0 0 1-1.37.39zm-1.5-.51c1.33.26 2.31.22 2.65-.12a.62.62 0 0 0 .13-.62.3.3 0 0 0-.2-.24c-.48-.19-1.72.43-2.58.98z"/><path d="M141.14 406.17a.11.11 0 0 1-.08 0 .16.16 0 0 1-.06-.17c0-.09-.18-2.22.57-2.94a.89.89 0 0 1 .73-.24.67.67 0 0 1 .63.52c.17.81-.94 2.36-1.67 2.8zm1-3a.53.53 0 0 0-.37.15 3.82 3.82 0 0 0-.49 2.35c.65-.54 1.38-1.72 1.27-2.25 0-.1-.08-.22-.33-.25z" style="fill:#407bff"/><path d="m157.21 262.11 2.3-8.22 7.41 4.89s-4 7.12-6.51 6.54zM166.38 250.55l3.87 4.45-3.33 3.78-7.41-4.9 6.87-3.33z" style="fill:#7f3e3b"/><path d="M132 296H92.36c-.28-3.54.54-15.06-.07-29.73a188.37 188.37 0 0 0-3.94-32.34c-.18-.8-.36-1.59-.55-2.39 0 0 2-.41 4.89-.83 2.39-.35 5.39-.71 8.33-.85a147.89 147.89 0 0 1 16.85 0c2.59.24 5.12.67 7.14 1.06 2.58.52 4.1 1 4.1 1s9.77 22.4 2.89 64.08z" style="fill:#407bff"/><path d="M92.29 266.28a188.37 188.37 0 0 0-3.94-32.34c2.65-.23 7.18 0 7.93 4.31.81 4.6-.21 15.42-3.99 28.03z" style="opacity:.30000000000000004"/><path d="M95.49 241.33c-.87 2.47-1.81 5.13-2.64 7.72s-1.65 5.23-2.39 7.85a89.2 89.2 0 0 0-3.24 15.51l-.07.92v.64a3.36 3.36 0 0 0-.64-1.58 3.33 3.33 0 0 0-1.68-1.24c-.38-.1-.48-.07-.49-.06a.62.62 0 0 0 .32 0 7.48 7.48 0 0 0 1.39-.22 49.53 49.53 0 0 0 7.22-2.58c5-2.14 10.07-4.62 15.07-7.08l3.06 4.64A114.42 114.42 0 0 1 97.1 276a48.64 48.64 0 0 1-8.37 4.09 18.14 18.14 0 0 1-2.75.73 11.17 11.17 0 0 1-1.79.19 8.18 8.18 0 0 1-2.59-.37 6.54 6.54 0 0 1-3.38-2.44 6.88 6.88 0 0 1-1.22-3.62 8.44 8.44 0 0 1 0-.87v-1.81a62.89 62.89 0 0 1 .91-9.16c.48-3 1.1-5.86 1.82-8.71s1.5-5.67 2.4-8.45 1.8-5.49 2.94-8.31z" style="fill:#803e3c"/><path d="M87.8 231.55c7.22-2.28 11.84 3.49 9.84 13.5a65.47 65.47 0 0 1-6.86 18.26l-14.59-6.92c1.39-9.81 4.22-22.51 11.61-24.84z" style="fill:#407bff"/><path d="m101.38 211 4.51 3.74 6.14 5.1a19.92 19.92 0 0 0-.39 2.48c-.33 3.33.53 6.36 5.43 7.52 0 0 4.82 4.5-4.82 4.64s-11.88-4.54-11.88-4.54c3.63-3.65 2.26-13.54 1.01-18.94z" style="fill:#7f3e3b"/><path d="M112 219.81a19.92 19.92 0 0 0-.39 2.48c-2.29-.46-5.35-2.9-5.67-5.24a10.66 10.66 0 0 1-.08-2.34z" style="opacity:.2"/><path d="M119.18 205.35c1.77-4 .66-9.79-2.34-11.94a4.38 4.38 0 0 0-7 3.58c-.16 4.92 7.32 12.91 9.34 8.36z" style="fill:#263238"/><path d="M99.52 203.16c1.57 7.21 2.12 11.49 6.38 14.78a9.59 9.59 0 0 0 15.51-6.9c.56-6.71-2.09-17.38-9.68-19.42a9.71 9.71 0 0 0-12.21 11.54z" style="fill:#7f3e3b"/><path d="M102.58 208.78c2.29-3.74 1.93-9.62-.75-12.14a4.39 4.39 0 0 0-7.46 2.63c-.76 4.87 5.63 13.73 8.21 9.51z" style="fill:#263238"/><circle cx="102.18" cy="196.89" r="3.35" transform="rotate(-27.48 102.173 196.88)" style="fill:#263238"/><path d="M102.54 195.52a3 3 0 1 1-1.93-3.72 3 3 0 0 1 1.93 3.72z" style="fill:#263238"/><path d="M107.57 195a3 3 0 1 1-1.95-3.75 3 3 0 0 1 1.95 3.75zM101.63 191.71a3.93 3.93 0 1 1-2.56-4.92 3.91 3.91 0 0 1 2.56 4.92z" style="fill:#263238"/><path d="M107.52 189.65a4 4 0 1 1-2.61-5 4 4 0 0 1 2.61 5z" style="fill:#263238"/><path d="M112.72 188.27a4 4 0 1 1-2.62-5 4 4 0 0 1 2.62 5z" style="fill:#263238"/><path d="M118.76 188.29a4 4 0 1 1-2.63-5.07 4 4 0 0 1 2.63 5.07zM98.77 195.93a3.61 3.61 0 1 1-2.35-4.53 3.61 3.61 0 0 1 2.35 4.53zM111 192.65a3.26 3.26 0 1 1-2.13-4.09 3.26 3.26 0 0 1 2.13 4.09z" style="fill:#263238"/><path d="M115 192.35a2.77 2.77 0 1 1-1.81-3.47 2.77 2.77 0 0 1 1.81 3.47zM121.1 190.2a2.76 2.76 0 1 1-1.8-3.47 2.76 2.76 0 0 1 1.8 3.47z" style="fill:#263238"/><path d="M118.63 192.46a2.65 2.65 0 1 1-1.73-3.32 2.64 2.64 0 0 1 1.73 3.32zM123.56 188.91a2.18 2.18 0 1 1-1.42-2.73 2.17 2.17 0 0 1 1.42 2.73z" style="fill:#263238"/><path d="M124.65 190.92a1.3 1.3 0 1 1-.84-1.62 1.29 1.29 0 0 1 .84 1.62zM103.07 192.53a1.3 1.3 0 1 1-.85-1.63 1.31 1.31 0 0 1 .85 1.63z" style="fill:#263238"/><path d="M98.35 209.84a6.56 6.56 0 0 0 4 2.45c2 .36 2.66-1.51 1.76-3.33-.82-1.64-2.85-3.8-4.74-3.34s-2.23 2.63-1.02 4.22z" style="fill:#7f3e3b"/><path d="M111.87 203.82c.09.59.48 1 .87 1s.63-.56.54-1.15-.48-1-.87-1-.63.56-.54 1.15zM118.58 203c.09.59.48 1 .87 1s.63-.57.54-1.16-.48-1-.87-1-.63.59-.54 1.16z" style="fill:#263238"/><path d="M116.54 203.26a18.85 18.85 0 0 0 2.8 4.21 2.87 2.87 0 0 1-2.39.58z" style="fill:#630f0f"/><path d="M114.2 211.09a5.15 5.15 0 0 1-3.73-1.54.17.17 0 0 1 .26-.23 5 5 0 0 0 4.13 1.38.18.18 0 0 1 .19.15.18.18 0 0 1-.15.2 5.58 5.58 0 0 1-.7.04zM109.17 200.41a.44.44 0 0 1-.15-.08.35.35 0 0 1 0-.5 3.38 3.38 0 0 1 3-1.16.34.34 0 0 1 .28.41.34.34 0 0 1-.4.28 2.67 2.67 0 0 0-2.31.94.37.37 0 0 1-.42.11zM121 200a.34.34 0 0 1-.32-.07 3 3 0 0 0-2.51-.68.34.34 0 0 1-.43-.24.35.35 0 0 1 .24-.43 3.62 3.62 0 0 1 3.14.81.36.36 0 0 1 .05.5.45.45 0 0 1-.17.11z" style="fill:#263238"/><path d="m106.79 262.05 2.6-6.32 5.48 5.83s-2.65 6.2-5.73 4.56z" style="fill:#7f3e3b"/><path style="fill:#7f3e3b" d="m116.22 251.48 3.05 5.04-4.4 5.04-5.48-5.84 6.83-4.24z"/></g><g><circle cx="278.24" cy="188.55" r="8.74" style="fill:#263238"/><path d="M280.27 197.54a9 9 0 1 1 9-9 9 9 0 0 1-9 9zm0-17.47a8.49 8.49 0 1 0 8.49 8.48 8.49 8.49 0 0 0-8.49-8.48zM260.9 202.59a9 9 0 1 1 9-9 9 9 0 0 1-9 9zm0-17.48a8.49 8.49 0 1 0 8.49 8.49 8.49 8.49 0 0 0-8.49-8.49z" style="fill:#263238"/><circle cx="261.77" cy="193.41" r="8.95" style="fill:#263238"/><path d="M253.09 179.86c-1.09 5.14 2.64 14.14 6.56 14.63s4.69-9.3 1.29-13.57-7.03-4.8-7.85-1.06z" style="fill:#263238"/><path d="M260.42 218.82c.47 2.83.72 5.48.93 8.23s.25 5.47.21 8.23a66.57 66.57 0 0 1-2.16 16.61c-1.55 5.3-3.41 10.25-5.34 15.24l-3 7.42c-1.05 2.45-2.06 4.9-3.17 7.34l-3.52-1.28 2.17-7.65 2.21-7.62 2.16-7.6c.72-2.52 1.4-5.07 2-7.52a64.06 64.06 0 0 0 1.22-14.95c0-2.55-.16-5.11-.37-7.66s-.48-5.17-.79-7.58z" style="fill:#ff8b7b"/><path d="M253.41 211.18c-2.79 1.43-2.09 14.12-2.09 14.12l13.11 5.14s1.37-15.54-1.65-18.29-5.28-3.06-9.37-.97z" style="fill:#407bff"/><path style="opacity:.2" d="m254.3 213.85.52 12.83 5.31 2.07-5.83-14.9z"/><path d="m245.84 278.71-8.34 3.4 6.42 3.4s4.28-2.06 4.41-5.12zM269.01 406.03h-7.39l-1.25-17.11h7.39l1.25 17.11zM310.02 395l-7.25 1.43-5.64-16.32 7.24-1.43 5.65 16.32z" style="fill:#ff8b7b"/><path d="m301.71 395.18 7.81-2.8a.58.58 0 0 1 .72.28l3.11 5.86a1.19 1.19 0 0 1-.67 1.64c-2.74.93-4.11 1.24-7.55 2.47-2.11.75-6.13 3-9.05 4s-4.1-1.79-3-2.48a19.21 19.21 0 0 0 7.6-8.16 1.94 1.94 0 0 1 1.03-.81zM261.07 405.17h8.3a.58.58 0 0 1 .58.51l.95 6.56a1.19 1.19 0 0 1-1.18 1.32c-2.9-.05-4.29-.22-7.94-.22-2.25 0-6.89.23-10 .23s-3.26-3.07-2-3.34c5.78-1.25 8.06-3 10-4.6a1.92 1.92 0 0 1 1.29-.46z" style="fill:#263238"/><g style="opacity:.2"><path d="m260.37 388.93.68 9.31h7.39l-.68-9.31h-7.39zM304.38 378.68l-7.25 1.44 3.15 9.09 7.17-1.65-3.07-8.88z"/></g><path d="M253.41 211.18s-3.15 2 13.33 42.69l29.26-6.65c-3.2-11.79-4.88-19.13-4.74-44.86a88.34 88.34 0 0 0-12.8 1.19 95.22 95.22 0 0 0-13.28 3c-5.6 1.84-11.77 4.63-11.77 4.63z" style="fill:#407bff"/><path d="M291.24 206.33a11.91 11.91 0 0 0-4.73 6.87c-.77 3.53 4.13 9.49 5.28 10.82-.35-4.73-.53-10.41-.55-17.69z" style="opacity:.2"/><path d="M274.1 190.49c.14 4.47.71 10.89 4.35 13.06a31.63 31.63 0 0 1-9.08 14.36c-7-3.39-4.2-11.34-4.2-11.34 4.51-2.22 3.95-4.13 2.36-7.26z" style="fill:#ff8b7b"/><path d="m271.42 194.09-3.89 5.22a13.74 13.74 0 0 1 1 2.26c1.76-.68 4.27-2.88 4.21-4.95a5.81 5.81 0 0 0-1.32-2.53z" style="opacity:.2"/><path d="M273.59 179.71c2.19 7 3.26 9.91 1.15 14.74-3.19 7.26-12.26 8.41-16.49 2.21-3.81-5.58-6.75-16.09-1.09-21.36a10 10 0 0 1 16.43 4.41z" style="fill:#ff8b7b"/><path d="M266.74 253.87s-16.8 42.78-16.32 65.3c.51 23.43 9.09 76.87 9.09 76.87h10S267.92 344 268.8 321c1-25.08 19.36-72 19.36-72z" style="fill:#407bff"/><path d="M266.74 253.87s-16.8 42.78-16.32 65.3c.51 23.43 9.09 76.87 9.09 76.87h10S267.92 344 268.8 321c1-25.08 19.36-72 19.36-72z" style="opacity:.5"/><path style="fill:#263238" d="M270.37 396.39h-11.72l-.86-3.73 13.12-.46-.54 4.19z"/><path d="M274.4 267c-5.72 10.13-5.21 26.65-3.67 39.1a307.87 307.87 0 0 1 9.73-35.49c-.8-6.72-2.55-9.83-6.06-3.61z" style="opacity:.2"/><path d="M274.46 252.11s-4 46.79 1.16 65.78C281.71 340.44 298 387.2 298 387.2l9.88-1.95s-8-53.95-12.7-65.83c-9.94-25.35 12.26-57.83.85-72.2z" style="fill:#407bff"/><path d="M274.46 252.11s-4 46.79 1.16 65.78C281.71 340.44 298 387.2 298 387.2l9.88-1.95s-8-53.95-12.7-65.83c-9.94-25.35 12.26-57.83.85-72.2z" style="opacity:.5"/><path style="fill:#263238" d="m309.08 385.54-12.26 2.42-2.06-3.59 14.29-3.51.03 4.68zM263.38 185.68c.21.56.09 1.12-.28 1.26s-.83-.2-1-.76-.09-1.12.27-1.25.8.2 1.01.75zM257.09 188.08c.21.56.09 1.12-.28 1.26s-.83-.2-1-.76-.09-1.12.27-1.26.79.2 1.01.76z"/><path d="m256.22 187.29-1.49.13s1.09.78 1.49-.13z" style="fill:#263238"/><path d="M259.41 188.34a15.86 15.86 0 0 1-.63 4.31 2.54 2.54 0 0 0 2.12-.38z" style="fill:#ff5652"/><path d="M264.77 193.29a5.26 5.26 0 0 1-.79.38.18.18 0 0 1-.23-.1.17.17 0 0 1 .1-.23 4.75 4.75 0 0 0 2.94-3.1.17.17 0 0 1 .34.08 4.93 4.93 0 0 1-2.36 2.97zM261.19 176.42c2.25 5.68 11.94 10.63 15.42 9.12 4.16-1.81 3-10.81-3.68-13.64-5.59-2.38-13.38.38-11.74 4.52z" style="fill:#263238"/><path d="M266.51 171.52c-2.2-2.18-15.4-1.64-16.51 4.15-1.54 8 6.14 6.19 10.34 4.53 5.37-2.11 9.05-5.83 6.17-8.68z" style="fill:#263238"/><path d="M277.35 186.31a5.37 5.37 0 0 1-1.62 3.76c-1.35 1.3-2.91.3-3.28-1.44-.33-1.57 0-4.13 1.7-4.77a2.4 2.4 0 0 1 3.2 2.45z" style="fill:#ff8b7b"/><path d="M264 183a.36.36 0 0 1-.4-.1 4.15 4.15 0 0 0-3.16-1 .35.35 0 1 1-.07-.7 4.77 4.77 0 0 1 3.75 1.26.35.35 0 0 1 0 .5zM253.29 186a.34.34 0 0 1-.34 0 .36.36 0 0 1-.14-.48 3.46 3.46 0 0 1 2.64-1.8.35.35 0 0 1 .37.33.35.35 0 0 1-.33.37 2.75 2.75 0 0 0-2.07 1.45.33.33 0 0 1-.13.13z" style="fill:#263238"/><path d="M298.39 397.39h-.08a1 1 0 0 1-.59-.78.62.62 0 0 1 .16-.58c.68-.65 3.28-.05 3.57 0a.2.2 0 0 1 .14.14.18.18 0 0 1-.08.18c-.8.51-2.24 1.32-3.12 1.04zm2.57-1.12c-1-.21-2.48-.36-2.83 0a.25.25 0 0 0-.07.26.69.69 0 0 0 .38.53c.47.18 1.39-.06 2.56-.79z" style="fill:#407bff"/><path d="M301.12 396.3c-.88-.28-2.35-1.2-2.46-2a.62.62 0 0 1 .39-.66 1 1 0 0 1 .78 0c1 .4 1.72 2.4 1.75 2.49a.18.18 0 0 1 0 .17.21.21 0 0 1-.17.06zm-1.47-2.3a.56.56 0 0 0-.44 0c-.2.11-.22.22-.2.3.07.51 1.26 1.36 2.11 1.65-.27-.66-.83-1.72-1.42-2zM258.29 406.46a2.79 2.79 0 0 1-1.79-.45 1 1 0 0 1-.31-.85.58.58 0 0 1 .29-.47c.91-.5 3.85 1 4.19 1.18a.19.19 0 0 1 .09.18.17.17 0 0 1-.14.15 13 13 0 0 1-2.33.26zm-1.29-1.52a.63.63 0 0 0-.33.06.2.2 0 0 0-.11.19.6.6 0 0 0 .2.56c.44.4 1.66.47 3.3.2a9.45 9.45 0 0 0-3.06-1.01z" style="fill:#407bff"/><path d="M260.58 406.2h-.07c-.88-.4-2.62-2-2.48-2.83 0-.2.17-.45.65-.49a1.23 1.23 0 0 1 1 .3c.93.77 1.1 2.76 1.11 2.84a.18.18 0 0 1-.07.16.2.2 0 0 1-.14.02zm-1.76-3h-.1c-.32 0-.34.16-.35.21-.08.5 1.1 1.75 2 2.3a4.06 4.06 0 0 0-.94-2.28.88.88 0 0 0-.61-.22z" style="fill:#407bff"/><path d="M262.51 184.89 261 185s1.11.8 1.51-.11z" style="fill:#263238"/><path d="m296 245.4 1.34 2.45c.15.18 0 .44-.38.52l-30.11 6.84c-.26.06-.51 0-.57-.18l-.85-2.56c-.06-.17.13-.38.42-.44l29.62-6.74a.57.57 0 0 1 .53.11z" style="fill:#fff"/><path d="m292.71 249.64.8-.18c.15 0 .26-.14.22-.24l-1.14-3.32a.32.32 0 0 0-.35-.11l-.79.18c-.16 0-.26.15-.23.24l1.15 3.32c.03.1.19.15.34.11z" style="fill:#407bff"/><path d="m292.71 249.64.8-.18c.15 0 .26-.14.22-.24l-1.14-3.32a.32.32 0 0 0-.35-.11l-.79.18c-.16 0-.26.15-.23.24l1.15 3.32c.03.1.19.15.34.11z" style="opacity:.5"/><path d="m269.18 255 .8-.18c.16 0 .26-.14.22-.24l-1.14-3.32a.29.29 0 0 0-.35-.11l-.79.18c-.16 0-.26.15-.23.24l1.15 3.32c.03.11.16.11.34.11z" style="fill:#407bff"/><path d="m269.18 255 .8-.18c.16 0 .26-.14.22-.24l-1.14-3.32a.29.29 0 0 0-.35-.11l-.79.18c-.16 0-.26.15-.23.24l1.15 3.32c.03.11.16.11.34.11z" style="opacity:.5"/><path d="m280.9 252.33.79-.18c.16 0 .26-.15.23-.24l-1.15-3.32c0-.1-.19-.15-.34-.11l-.8.18c-.16 0-.26.14-.22.24l1.14 3.32a.32.32 0 0 0 .35.11z" style="fill:#407bff"/><path d="m280.9 252.33.79-.18c.16 0 .26-.15.23-.24l-1.15-3.32c0-.1-.19-.15-.34-.11l-.8.18c-.16 0-.26.14-.22.24l1.14 3.32a.32.32 0 0 0 .35.11z" style="opacity:.5"/><path style="fill:#ff8b7b" d="m234.67 286.89 5.89 1.46 3.36-2.84-6.42-3.4-2.83 4.78zM281.68 238.49l-5.75-5.49-.5 7.5s4 2.55 6.68 1.06z"/><path d="M296 209.18c.26.33.39.52.57.77l.48.69q.45.69.87 1.38.82 1.38 1.56 2.79 1.41 2.82 2.54 5.73c.77 1.93 1.41 3.91 2 5.89.29 1 .53 2 .78 3l.1.38.11.48a7.66 7.66 0 0 1 .18 1.31 7 7 0 0 1-.46 2.83 8.14 8.14 0 0 1-3.12 3.7 15.13 15.13 0 0 1-3.35 1.63 30.91 30.91 0 0 1-6.35 1.4 61.66 61.66 0 0 1-12.29.22v-3.74c1.88-.23 3.83-.47 5.71-.8s3.78-.66 5.59-1.12A30.44 30.44 0 0 0 296 234a9.06 9.06 0 0 0 1.89-1.12c.48-.39.65-.74.61-.79s0 0 0-.09l-.24-.72c-.3-.9-.6-1.8-.94-2.68-.61-1.79-1.36-3.53-2.08-5.25s-1.55-3.41-2.43-5c-.42-.81-.87-1.62-1.33-2.39-.23-.39-.47-.76-.71-1.13l-.34-.54-.3-.43z" style="fill:#ff8b7b"/><path d="M291.25 202.36c3.13.23 8.94 9.52 8.94 9.52l-8.9 9.64s-6.68-6.41-6.29-10.52c.37-4.19 2.67-8.9 6.25-8.64z" style="fill:#407bff"/><path style="fill:#ff8b7b" d="m269.75 232.31-.07 6.3 5.75 1.84.5-7.5-6.18-.64z"/></g><g><path d="M390.48 330.33h-45.74a3 3 0 0 1 0-6h45.74a3 3 0 0 1 0 6z" style="fill:#407bff"/><path d="M390.48 330.33h-45.74a3 3 0 0 1 0-6h45.74a3 3 0 0 1 0 6z" style="fill:#fff;opacity:.8"/><path style="fill:#ffb573" d="M331.37 406.94h-7.41l-4.31-17.16h7.41l4.31 17.16z"/><path d="M323.44 405.14h8.33a.53.53 0 0 1 .55.51l.4 6.59a1.32 1.32 0 0 1-1.3 1.32c-2.9-.05-4.28-.22-7.94-.22-2.26 0-11.84.23-15 .23s-3-3.08-1.7-3.36c5.91-1.25 13.24-3 15.33-4.61a2.09 2.09 0 0 1 1.33-.46z" style="fill:#263238"/><path style="opacity:.2" d="M327.07 389.78h-7.42l2.23 8.85h7.41l-2.22-8.85z"/><path d="M351.08 295.63S290.75 299.76 292 321c1.32 23.24 26.69 75.51 26.69 75.51h13.58s-12.31-44.44-15.28-68.11c14.39-6 53.42-.25 58-12.68a40.75 40.75 0 0 0 1.72-20.07z" style="fill:#407bff"/><path d="M317.68 333.57c-.17-1.06-.32-2.1-.46-3.1-.1-.71-.2-1.41-.28-2.09a35.86 35.86 0 0 1 8.39-2.06c-1-6.82-2.36-13.1-2.36-13.1-7 0-14.89 12-4.41 25.48q-.26-1.38-.48-2.73c-.14-.81-.27-1.62-.4-2.4z" style="opacity:.30000000000000004"/><path style="fill:#263238" d="M333.68 396.49H315.8l-1.54-5.87 17.73-1.41 1.69 7.28z"/><path d="M320.81 406.43a9.6 9.6 0 0 0 2-.26.2.2 0 0 0 .13-.14.19.19 0 0 0-.07-.17c-.24-.17-2.34-1.6-3.24-1.25a.7.7 0 0 0-.41.49 1 1 0 0 0 .22.94 2 2 0 0 0 1.37.39zm1.5-.51c-1.32.26-2.3.22-2.65-.12a.64.64 0 0 1-.12-.62.3.3 0 0 1 .19-.24c.49-.19 1.72.43 2.58.98z" style="fill:#407bff"/><path d="M322.75 406.17a.13.13 0 0 0 .08 0 .18.18 0 0 0 .09-.14c0-.09.17-2.22-.57-2.94a.91.91 0 0 0-.74-.24.66.66 0 0 0-.62.52c-.17.81.93 2.36 1.67 2.8zm-1-3a.54.54 0 0 1 .38.15 3.88 3.88 0 0 1 .48 2.35c-.64-.54-1.38-1.72-1.27-2.25 0-.1.08-.22.33-.25z" style="fill:#407bff"/><path d="M358.84 239.29c-1.13 3.11-2.36 6.15-3.57 9.21s-2.48 6.1-3.79 9.12c-2.59 6.07-5.3 12.08-8.3 18.07l-.43.85-.44.45a30.92 30.92 0 0 1-7.22 5.38 36.84 36.84 0 0 1-8 3.17 44.79 44.79 0 0 1-8.18 1.42c-1.37.12-2.73.15-4.09.15a37.71 37.71 0 0 1-4.17-.23l.11-5.57c1.05-.16 2.31-.37 3.46-.61s2.34-.54 3.49-.85a47.1 47.1 0 0 0 6.63-2.3 33.37 33.37 0 0 0 5.86-3.23 23.69 23.69 0 0 0 4.63-4.2l-.87 1.3c2.48-5.9 4.83-12 7.21-18l3.57-9.09 3.61-9.06z" style="fill:#ffb573"/><path d="M347 236.61c-6 6.92-10 16.6-10 16.6l15.76 9.49c4.55-5.54 10.23-20.22 10.46-25.17.35-7.61-9.72-8.37-16.22-.92z" style="fill:#263238"/><path d="M352.56 243.67c-3.44 2.89-5.88 8.9-6.95 14.73l7.14 4.3c2.25-2.74 4.78-7.71 6.79-12.65-1.61-4.9-3.94-8.94-6.98-6.38z" style="opacity:.30000000000000004"/><path style="fill:#ffb573" d="m360.63 402.29-7.21 1.7-7.25-15.93 7.22-1.7 7.24 15.93z"/><path d="m352.18 402 7.81-2.88a.55.55 0 0 1 .7.29l2.65 6a1.39 1.39 0 0 1-.76 1.69c-2.56 1.36-4 1.45-7.53 2.54-1.55.47-5.49 3.74-10.05 3.74h-4c-2.36 0-2.68-2.52-1.37-2.87 6.33-1.69 10.08-5.41 11.48-7.68a2 2 0 0 1 1.07-.83z" style="fill:#263238"/><path style="opacity:.2" d="m353.39 386.36-7.22 1.7 3.74 8.21 7.22-1.7-3.74-8.21z"/><path d="M365.6 295.63s-48.88 4.13-47.68 25.35c1.32 23.24 28.37 73.95 28.37 73.95l13.21-3.11s-14-42.62-17-66.28c13.78 0 42.36 2.59 47-9.84a40.75 40.75 0 0 0 1.72-20.07z" style="fill:#407bff"/><path style="fill:#263238" d="m360.92 391.48-17.4 4.1-1.85-5.85 17.62-5.18 1.63 6.93z"/><path d="M350.16 404.16a9.63 9.63 0 0 0 1.76-.93.18.18 0 0 0 .08-.17.17.17 0 0 0-.13-.14c-.28-.07-2.74-.7-3.47-.05a.66.66 0 0 0-.21.6.92.92 0 0 0 .53.8 2 2 0 0 0 1.44-.11zm1.23-1c-1.15.7-2.08 1-2.53.8a.63.63 0 0 1-.33-.54.33.33 0 0 1 .1-.29c.37-.35 1.76-.19 2.76.03z" style="fill:#407bff"/><path d="M351.89 403.25a.15.15 0 0 0 .06-.05.16.16 0 0 0 0-.16c0-.09-.6-2.15-1.55-2.56a.84.84 0 0 0-.77 0 .67.67 0 0 0-.41.71c.12.82 1.69 1.89 2.54 2.05zm-2-2.47a.51.51 0 0 1 .4 0c.57.25 1 1.38 1.27 2-.79-.28-1.89-1.13-2-1.67 0-.1 0-.23.22-.35z" style="fill:#407bff"/><path d="m312.08 281.16-8.37-1.71 1.05 8.14s8.1.35 8.71-2.12z" style="fill:#ffb573"/><path style="fill:#ffb573" d="m297.6 284.05 2.2 5.47 4.96-1.93-1.05-8.14-6.11 4.6z"/><path d="M351.12 296h39.65c.28-3.54-.54-15.06.07-29.73a188.37 188.37 0 0 1 3.94-32.34c.18-.8-.19-1.39 0-2.19a19.8 19.8 0 0 0-4.34-1c-2.39-.35-5.39-.71-8.33-.85a147.89 147.89 0 0 0-16.85 0c-2.59.24-5.12.67-7.14 1.06-2.58.52-4.1 1-4.1 1s-9.77 22.37-2.9 64.05z" style="fill:#263238"/><path d="M390.84 266.28a188.37 188.37 0 0 1 3.94-32.34c-2.65-.23-7.18 0-7.93 4.31-.85 4.6.21 15.42 3.99 28.03z" style="opacity:.30000000000000004"/><path d="M398.12 237.27c1.17 2.89 2.07 5.65 3 8.52s1.73 5.72 2.44 8.65 1.36 5.89 1.82 8.95c.25 1.5.42 3.07.6 4.62s.23 3.16.2 4.83v1.22a8.4 8.4 0 0 1-.45 2.63 10.08 10.08 0 0 1-2.21 3.58 19 19 0 0 1-4.67 3.44 48 48 0 0 1-8.86 3.56 100.7 100.7 0 0 1-17.62 3.52l-1.15-5.45c2.65-.92 5.38-1.87 8-2.89s5.27-2 7.78-3.18a47 47 0 0 0 6.94-3.69 9.08 9.08 0 0 0 2.15-1.89c.18-.23.16-.35 0-.12a1.15 1.15 0 0 0-.07.24v.24l-.08-.94a56 56 0 0 0-1.18-7.81c-.56-2.66-1.24-5.35-2-8s-1.58-5.36-2.45-8-1.8-5.38-2.7-7.91z" style="fill:#ffb573"/><path d="M394.78 231.75c-7.22-2.28-11.29 3.29-9.29 13.3a65.66 65.66 0 0 0 6.87 18.26l14.58-6.92c-1.38-9.81-4.77-22.31-12.16-24.64z" style="fill:#263238"/><path d="m382.09 213-4.51 3.74-6.14 5.1a19.92 19.92 0 0 1 .39 2.48c.33 3.33-2.37 4.88-5.77 5.52 0 0-4.82 4.5 4.82 4.64s11.88-4.54 11.88-4.54c-3.67-3.65-1.92-11.54-.67-16.94z" style="fill:#ffb573"/><path d="M381.83 229.88a29.27 29.27 0 0 1-10.38 4.56c1.89 1.88 3.11 6.5 3.11 6.5S385 238.49 385.38 230a8.16 8.16 0 0 0-1.73-.55 2.4 2.4 0 0 0-1.82.43zM366.82 230.08c-.24 1.18 0 3.34 4.63 4.36-2.85 1.64-4.07 6-4.07 6s-6.46-5.67-3.14-10.57a8.07 8.07 0 0 1 1.89-.56.61.61 0 0 1 .69.77z" style="fill:#407bff"/><path d="M371.44 221.81a19.92 19.92 0 0 1 .39 2.48c3.8-.58 6.26-2.83 6.58-5.16.12-.88-.77-1.81-.83-2.42z" style="opacity:.2"/><path d="M365.66 210.37c-3.52-2.61-5.4-8.19-3.86-11.54a4.4 4.4 0 0 1 7.9-.35c2.53 4.23-.04 14.86-4.04 11.89z" style="fill:#263238"/><path d="M382.4 203.41c.06 7.38.48 11.68-2.95 15.83a9.59 9.59 0 0 1-16.66-3.3c-2-6.42-1.8-17.4 5.14-21.07a9.71 9.71 0 0 1 14.47 8.54z" style="fill:#ffb573"/><path d="M379.85 209.28c-2.66-3.49-2.91-9.37-.49-12.16A4.39 4.39 0 0 1 387 199c1.29 4.74-4.14 14.24-7.15 10.28z" style="fill:#263238"/><path d="M363.54 197.73c-2.23-1.34 2.92-5.87 9.6-7.85 7.46-2.21 16.89 3.59 17.35 8.62.48 5.3-3.1 2.72-3.66 4.38 0 0-18.72-2.4-23.29-5.15z" style="fill:#407bff"/><path d="M361.28 199.58a5.15 5.15 0 0 1 1.26-2.91c.38-.35 22.5 4.11 24.8 6.09.43.37-1.12 3.53-1.46 3.12-2.42-2.88-24.51-5.5-24.6-6.3z" style="fill:#407bff"/><path d="M361.28 199.58a5.15 5.15 0 0 1 1.26-2.91c.38-.35 22.5 4.11 24.8 6.09.43.37-1.12 3.53-1.46 3.12-2.42-2.88-24.51-5.5-24.6-6.3z" style="opacity:.30000000000000004"/><path d="M384.79 207.61a.25.25 0 0 0 .11 0 .25.25 0 0 0 .08-.34c-1.19-1.95-9.35-2.61-10.27-2.68a33.78 33.78 0 0 0-7.89.52 2.31 2.31 0 0 0-2 .19 23.74 23.74 0 0 0-5.12.5.25.25 0 0 0-.19.3.25.25 0 0 0 .3.19 23.35 23.35 0 0 1 5.06-.49.31.31 0 0 0 .13 0 1.8 1.8 0 0 1 1.63-.18.25.25 0 0 0 .17 0 32.36 32.36 0 0 1 7.83-.53c2.45.18 9 1 9.88 2.44a.26.26 0 0 0 .28.08z" style="fill:#263238"/><path d="M371.4 211.44h.24a3.45 3.45 0 0 0 2.53-1.52c1.26-1.95.41-5 .38-5.1a.13.13 0 0 0-.16-.09.13.13 0 0 0-.08.16s.85 3-.35 4.9a3.16 3.16 0 0 1-2.36 1.4 3.09 3.09 0 0 1-2.55-.65c-1.84-1.55-2-5.16-2-5.19a.13.13 0 0 0-.13-.13.14.14 0 0 0-.12.13c0 .15.12 3.76 2.05 5.38a3.3 3.3 0 0 0 2.55.71zM362.55 212.08a2.68 2.68 0 0 0 2-1c1.35-1.8.51-5.22.48-5.36a.13.13 0 0 0-.25.06s.85 3.45-.43 5.15a2.47 2.47 0 0 1-2 1 1.71 1.71 0 0 1-1.39-.57c-1.33-1.47-.84-5.25-.84-5.29a.12.12 0 0 0-.1-.14.12.12 0 0 0-.14.1c0 .16-.51 4 .9 5.5a2 2 0 0 0 1.58.65z" style="fill:#263238"/><path d="M385 209.67a6.58 6.58 0 0 1-3.32 3.27c-1.91.8-2.92-.89-2.45-2.87.43-1.78 1.94-4.33 3.88-4.3s2.74 2.08 1.89 3.9z" style="fill:#ffb573"/><path d="M370.5 206.79c0 .59-.24 1.11-.63 1.15s-.73-.41-.78-1 .24-1.12.63-1.16.74.41.78 1.01zM363.78 207.5c0 .59-.24 1.11-.63 1.15s-.74-.41-.78-1 .24-1.11.63-1.15.74.4.78 1z" style="fill:#263238"/><path d="M366 207.8a22.24 22.24 0 0 1-2.12 5.55 3.41 3.41 0 0 0 2.89.05z" style="fill:#ed893e"/><path d="M369.84 214.4a5.16 5.16 0 0 0 3.3-2.33.19.19 0 0 0-.07-.24.18.18 0 0 0-.24.08 4.94 4.94 0 0 1-3.72 2.25.18.18 0 0 0-.15.2.17.17 0 0 0 .19.15 5 5 0 0 0 .69-.11zM373.54 203.9a.34.34 0 0 0 .06-.6 3.42 3.42 0 0 0-3.14-.48.35.35 0 0 0-.19.46.36.36 0 0 0 .46.19 2.71 2.71 0 0 1 2.46.4.32.32 0 0 0 .35.03zM360.78 205.1a.36.36 0 0 0 .3-.13 2.94 2.94 0 0 1 2.29-1.22.35.35 0 0 0 .37-.33.35.35 0 0 0-.33-.37 3.61 3.61 0 0 0-2.88 1.49.34.34 0 0 0 .07.49.26.26 0 0 0 .18.07z" style="fill:#263238"/><path d="m373.08 285-6.13-3-.26 8s6.08 2.89 7.31-.37zM359.01 283.25l.11 7.09 7.57-.41.26-8.01-7.94 1.33z" style="fill:#ffb573"/></g><g><path d="M395.4 416.24h-6v-114.4a9 9 0 0 0-9-9H141.13a9 9 0 0 0-9 9v114.4h-6v-114.4a15 15 0 0 1 15-15H380.4a15 15 0 0 1 15 15z" style="fill:#407bff"/><path d="M395.4 416.24h-6v-114.4a9 9 0 0 0-9-9H141.13a9 9 0 0 0-9 9v114.4h-6v-114.4a15 15 0 0 1 15-15H380.4a15 15 0 0 1 15 15z" style="fill:#fff;opacity:.7000000000000001"/><path d="M373.87 416.24h-6v-114.4a9 9 0 0 0-9-9H119.6a9 9 0 0 0-9 9v114.4h-6v-114.4a15 15 0 0 1 15-15h239.27a15 15 0 0 1 15 15z" style="fill:#407bff"/><path d="M373.87 416.24h-6v-114.4a9 9 0 0 0-9-9H119.6a9 9 0 0 0-9 9v114.4h-6v-114.4a15 15 0 0 1 15-15h239.27a15 15 0 0 1 15 15z" style="fill:#fff;opacity:.8"/><path d="M243.08 284.41h-51.54a3.07 3.07 0 0 1-3-2.68l-3.44-32.46a2.36 2.36 0 0 1 2.39-2.67h51.54a3.06 3.06 0 0 1 3 2.67l3.44 32.46a2.37 2.37 0 0 1-2.39 2.68z" style="fill:#407bff"/><path d="M243.08 284.41h-51.54a3.07 3.07 0 0 1-3-2.68l-3.44-32.46a2.36 2.36 0 0 1 2.39-2.67h51.54a3.06 3.06 0 0 1 3 2.67l3.44 32.46a2.37 2.37 0 0 1-2.39 2.68z" style="opacity:.2"/><path style="fill:#407bff" d="M204.63 243.1h4.17v1h-4.17zM191.38 243.1h9.67v1h-9.67zM241.65 284.41h-51.53a3.05 3.05 0 0 1-3-2.68l-3.45-32.46a2.37 2.37 0 0 1 2.39-2.67h51.54a3.05 3.05 0 0 1 3 2.67l3.45 32.46a2.38 2.38 0 0 1-2.4 2.68z"/><path d="M244 284.17h-51.5a2.68 2.68 0 0 0-2.68 2.67h56.89a2.68 2.68 0 0 0-2.71-2.67z" style="fill:#407bff"/><path d="M261.67 284.17h-18.41a2.68 2.68 0 0 0-2.67 2.67h23.76a2.68 2.68 0 0 0-2.68-2.67z" style="fill:#407bff"/><path d="M261.67 284.17h-18.41a2.68 2.68 0 0 0-2.67 2.67h23.76a2.68 2.68 0 0 0-2.68-2.67z" style="opacity:.2"/></g></svg>